<?xml version="1.0" encoding="UTF-8"?>
<!DOCTYPE svg PUBLIC "-//W3C//DTD SVG 1.1//EN" "http://www.w3.org/Graphics/SVG/1.1/DTD/svg11.dtd">
<!-- Creator: CorelDRAW 2021 (64-Bit) -->
<svg xmlns="http://www.w3.org/2000/svg" xml:space="preserve" width="40.1879mm" height="12.7002mm" version="1.1" style="shape-rendering:geometricPrecision; text-rendering:geometricPrecision; image-rendering:optimizeQuality; fill-rule:evenodd; clip-rule:evenodd"
viewBox="0 0 7082.76 2238.3"
 xmlns:xlink="http://www.w3.org/1999/xlink"
 xmlns:xodm="http://www.corel.com/coreldraw/odm/2003">
 <defs>
  <style type="text/css">
   <![CDATA[
    .fil2 {fill:#08A42A;fill-rule:nonzero}
    .fil0 {fill:#1E3978;fill-rule:nonzero}
    .fil1 {fill:#FFCC00;fill-rule:nonzero}
   ]]>
  </style>
 </defs>
 <g id="Capa_x0020_1">
  <metadata id="CorelCorpID_0Corel-Layer"/>
  <g id="_2168743032896">
   <path class="fil0" d="M234.63 2005.57c0,-1.85 0.56,-3.49 1.73,-4.81 1.15,-1.37 2.87,-2.06 5.16,-2.06l51.22 0c1.45,0 2.96,0.37 4.51,1.09 1.59,0.72 2.94,1.99 4.07,3.77 13.27,21.4 26.44,42.47 39.5,63.24 13.01,20.8 26.24,41.86 39.6,63.29l0 -125.47c0.41,-1.85 1.23,-3.33 2.5,-4.34 1.25,-1.08 2.7,-1.59 4.37,-1.59l44.62 0c2.2,0 4.02,0.6 5.48,1.78 1.46,1.2 2.19,2.91 2.19,5.09l0 219.53c0,2.11 -0.62,3.67 -1.87,4.64 -1.25,0.99 -2.98,1.48 -5.16,1.48l-49.95 0c-1.36,0 -2.56,-0.49 -3.61,-1.41 -1.02,-0.9 -2.11,-2.22 -3.3,-3.75 -13.85,-22.95 -27.6,-45.65 -41.17,-68.12 -13.57,-22.44 -27.37,-45.15 -41.33,-68.1l0 134.47c0,2.31 -0.51,4.04 -1.57,5.18 -1.02,1.13 -2.93,1.73 -5.64,1.73l-44.47 0c-2.41,0 -4.12,-0.63 -5.23,-1.96 -1.11,-1.3 -1.66,-2.91 -1.66,-4.78l0 -218.91z"/>
   <path class="fil0" d="M491.27 2005.57c0,-1.85 0.56,-3.49 1.71,-4.81 1.13,-1.37 2.87,-2.06 5.16,-2.06l46.05 0c1.55,0 3.23,0.63 4.99,1.89 1.78,1.25 2.66,2.91 2.66,4.99l0 218.73c0,4.6 -2.56,6.91 -7.65,6.91l-46.05 0c-4.58,0 -6.87,-2.31 -6.87,-6.91l0 -218.73z"/>
   <path class="fil0" d="M666.31 2227.93c-1.15,-1.9 -2.15,-3.81 -3.05,-5.82 -0.88,-1.96 -1.74,-4 -2.57,-6.08l-80.31 -210.29c0,-0.53 -0.11,-1 -0.25,-1.41 -0.18,-0.42 -0.23,-0.83 -0.23,-1.27 0,-2.91 1.94,-4.37 5.8,-4.37l50.4 0c3.95,0 6.66,1.99 8.12,5.92l47.76 142.53c4.28,-11.9 8.37,-23.77 12.3,-35.65 3.91,-11.83 7.75,-23.72 11.6,-35.62 3.81,-11.88 7.65,-23.76 11.58,-35.6 3.91,-11.84 7.98,-23.7 12.3,-35.65 1.45,-3.93 4.34,-5.92 8.6,-5.92l49.31 0c2.41,0 4.09,0.42 5.11,1.3 0.99,0.9 1.46,2.08 1.46,3.56 0,0.83 -0.05,1.41 -0.16,1.73l0 0.46 -80.79 210.29c-0.51,1.45 -1.13,3.05 -1.87,4.83 -0.72,1.8 -1.55,3.45 -2.52,4.95 -0.92,1.52 -2.03,2.77 -3.28,3.84 -1.25,1.02 -2.66,1.55 -4.21,1.55l-38.7 0c-3.23,0 -5.38,-1.08 -6.42,-3.28z"/>
   <path class="fil0" d="M832.44 2005.92c0,-2.2 0.58,-3.97 1.82,-5.27 1.18,-1.3 2.87,-1.97 5.06,-1.97l155.34 0c2.29,0 4.07,0.7 5.34,2.06 1.23,1.34 1.85,3.15 1.85,5.45l0 38.74c0,1.76 -0.62,3.42 -1.85,5.04 -1.27,1.6 -3.1,2.41 -5.5,2.41l-101.46 0 0 38.86 78.29 0c1.97,0 3.65,0.48 4.93,1.41 1.29,0.92 1.97,2.52 1.97,4.71l0 33.8c0,1.48 -0.6,2.86 -1.73,4.23 -1.16,1.36 -2.82,2.01 -5.02,2.01l-78.44 0 0 40.09 105.23 0c4.69,0 7.03,2.4 7.03,7.21l0 39.34c0,1.04 -0.41,1.99 -1.23,2.82 -0.42,2.91 -2.56,4.35 -6.42,4.35l-158.33 0c-2.1,0 -3.75,-0.55 -5.01,-1.62 -1.25,-1.11 -1.87,-2.82 -1.87,-5.09l0 -218.57z"/>
   <path class="fil0" d="M1166.73 2075.43c0,-3.14 -0.58,-6.27 -1.73,-9.41 -1.15,-3.12 -2.75,-6.01 -4.85,-8.64 -2.1,-2.56 -4.6,-4.78 -7.53,-6.56 -2.91,-1.76 -6.15,-2.91 -9.71,-3.44 -2.93,-0.18 -5.66,-0.41 -8.21,-0.56 -2.56,-0.12 -5.36,-0.19 -8.37,-0.19l-21.61 0 0 57.45 28.8 0c1.89,0 3.54,-0.07 5.01,-0.18 1.46,-0.12 3.08,-0.25 4.86,-0.48 3.65,-0.42 6.96,-1.48 9.87,-3.21 2.93,-1.73 5.38,-3.86 7.35,-6.42 1.99,-2.57 3.51,-5.41 4.55,-8.62 1.04,-3.15 1.57,-6.43 1.57,-9.76zm-122.61 -69.51c0,-2.2 0.56,-3.97 1.73,-5.25 1.13,-1.32 2.86,-1.99 5.16,-1.99l101.16 0c10.75,0 20.8,2.03 30.21,6.03 9.41,4.04 17.59,9.5 24.59,16.37 7.01,6.91 12.51,14.96 16.53,24.18 4,9.25 6.01,19.09 6.01,29.54 0,7.1 -0.95,13.85 -2.89,20.27 -1.94,6.43 -4.62,12.44 -8.07,18.03 -3.45,5.59 -7.54,10.64 -12.28,15.17 -4.76,4.51 -9.94,8.41 -15.58,11.67l40.25 75.75c0.72,1.5 1.66,3.21 2.82,5.18 1.15,2.03 1.73,3.74 1.73,5.18 0,1.67 -0.56,2.96 -1.67,3.84 -1.08,0.9 -2.57,1.3 -4.46,1.3l-53.7 0c-1.78,0 -3.35,-0.51 -4.78,-1.53 -1.39,-1.06 -2.33,-2.45 -2.75,-4.23l-38.05 -71.55 -25.34 0 0 70.62c0,4.46 -2.4,6.7 -7.21,6.7l-46.51 0c-2.1,0 -3.77,-0.53 -5.02,-1.62 -1.23,-1.09 -1.87,-2.8 -1.87,-5.08l0 -218.57z"/>
   <path class="fil0" d="M1293.42 2156.06c1.76,1.45 4.04,3.44 6.82,5.87 2.75,2.45 5.9,4.88 9.45,7.3 5.34,3.52 10.61,6.31 15.83,8.27 5.22,2.03 10.7,2.98 16.44,2.98 5.32,0 9.8,-0.58 13.38,-1.78 3.61,-1.22 6.45,-2.8 8.57,-4.78 2.08,-1.99 3.54,-4.27 4.44,-6.89 0.86,-2.57 1.34,-5.38 1.34,-8.28 0,-3.23 -1.25,-6.13 -3.68,-8.69 -2.47,-2.54 -5.46,-4.83 -9.02,-6.8 -3.52,-1.97 -7.26,-3.67 -11.12,-5.09 -3.84,-1.41 -7.19,-2.59 -9.99,-3.52 -12.55,-4.35 -23.49,-9.09 -32.9,-14.15 -9.38,-5.06 -17.22,-10.7 -23.48,-16.88 -6.26,-6.22 -10.96,-13.02 -14.08,-20.5 -3.14,-7.45 -4.71,-15.79 -4.71,-24.96 0,-9.69 1.96,-18.52 5.87,-26.42 3.91,-7.93 9.48,-14.73 16.76,-20.37 7.24,-5.6 15.99,-9.98 26.21,-13.08 10.24,-3.03 21.66,-4.58 34.31,-4.58 9.48,0 18.59,1.08 27.3,3.21 8.72,2.13 17.31,5.57 25.75,10.26 3.58,2.1 6.93,4.25 10.12,6.49 3.17,2.24 5.99,4.42 8.39,6.49 2.38,2.1 4.3,4.05 5.71,5.97 1.41,1.89 2.11,3.51 2.11,4.86 0,1.36 -0.33,2.61 -1,3.74 -0.7,1.16 -1.71,2.47 -3.08,3.91l-23.97 25.54c-1.74,1.8 -3.54,2.63 -5.3,2.63 -1.46,0 -2.77,-0.41 -3.98,-1.23 -1.2,-0.85 -2.54,-1.87 -3.98,-3.12l-1.41 -1.25c-2.1,-1.76 -4.42,-3.61 -7,-5.46 -2.56,-1.9 -5.29,-3.6 -8.2,-5.11 -2.91,-1.53 -6.01,-2.77 -9.25,-3.77 -3.23,-0.97 -6.52,-1.46 -9.85,-1.46 -3.45,0 -6.7,0.26 -9.71,0.85 -3.03,0.58 -5.67,1.48 -7.98,2.75 -2.31,1.23 -4.12,2.91 -5.48,4.92 -1.36,2.04 -2.04,4.53 -2.04,7.44 0,2.93 0.74,5.46 2.2,7.6 1.46,2.13 3.67,4.14 6.57,5.94 2.91,1.83 6.56,3.56 10.89,5.16 4.32,1.66 9.36,3.38 15.09,5.29 11.09,3.63 21.29,7.47 30.63,11.47 9.32,4.04 17.39,8.78 24.18,14.26 6.79,5.52 12.09,12.05 15.88,19.65 3.84,7.61 5.73,16.9 5.73,27.71 0,11.51 -2.34,21.92 -7.05,31.27 -4.69,9.34 -11.14,17.29 -19.33,23.88 -8.2,6.56 -17.84,11.65 -28.87,15.24 -11.07,3.61 -23,5.41 -35.72,5.41 -11.98,0 -23.79,-2.15 -35.37,-6.45 -11.6,-4.27 -22.4,-10.03 -32.43,-17.27 -4.16,-3.03 -7.7,-5.99 -10.54,-8.95 -2.89,-2.91 -5.16,-5.29 -6.84,-7.07l-0.46 -0.46c-0.12,-0.19 -0.21,-0.33 -0.33,-0.39 -0.11,-0.05 -0.19,-0.12 -0.28,-0.25 -0.12,-0.23 -0.23,-0.35 -0.33,-0.41 -0.11,-0.05 -0.21,-0.12 -0.32,-0.21 -2.4,-2.63 -3.58,-4.74 -3.58,-6.29 0,-1.76 1.18,-3.77 3.58,-5.97l27.12 -25.82c2.17,-1.55 3.95,-2.34 5.3,-2.34 0.93,0 1.92,0.3 2.98,0.92 1.04,0.63 2.29,1.6 3.75,2.84z"/>
   <path class="fil0" d="M1470.19 2005.57c0,-1.85 0.56,-3.49 1.71,-4.81 1.15,-1.37 2.87,-2.06 5.15,-2.06l46.07 0c1.57,0 3.24,0.63 5.01,1.89 1.78,1.25 2.68,2.91 2.68,4.99l0 218.73c0,4.6 -2.57,6.91 -7.68,6.91l-46.07 0c-4.56,0 -6.86,-2.31 -6.86,-6.91l0 -218.73z"/>
   <path class="fil0" d="M1639.27 2054.76l0 120.41 13.18 0c2.38,0 4.74,-0.09 7.05,-0.26 2.27,-0.14 4.58,-0.32 6.86,-0.51 7.84,-0.63 15.16,-2.54 21.91,-5.73 6.82,-3.17 12.74,-7.37 17.8,-12.53 5.06,-5.15 9.04,-11.24 11.93,-18.26 2.84,-6.96 4.25,-14.61 4.25,-22.86 0,-8.74 -1.62,-16.81 -4.9,-24.18 -3.3,-7.37 -7.75,-13.73 -13.41,-19.09 -5.6,-5.39 -12.23,-9.57 -19.79,-12.55 -7.56,-2.96 -15.63,-4.44 -24.2,-4.44l-20.67 0zm143.3 60.43c0,11.07 -1.43,21.57 -4.23,31.55 -2.84,9.96 -6.87,19.25 -12.07,27.86 -5.23,8.62 -11.46,16.44 -18.7,23.42 -7.28,6.98 -15.32,12.95 -24.13,17.85 -8.81,4.93 -18.33,8.69 -28.57,11.35 -10.24,2.64 -20.83,3.98 -31.78,3.98l-77.21 0c-1.89,0 -3.54,-0.42 -5.01,-1.25 -1.46,-0.83 -2.2,-2.61 -2.2,-5.34l0 -218.72c0,-2.19 0.6,-3.98 1.82,-5.34 1.18,-1.36 3,-2.01 5.39,-2.01l77.21 0c10.94,0 21.52,1.34 31.69,4.05 10.19,2.71 19.69,6.57 28.52,11.58 8.79,5.01 16.87,11.02 24.18,18.01 7.3,6.98 13.54,14.84 18.72,23.51 5.16,8.62 9.18,17.99 12.04,28 2.87,10.03 4.34,20.5 4.34,31.48z"/>
   <path class="fil0" d="M1897.8 2071.82c-1.99,5.32 -3.97,11.07 -6.03,17.22 -2.03,6.17 -4.05,12.35 -6.05,18.63 -1.97,6.27 -3.97,12.44 -6.03,18.58 -2.03,6.08 -4.02,11.81 -6.01,17.11l48.06 0 -23.95 -71.54zm-28.48 -67.02c0.09,-0.6 0.44,-1.3 1,-2.03 0.56,-0.72 1.27,-1.43 2.11,-2.03 0.83,-0.63 1.73,-1.16 2.64,-1.52 0.95,-0.35 1.85,-0.53 2.7,-0.53l40.08 0c1.76,0 3.28,0.53 4.53,1.64 1.25,1.09 2.2,2.08 2.82,2.91l3.91 8.94 82.22 211.98c0.81,2.11 0.67,3.79 -0.49,5.09 -1.11,1.32 -3.12,1.96 -5.96,1.96l-44.91 0c-2.41,0 -4.28,-0.44 -5.57,-1.32 -1.3,-0.92 -2.33,-2.38 -3.05,-4.46 -2.08,-5.32 -4.12,-10.63 -6.13,-15.9 -1.97,-5.3 -3.97,-10.57 -5.92,-15.91l-83.13 0c-1.99,5.34 -4.02,10.61 -6.05,15.91 -2.03,5.27 -4.05,10.57 -6.05,15.9 -1.34,3.86 -4.02,5.78 -7.97,5.78l-46.18 0c-1.99,0 -3.65,-0.55 -4.95,-1.55 -1.32,-1.08 -1.53,-2.61 -0.7,-4.71l85.04 -220.16z"/>
   <path class="fil0" d="M2100.56 2054.76l0 120.41 13.17 0c2.38,0 4.74,-0.09 7.03,-0.26 2.29,-0.14 4.58,-0.32 6.87,-0.51 7.83,-0.63 15.14,-2.54 21.92,-5.73 6.79,-3.17 12.72,-7.37 17.77,-12.53 5.08,-5.15 9.04,-11.24 11.93,-18.26 2.86,-6.96 4.28,-14.61 4.28,-22.86 0,-8.74 -1.64,-16.81 -4.92,-24.18 -3.3,-7.37 -7.75,-13.73 -13.41,-19.09 -5.62,-5.39 -12.23,-9.57 -19.79,-12.55 -7.56,-2.96 -15.63,-4.44 -24.22,-4.44l-20.64 0zm143.27 60.43c0,11.07 -1.41,21.57 -4.23,31.55 -2.84,9.96 -6.84,19.25 -12.05,27.86 -5.23,8.62 -11.47,16.44 -18.72,23.42 -7.26,6.98 -15.3,12.95 -24.11,17.85 -8.81,4.93 -18.35,8.69 -28.59,11.35 -10.22,2.64 -20.83,3.98 -31.76,3.98l-77.23 0c-1.89,0 -3.54,-0.42 -5.01,-1.25 -1.45,-0.83 -2.19,-2.61 -2.19,-5.34l0 -218.72c0,-2.19 0.6,-3.98 1.83,-5.34 1.18,-1.36 2.98,-2.01 5.36,-2.01l77.23 0c10.93,0 21.5,1.34 31.69,4.05 10.17,2.71 19.69,6.57 28.5,11.58 8.81,5.01 16.88,11.02 24.2,18.01 7.3,6.98 13.54,14.84 18.72,23.51 5.16,8.62 9.18,17.99 12.04,28 2.87,10.03 4.32,20.5 4.32,31.48z"/>
   <path class="fil0" d="M2383.5 2005.57c0,-1.85 0.56,-3.49 1.71,-4.81 1.15,-1.37 2.87,-2.06 5.15,-2.06l51.23 0c1.46,0 2.98,0.37 4.53,1.09 1.59,0.72 2.93,1.99 4.07,3.77 13.27,21.4 26.42,42.47 39.48,63.24 13.02,20.8 26.22,41.86 39.6,63.29l0 -125.47c0.41,-1.85 1.25,-3.33 2.5,-4.34 1.27,-1.08 2.71,-1.59 4.39,-1.59l44.62 0c2.2,0 4.02,0.6 5.46,1.78 1.48,1.2 2.2,2.91 2.2,5.09l0 219.53c0,2.11 -0.62,3.67 -1.87,4.64 -1.25,0.99 -2.98,1.48 -5.18,1.48l-49.93 0c-1.36,0 -2.57,-0.49 -3.61,-1.41 -1.02,-0.9 -2.13,-2.22 -3.3,-3.75 -13.87,-22.95 -27.6,-45.65 -41.17,-68.12 -13.57,-22.44 -27.37,-45.15 -41.33,-68.1l0 134.47c0,2.31 -0.53,4.04 -1.59,5.18 -1.04,1.13 -2.91,1.73 -5.66,1.73l-44.47 0c-2.4,0 -4.11,-0.63 -5.22,-1.96 -1.09,-1.3 -1.64,-2.91 -1.64,-4.78l0 -218.91z"/>
   <path class="fil0" d="M2734.54 2071.82c-1.99,5.32 -3.97,11.07 -6.03,17.22 -2.03,6.17 -4.05,12.35 -6.03,18.63 -1.97,6.27 -3.97,12.44 -6.03,18.58 -2.03,6.08 -4.04,11.81 -6.01,17.11l48.06 0 -23.97 -71.54zm-28.48 -67.02c0.09,-0.6 0.44,-1.3 1,-2.03 0.56,-0.72 1.29,-1.43 2.11,-2.03 0.83,-0.63 1.73,-1.16 2.66,-1.52 0.95,-0.35 1.83,-0.53 2.68,-0.53l40.08 0c1.78,0 3.28,0.53 4.55,1.64 1.23,1.09 2.19,2.08 2.82,2.91l3.89 8.94 82.22 211.98c0.81,2.11 0.67,3.79 -0.49,5.09 -1.11,1.32 -3.12,1.96 -5.94,1.96l-44.92 0c-2.4,0 -4.27,-0.44 -5.55,-1.32 -1.3,-0.92 -2.33,-2.38 -3.05,-4.46 -2.1,-5.32 -4.14,-10.63 -6.12,-15.9 -1.97,-5.3 -3.97,-10.57 -5.96,-15.91l-83.13 0c-1.99,5.34 -4.02,10.61 -6.03,15.91 -2.04,5.27 -4.05,10.57 -6.06,15.9 -1.32,3.86 -4.02,5.78 -7.97,5.78l-46.18 0c-1.99,0 -3.65,-0.55 -4.95,-1.55 -1.3,-1.08 -1.52,-2.61 -0.7,-4.71l85.04 -220.16z"/>
   <path class="fil0" d="M3035.96 2015.62c1.78,1.02 3.07,2.38 3.91,4.05 0.83,1.67 0.67,3.67 -0.46,5.96l-26.47 37.57c-1.16,1.8 -2.38,2.8 -3.68,3.07 -1.29,0.25 -2.87,-0.19 -4.78,-1.34 -5.11,-3.86 -10.75,-6.84 -16.9,-8.92 -6.17,-2.08 -12.69,-3.15 -19.58,-3.15 -8.57,0 -16.44,1.62 -23.63,4.88 -7.23,3.23 -13.43,7.67 -18.65,13.29 -5.22,5.64 -9.29,12.23 -12.2,19.74 -2.93,7.51 -4.39,15.58 -4.39,24.09 0,8.58 1.46,16.62 4.39,24.04 2.91,7.47 6.98,14.01 12.2,19.6 5.22,5.59 11.42,9.99 18.65,13.24 7.19,3.23 15.07,4.83 23.63,4.83 6.89,0 13.45,-1.08 19.74,-3.19 6.26,-2.17 11.95,-5.15 17.06,-9.01 1.87,-1.16 3.44,-1.64 4.71,-1.41 1.23,0.19 2.48,1.15 3.74,2.82l26.77 38.51c1.16,2.31 1.3,4.21 0.48,5.78 -0.83,1.59 -2.13,2.89 -3.89,3.93 -9.83,6.57 -20.41,11.67 -31.72,15.28 -11.33,3.58 -23.26,5.38 -35.76,5.38 -11.09,0 -21.7,-1.41 -31.88,-4.21 -10.15,-2.84 -19.7,-6.82 -28.57,-12.07 -8.86,-5.22 -16.92,-11.46 -24.2,-18.72 -7.26,-7.24 -13.5,-15.26 -18.68,-24.09 -5.23,-8.81 -9.27,-18.31 -12.09,-28.5 -2.8,-10.19 -4.23,-20.8 -4.23,-31.86 0,-11.07 1.43,-21.68 4.23,-31.86 2.82,-10.2 6.86,-19.7 12.09,-28.66 5.18,-8.92 11.42,-17.02 18.68,-24.36 7.28,-7.31 15.33,-13.52 24.2,-18.72 8.86,-5.16 18.42,-9.18 28.57,-12.05 10.19,-2.87 20.8,-4.28 31.88,-4.28 12.5,0 24.32,1.71 35.46,5.22 11.1,3.51 21.57,8.55 31.39,15.14z"/>
   <path class="fil0" d="M3079.81 2005.57c0,-1.85 0.56,-3.49 1.71,-4.81 1.15,-1.37 2.87,-2.06 5.16,-2.06l46.05 0c1.55,0 3.23,0.63 4.99,1.89 1.78,1.25 2.66,2.91 2.66,4.99l0 218.73c0,4.6 -2.54,6.91 -7.65,6.91l-46.05 0c-4.58,0 -6.87,-2.31 -6.87,-6.91l0 -218.73z"/>
   <path class="fil0" d="M3240.62 2115.02c0,8.67 1.45,16.78 4.37,24.29 2.91,7.51 7.01,14.08 12.27,19.67 5.27,5.59 11.49,9.92 18.7,13.13 7.19,3.17 15.12,4.79 23.77,4.79 8.64,0 16.58,-1.62 23.83,-4.79 7.24,-3.21 13.52,-7.54 18.77,-13.13 5.27,-5.59 9.38,-12.16 12.27,-19.67 2.91,-7.51 4.39,-15.61 4.39,-24.29 0,-8.55 -1.48,-16.58 -4.39,-24.18 -2.89,-7.56 -7,-14.17 -12.27,-19.81 -5.25,-5.62 -11.53,-10.06 -18.77,-13.29 -7.24,-3.26 -15.19,-4.88 -23.83,-4.88 -8.65,0 -16.58,1.62 -23.77,4.88 -7.21,3.23 -13.43,7.67 -18.7,13.29 -5.25,5.64 -9.36,12.25 -12.27,19.81 -2.93,7.6 -4.37,15.63 -4.37,24.18zm-60.61 0.18c0,-11.07 1.43,-21.68 4.25,-31.86 2.78,-10.2 6.82,-19.72 12.05,-28.66 5.22,-8.92 11.46,-17.02 18.72,-24.36 7.28,-7.31 15.35,-13.52 24.23,-18.72 8.85,-5.18 18.4,-9.18 28.57,-12.05 10.19,-2.87 20.81,-4.3 31.9,-4.3 10.94,0 21.55,1.43 31.79,4.3 10.24,2.87 19.79,6.87 28.66,12.05 8.9,5.2 16.99,11.4 24.3,18.72 7.31,7.33 13.54,15.44 18.72,24.36 5.16,8.94 9.2,18.45 12.07,28.66 2.86,10.19 4.32,20.8 4.32,31.86 0,11.05 -1.46,21.7 -4.32,31.86 -2.87,10.19 -6.91,19.69 -12.07,28.5 -5.18,8.81 -11.4,16.85 -18.72,24.11 -7.31,7.24 -15.4,13.48 -24.3,18.7 -8.86,5.23 -18.42,9.24 -28.66,12.05 -10.24,2.82 -20.85,4.23 -31.79,4.23 -11.09,0 -21.71,-1.41 -31.9,-4.23 -10.17,-2.82 -19.72,-6.82 -28.57,-12.05 -8.88,-5.22 -16.95,-11.46 -24.23,-18.7 -7.26,-7.26 -13.5,-15.3 -18.72,-24.11 -5.23,-8.81 -9.27,-18.31 -12.05,-28.5 -2.82,-10.17 -4.25,-20.81 -4.25,-31.86z"/>
   <path class="fil0" d="M3458.41 2005.57c0,-1.85 0.56,-3.49 1.71,-4.81 1.15,-1.37 2.87,-2.06 5.16,-2.06l51.22 0c1.45,0 2.96,0.37 4.53,1.09 1.59,0.72 2.94,1.99 4.07,3.77 13.27,21.4 26.42,42.47 39.46,63.24 13.04,20.8 26.24,41.86 39.6,63.29l0 -125.47c0.42,-1.85 1.27,-3.33 2.54,-4.34 1.23,-1.08 2.7,-1.59 4.37,-1.59l44.62 0c2.2,0 4.02,0.6 5.48,1.78 1.46,1.2 2.19,2.91 2.19,5.09l0 219.53c0,2.11 -0.62,3.67 -1.87,4.64 -1.25,0.99 -2.98,1.48 -5.18,1.48l-49.95 0c-1.36,0 -2.56,-0.49 -3.61,-1.41 -1.02,-0.9 -2.13,-2.22 -3.3,-3.75 -13.85,-22.95 -27.56,-45.65 -41.17,-68.12 -13.55,-22.44 -27.33,-45.15 -41.33,-68.1l0 134.47c0,2.31 -0.51,4.04 -1.57,5.18 -1.02,1.13 -2.93,1.73 -5.64,1.73l-44.47 0c-2.41,0 -4.14,-0.63 -5.25,-1.96 -1.11,-1.3 -1.62,-2.91 -1.62,-4.78l0 -218.91z"/>
   <path class="fil0" d="M3809.45 2071.82c-2.01,5.32 -3.98,11.07 -6.05,17.22 -2.01,6.17 -4.05,12.35 -6.03,18.63 -1.97,6.27 -3.97,12.44 -6.03,18.58 -2.01,6.08 -4.04,11.81 -6.01,17.11l48.06 0 -23.95 -71.54zm-28.5 -67.02c0.09,-0.6 0.44,-1.3 1,-2.03 0.56,-0.72 1.29,-1.43 2.13,-2.03 0.83,-0.63 1.71,-1.16 2.64,-1.52 0.95,-0.35 1.85,-0.53 2.68,-0.53l40.08 0c1.78,0 3.28,0.53 4.55,1.64 1.23,1.09 2.19,2.08 2.82,2.91l3.91 8.94 82.2 211.98c0.81,2.11 0.69,3.79 -0.48,5.09 -1.13,1.32 -3.12,1.96 -5.96,1.96l-44.91 0c-2.41,0 -4.3,-0.44 -5.59,-1.32 -1.29,-0.92 -2.31,-2.38 -3.03,-4.46 -2.1,-5.32 -4.12,-10.63 -6.13,-15.9 -1.96,-5.3 -3.95,-10.57 -5.92,-15.91l-83.15 0c-1.99,5.34 -4.02,10.61 -6.03,15.91 -2.04,5.27 -4.05,10.57 -6.05,15.9 -1.34,3.86 -4.04,5.78 -7.98,5.78l-46.16 0c-2.01,0 -3.67,-0.55 -4.95,-1.55 -1.32,-1.08 -1.53,-2.61 -0.72,-4.71l85.04 -220.16z"/>
   <path class="fil0" d="M3948.65 2005.45c0,-1.89 0.62,-3.52 1.89,-4.86 1.25,-1.36 2.96,-2.03 5.15,-2.03l46.35 0c1.78,0 3.4,0.6 4.85,1.85 1.48,1.25 2.26,2.96 2.34,5.04l0 170.34 86.13 0c1.89,0 3.49,0.63 4.85,1.9 1.39,1.23 2.06,2.96 2.06,5.15l0 41.19c0,1.76 -0.62,3.37 -1.8,4.85 -1.22,1.46 -2.91,2.24 -5.11,2.34l-139.83 0c-4.58,0 -6.87,-2.33 -6.87,-6.89l0 -218.87z"/>
   <path class="fil0" d="M4294.98 2054.76l0 120.41 13.17 0c2.41,0 4.74,-0.09 7.05,-0.26 2.31,-0.14 4.58,-0.32 6.87,-0.51 7.84,-0.63 15.16,-2.54 21.91,-5.73 6.82,-3.17 12.72,-7.37 17.78,-12.53 5.08,-5.15 9.04,-11.24 11.93,-18.26 2.86,-6.96 4.27,-14.61 4.27,-22.86 0,-8.74 -1.64,-16.81 -4.92,-24.18 -3.28,-7.37 -7.75,-13.73 -13.39,-19.09 -5.6,-5.39 -12.23,-9.57 -19.79,-12.55 -7.56,-2.96 -15.63,-4.44 -24.2,-4.44l-20.67 0zm143.3 60.43c0,11.07 -1.43,21.57 -4.23,31.55 -2.84,9.96 -6.87,19.25 -12.07,27.86 -5.23,8.62 -11.46,16.44 -18.72,23.42 -7.28,6.98 -15.3,12.95 -24.09,17.85 -8.85,4.93 -18.36,8.69 -28.6,11.35 -10.24,2.64 -20.81,3.98 -31.76,3.98l-77.21 0c-1.89,0 -3.56,-0.42 -5.02,-1.25 -1.45,-0.83 -2.17,-2.61 -2.17,-5.34l0 -218.72c0,-2.19 0.56,-3.98 1.8,-5.34 1.18,-1.36 3,-2.01 5.39,-2.01l77.21 0c10.94,0 21.52,1.34 31.69,4.05 10.17,2.71 19.69,6.57 28.52,11.58 8.79,5.01 16.87,11.02 24.18,18.01 7.28,6.98 13.54,14.84 18.72,23.51 5.18,8.62 9.18,17.99 12.04,28 2.87,10.03 4.34,20.5 4.34,31.48z"/>
   <path class="fil0" d="M4479.13 2005.92c0,-2.2 0.58,-3.97 1.8,-5.27 1.18,-1.3 2.89,-1.97 5.08,-1.97l155.34 0c2.27,0 4.07,0.7 5.32,2.06 1.27,1.34 1.89,3.15 1.89,5.45l0 38.74c0,1.76 -0.62,3.42 -1.89,5.04 -1.25,1.6 -3.08,2.41 -5.48,2.41l-101.44 0 0 38.86 78.29 0c1.97,0 3.63,0.48 4.92,1.41 1.3,0.92 1.96,2.52 1.96,4.71l0 33.8c0,1.48 -0.58,2.86 -1.71,4.23 -1.15,1.36 -2.82,2.01 -5.01,2.01l-78.44 0 0 40.09 105.2 0c4.72,0 7.07,2.4 7.07,7.21l0 39.34c0,1.04 -0.41,1.99 -1.25,2.82 -0.42,2.91 -2.57,4.35 -6.43,4.35l-158.32 0c-2.08,0 -3.75,-0.55 -4.99,-1.62 -1.27,-1.11 -1.89,-2.82 -1.89,-5.09l0 -218.57z"/>
   <path class="fil0" d="M4883.71 2071.82c-1.99,5.32 -3.97,11.07 -6.03,17.22 -2.01,6.17 -4.05,12.35 -6.03,18.63 -1.97,6.27 -3.97,12.44 -6.05,18.58 -2.03,6.08 -4.02,11.81 -5.99,17.11l48.06 0 -23.97 -71.54zm-28.48 -67.02c0.09,-0.6 0.44,-1.3 1,-2.03 0.56,-0.72 1.29,-1.43 2.11,-2.03 0.83,-0.63 1.73,-1.16 2.66,-1.52 0.95,-0.35 1.85,-0.53 2.68,-0.53l40.09 0c1.76,0 3.26,0.53 4.53,1.64 1.23,1.09 2.19,2.08 2.82,2.91l3.89 8.94 82.22 211.98c0.81,2.11 0.69,3.79 -0.49,5.09 -1.11,1.32 -3.12,1.96 -5.94,1.96l-44.92 0c-2.4,0 -4.28,-0.44 -5.55,-1.32 -1.3,-0.92 -2.33,-2.38 -3.05,-4.46 -2.1,-5.32 -4.14,-10.63 -6.13,-15.9 -1.99,-5.3 -3.98,-10.57 -5.94,-15.91l-83.13 0c-1.99,5.34 -4.02,10.61 -6.03,15.91 -2.04,5.27 -4.05,10.57 -6.06,15.9 -1.32,3.86 -4,5.78 -7.97,5.78l-46.18 0c-1.99,0 -3.65,-0.55 -4.95,-1.55 -1.3,-1.08 -1.52,-2.61 -0.7,-4.71l85.04 -220.16z"/>
   <path class="fil0" d="M5154.47 2064.29c-5.34,-3.75 -11.02,-6.68 -17.1,-8.76 -6.05,-2.1 -12.51,-3.14 -19.4,-3.14 -8.65,0 -16.6,1.66 -23.79,4.95 -7.19,3.3 -13.41,7.72 -18.56,13.36 -5.16,5.64 -9.22,12.23 -12.13,19.83 -2.94,7.54 -4.41,15.61 -4.41,24.2 0,8.55 1.46,16.6 4.41,24.11 2.91,7.47 6.96,14.05 12.13,19.63 5.15,5.6 11.37,10.01 18.56,13.24 7.19,3.23 15.14,4.85 23.79,4.85 3.67,0 7.28,-0.26 10.89,-0.78 3.6,-0.49 7.44,-1.22 11.49,-2.01l0 -41.06c0,-1.97 0.58,-3.61 1.71,-4.93 1.18,-1.29 2.91,-1.94 5.18,-1.94l42.58 0c1.59,0 3.24,0.62 5.04,1.89 1.78,1.23 2.64,2.91 2.64,4.99l0 75.8c0,2.84 -1.48,5.09 -4.55,6.89 -4.9,3.33 -10.35,6.22 -16.27,8.6 -5.96,2.4 -12.16,4.41 -18.61,5.96 -6.5,1.55 -13.04,2.77 -19.67,3.54 -6.64,0.78 -13.08,1.15 -19.33,1.15 -11.09,0 -21.7,-1.41 -31.88,-4.23 -10.17,-2.82 -19.69,-6.82 -28.57,-12.05 -8.86,-5.22 -16.94,-11.46 -24.2,-18.72 -7.24,-7.24 -13.48,-15.28 -18.72,-24.11 -5.22,-8.79 -9.24,-18.29 -12.04,-28.46 -2.84,-10.19 -4.23,-20.83 -4.23,-31.88 0,-11.05 1.39,-21.68 4.23,-31.86 2.8,-10.2 6.82,-19.72 12.04,-28.66 5.23,-8.92 11.47,-17.04 18.72,-24.36 7.26,-7.31 15.33,-13.52 24.2,-18.72 8.88,-5.16 18.4,-9.16 28.57,-12.07 10.19,-2.84 20.8,-4.28 31.88,-4.28 12.5,0 24.34,1.73 35.46,5.23 11.1,3.52 21.57,8.53 31.39,15.12 1.78,1.04 3.14,2.43 4.07,4.16 0.93,1.73 0.74,3.67 -0.62,5.85l-25.38 36.66c-1.36,1.66 -2.7,2.8 -4.07,3.35 -1.36,0.62 -3.17,0.14 -5.46,-1.32z"/>
   <path class="fil0" d="M5365.84 2075.43c0,-3.14 -0.58,-6.27 -1.73,-9.41 -1.15,-3.12 -2.75,-6.01 -4.85,-8.64 -2.1,-2.56 -4.6,-4.78 -7.54,-6.56 -2.91,-1.76 -6.15,-2.91 -9.69,-3.44 -2.93,-0.18 -5.67,-0.41 -8.21,-0.56 -2.56,-0.12 -5.38,-0.19 -8.37,-0.19l-21.62 0 0 57.45 28.82 0c1.89,0 3.56,-0.07 5.01,-0.18 1.46,-0.12 3.08,-0.25 4.85,-0.48 3.65,-0.42 6.94,-1.48 9.87,-3.21 2.94,-1.73 5.39,-3.86 7.38,-6.42 1.97,-2.57 3.49,-5.41 4.53,-8.62 1.06,-3.15 1.57,-6.43 1.57,-9.76zm-122.61 -69.51c0,-2.2 0.56,-3.97 1.73,-5.25 1.13,-1.32 2.86,-1.99 5.18,-1.99l101.13 0c10.79,0 20.81,2.03 30.23,6.03 9.38,4.04 17.59,9.5 24.59,16.37 7.01,6.91 12.51,14.96 16.53,24.18 4.02,9.25 6.01,19.09 6.01,29.54 0,7.1 -0.95,13.85 -2.89,20.27 -1.94,6.43 -4.62,12.44 -8.07,18.03 -3.45,5.59 -7.54,10.64 -12.3,15.17 -4.74,4.51 -9.94,8.41 -15.58,11.67l40.25 75.75c0.72,1.5 1.67,3.21 2.82,5.18 1.16,2.03 1.73,3.74 1.73,5.18 0,1.67 -0.55,2.96 -1.66,3.84 -1.08,0.9 -2.57,1.3 -4.46,1.3l-53.7 0c-1.78,0 -3.37,-0.51 -4.78,-1.53 -1.41,-1.06 -2.33,-2.45 -2.73,-4.23l-38.07 -71.55 -25.36 0 0 70.62c0,4.46 -2.4,6.7 -7.19,6.7l-46.49 0c-2.1,0 -3.79,-0.53 -5.04,-1.62 -1.23,-1.09 -1.87,-2.8 -1.87,-5.08l0 -218.57z"/>
   <path class="fil0" d="M5463.84 2005.57c0,-1.85 0.56,-3.49 1.71,-4.81 1.15,-1.37 2.87,-2.06 5.15,-2.06l46.07 0c1.57,0 3.24,0.63 5.01,1.89 1.78,1.25 2.66,2.91 2.66,4.99l0 218.73c0,4.6 -2.54,6.91 -7.67,6.91l-46.07 0c-4.56,0 -6.86,-2.31 -6.86,-6.91l0 -218.73z"/>
   <path class="fil0" d="M5752.26 2015.62c1.76,1.02 3.07,2.38 3.89,4.05 0.83,1.67 0.69,3.67 -0.46,5.96l-26.45 37.57c-1.15,1.8 -2.38,2.8 -3.68,3.07 -1.3,0.25 -2.89,-0.19 -4.78,-1.34 -5.11,-3.86 -10.77,-6.84 -16.92,-8.92 -6.17,-2.08 -12.65,-3.15 -19.56,-3.15 -8.57,0 -16.46,1.62 -23.65,4.88 -7.21,3.23 -13.41,7.67 -18.63,13.29 -5.2,5.64 -9.29,12.23 -12.21,19.74 -2.93,7.51 -4.37,15.58 -4.37,24.09 0,8.58 1.45,16.62 4.37,24.04 2.93,7.47 7.01,14.01 12.21,19.6 5.22,5.59 11.42,9.99 18.63,13.24 7.19,3.23 15.09,4.83 23.65,4.83 6.91,0 13.46,-1.08 19.72,-3.19 6.27,-2.17 11.95,-5.15 17.06,-9.01 1.89,-1.16 3.44,-1.64 4.72,-1.41 1.23,0.19 2.5,1.15 3.74,2.82l26.77 38.51c1.16,2.31 1.3,4.21 0.48,5.78 -0.85,1.59 -2.15,2.89 -3.91,3.93 -9.82,6.57 -20.39,11.67 -31.71,15.28 -11.33,3.58 -23.25,5.38 -35.76,5.38 -11.09,0 -21.68,-1.41 -31.88,-4.21 -10.15,-2.84 -19.7,-6.82 -28.57,-12.07 -8.86,-5.22 -16.92,-11.46 -24.2,-18.72 -7.26,-7.24 -13.5,-15.26 -18.7,-24.09 -5.23,-8.81 -9.25,-18.31 -12.07,-28.5 -2.8,-10.19 -4.21,-20.8 -4.21,-31.86 0,-11.07 1.41,-21.68 4.21,-31.86 2.82,-10.2 6.84,-19.7 12.07,-28.66 5.2,-8.92 11.44,-17.02 18.7,-24.36 7.28,-7.31 15.33,-13.52 24.2,-18.72 8.86,-5.16 18.42,-9.18 28.57,-12.05 10.2,-2.87 20.8,-4.28 31.88,-4.28 12.51,0 24.34,1.71 35.46,5.22 11.1,3.51 21.57,8.55 31.39,15.14z"/>
   <path class="fil0" d="M5855.29 2138.49c0,7.74 1.06,14.24 3.23,19.67 2.11,5.38 4.95,9.76 8.46,13.15 3.49,3.42 7.6,5.89 12.25,7.44 4.65,1.59 9.5,2.36 14.5,2.36 5.23,0 10.17,-0.93 14.82,-2.73 4.65,-1.83 8.74,-4.55 12.25,-8.16 3.51,-3.61 6.26,-8.05 8.32,-13.39 2.03,-5.34 3.05,-11.44 3.05,-18.33l0 -132.92c0,-1.85 0.65,-3.49 1.96,-4.85 1.32,-1.34 3.07,-2.04 5.25,-2.04l45.72 0c2.4,0 4.27,0.72 5.64,2.13 1.36,1.39 2.03,3 2.03,4.76l0 132c0,18.28 -2.7,33.63 -8.05,46.03 -5.39,12.44 -12.64,22.4 -21.68,29.96 -9.09,7.61 -19.62,13.02 -31.56,16.32 -11.95,3.28 -24.52,4.95 -37.66,4.95 -13.15,0 -25.73,-1.73 -37.72,-5.13 -12.02,-3.38 -22.56,-8.92 -31.65,-16.55 -9.08,-7.68 -16.3,-17.73 -21.68,-30.08 -5.38,-12.39 -8.07,-27.55 -8.07,-45.51l0 -132c0,-1.76 0.6,-3.37 1.8,-4.76 1.18,-1.41 2.68,-2.13 4.48,-2.13l46.83 0c1.55,0 3.19,0.67 4.92,1.99 1.71,1.29 2.59,2.94 2.59,4.9l0 132.92z"/>
   <path class="fil0" d="M6032.68 2005.45c0,-1.89 0.62,-3.52 1.89,-4.86 1.27,-1.36 2.96,-2.03 5.16,-2.03l46.35 0c1.78,0 3.38,0.6 4.85,1.85 1.46,1.25 2.26,2.96 2.34,5.04l0 170.34 86.13 0c1.87,0 3.51,0.63 4.85,1.9 1.37,1.23 2.04,2.96 2.04,5.15l0 41.19c0,1.76 -0.6,3.37 -1.8,4.85 -1.2,1.46 -2.89,2.24 -5.09,2.34l-139.83 0c-4.6,0 -6.89,-2.33 -6.89,-6.89l0 -218.87z"/>
   <path class="fil0" d="M6189.43 2005.57c0,-2.08 0.69,-3.74 2.1,-4.99 1.43,-1.25 3.15,-1.89 5.27,-1.89l168.47 0c1.89,0 3.54,0.56 5.01,1.69 1.45,1.16 2.27,2.89 2.48,5.18l0 38.86c0,1.9 -0.63,3.67 -1.92,5.41 -1.34,1.69 -3.19,2.54 -5.57,2.54l-54.02 0 0 171.46c0,1.9 -0.67,3.6 -2.03,5.11 -1.39,1.52 -3.12,2.26 -5.32,2.26l-45.93 0c-1.76,0 -3.42,-0.69 -5.01,-2.11 -1.57,-1.41 -2.34,-3.17 -2.34,-5.25l0 -171.46 -53.82 0c-2.11,0 -3.84,-0.65 -5.27,-2.01 -1.41,-1.36 -2.1,-3.33 -2.1,-5.94l0 -38.86z"/>
   <path class="fil0" d="M6470.46 2138.49c0,7.74 1.09,14.24 3.24,19.67 2.13,5.38 4.95,9.76 8.48,13.15 3.49,3.42 7.56,5.89 12.21,7.44 4.67,1.59 9.52,2.36 14.54,2.36 5.22,0 10.15,-0.93 14.8,-2.73 4.65,-1.83 8.74,-4.55 12.25,-8.16 3.52,-3.61 6.27,-8.05 8.32,-13.39 2.04,-5.34 3.05,-11.44 3.05,-18.33l0 -132.92c0,-1.85 0.67,-3.49 1.96,-4.85 1.32,-1.34 3.05,-2.04 5.23,-2.04l45.72 0c2.41,0 4.3,0.72 5.64,2.13 1.37,1.39 2.06,3 2.06,4.76l0 132c0,18.28 -2.7,33.63 -8.07,46.03 -5.39,12.44 -12.62,22.4 -21.68,29.96 -9.08,7.61 -19.6,13.02 -31.55,16.32 -11.97,3.28 -24.52,4.95 -37.7,4.95 -13.11,0 -25.7,-1.73 -37.7,-5.13 -12,-3.38 -22.54,-8.92 -31.64,-16.55 -9.09,-7.68 -16.32,-17.73 -21.7,-30.08 -5.36,-12.39 -8.05,-27.55 -8.05,-45.51l0 -132c0,-1.76 0.6,-3.37 1.8,-4.76 1.18,-1.41 2.66,-2.13 4.44,-2.13l46.86 0c1.55,0 3.19,0.67 4.92,1.99 1.71,1.29 2.56,2.94 2.56,4.9l0 132.92z"/>
   <path class="fil0" d="M6776.29 2075.43c0,-3.14 -0.58,-6.27 -1.73,-9.41 -1.15,-3.12 -2.75,-6.01 -4.86,-8.64 -2.08,-2.56 -4.6,-4.78 -7.53,-6.56 -2.91,-1.76 -6.15,-2.91 -9.71,-3.44 -2.91,-0.18 -5.66,-0.41 -8.21,-0.56 -2.57,-0.12 -5.36,-0.19 -8.35,-0.19l-21.62 0 0 57.45 28.82 0c1.89,0 3.54,-0.07 5.01,-0.18 1.46,-0.12 3.08,-0.25 4.85,-0.48 3.65,-0.42 6.94,-1.48 9.87,-3.21 2.93,-1.73 5.38,-3.86 7.37,-6.42 1.97,-2.57 3.51,-5.41 4.55,-8.62 1.06,-3.15 1.57,-6.43 1.57,-9.76zm-122.61 -69.51c0,-2.2 0.56,-3.97 1.73,-5.25 1.13,-1.32 2.86,-1.99 5.16,-1.99l101.13 0c10.77,0 20.83,2.03 30.24,6.03 9.38,4.04 17.59,9.5 24.59,16.37 7.01,6.91 12.5,14.96 16.51,24.18 4.04,9.25 6.03,19.09 6.03,29.54 0,7.1 -0.95,13.85 -2.89,20.27 -1.94,6.43 -4.62,12.44 -8.07,18.03 -3.45,5.59 -7.54,10.64 -12.3,15.17 -4.74,4.51 -9.94,8.41 -15.58,11.67l40.25 75.75c0.72,1.5 1.67,3.21 2.82,5.18 1.13,2.03 1.73,3.74 1.73,5.18 0,1.67 -0.55,2.96 -1.66,3.84 -1.09,0.9 -2.57,1.3 -4.46,1.3l-53.7 0c-1.78,0 -3.38,-0.51 -4.79,-1.53 -1.39,-1.06 -2.31,-2.45 -2.73,-4.23l-38.05 -71.55 -25.36 0 0 70.62c0,4.46 -2.4,6.7 -7.19,6.7l-46.51 0c-2.1,0 -3.77,-0.53 -5.02,-1.62 -1.23,-1.09 -1.87,-2.8 -1.87,-5.08l0 -218.57z"/>
   <path class="fil0" d="M6968.71 2071.82c-2.01,5.32 -3.98,11.07 -6.05,17.22 -2.01,6.17 -4.05,12.35 -6.03,18.63 -1.97,6.27 -3.97,12.44 -6.03,18.58 -2.04,6.08 -4.04,11.81 -6.01,17.11l48.04 0 -23.93 -71.54zm-28.5 -67.02c0.09,-0.6 0.44,-1.3 1,-2.03 0.56,-0.72 1.29,-1.43 2.11,-2.03 0.85,-0.63 1.73,-1.16 2.66,-1.52 0.95,-0.35 1.85,-0.53 2.68,-0.53l40.08 0c1.78,0 3.28,0.53 4.55,1.64 1.23,1.09 2.19,2.08 2.8,2.91l3.93 8.94 82.2 211.98c0.81,2.11 0.69,3.79 -0.48,5.09 -1.13,1.32 -3.12,1.96 -5.96,1.96l-44.92 0c-2.4,0 -4.28,-0.44 -5.57,-1.32 -1.29,-0.92 -2.31,-2.38 -3.03,-4.46 -2.1,-5.32 -4.12,-10.63 -6.13,-15.9 -1.97,-5.3 -3.97,-10.57 -5.92,-15.91l-83.15 0c-1.99,5.34 -4.02,10.61 -6.03,15.91 -2.04,5.27 -4.05,10.57 -6.05,15.9 -1.34,3.86 -4.04,5.78 -7.98,5.78l-46.18 0c-1.99,0 -3.65,-0.55 -4.93,-1.55 -1.32,-1.08 -1.53,-2.61 -0.72,-4.71l85.04 -220.16z"/>
   <path class="fil0" d="M470.12 1091.16c0,59.97 8.3,110.86 24.92,152.61 16.64,41.73 38.56,75.78 65.74,102.11 27.18,26.35 58.85,45.61 94.96,57.74 36.13,12.18 73.65,18.24 112.62,18.24 40.57,0 78.9,-7.07 115.01,-21.27 36.09,-14.17 67.76,-35.25 94.94,-63.22 27.19,-27.99 48.66,-62.6 64.52,-103.95 15.83,-41.35 23.74,-88.76 23.74,-142.26l0 -1031.05c0,-14.59 5.06,-27.16 15.21,-37.68 10.1,-10.56 23.67,-15.83 40.68,-15.83l354.72 0c18.63,0 33.19,5.46 43.74,16.41 10.5,10.94 15.79,23.3 15.79,37.05l0 1024.08c0,141.75 -20.88,260.77 -62.57,357.17 -41.72,96.37 -97.8,173.91 -168.26,232.64 -70.44,58.71 -152.04,100.83 -244.78,126.31 -92.76,25.54 -190.13,38.28 -292.15,38.28 -102.06,0 -199.66,-13.18 -292.77,-39.48 -93.14,-26.31 -174.95,-69.25 -245.38,-128.78 -70.48,-59.52 -126.56,-137.27 -168.24,-233.24 -41.73,-95.96 -62.57,-213.59 -62.57,-352.91l0 -1024.08c0,-13.75 4.64,-26.1 13.92,-37.05 9.29,-10.94 20.78,-16.41 34.54,-16.41l363.48 0c12.13,0 24.83,5.08 38.17,15.21 13.31,10.15 20,22.91 20,38.3l0 1031.05z"/>
   <path class="fil1" d="M1826.26 60.89c0,-14.79 4.51,-27.55 13.57,-38.24 9.06,-10.68 22.63,-16.04 40.73,-16.04l403.36 0c11.53,0 23.46,2.89 35.79,8.64 12.35,5.76 23.02,15.61 32.08,29.63 104.42,168.57 208.09,334.72 310.87,498.37 102.8,163.66 206.84,329.8 312.12,498.37l0 -988.13c3.26,-14.8 9.85,-26.3 19.72,-34.54 9.87,-8.23 21.4,-12.34 34.56,-12.34l351.57 0c17.27,0 31.65,4.74 43.16,14.19 11.53,9.46 17.29,22.82 17.29,40.09l0 1729.54c0,16.46 -4.93,28.6 -14.8,36.41 -9.89,7.83 -23.44,11.7 -40.69,11.7l-393.53 0c-10.72,0 -20.2,-3.7 -28.39,-11.09 -8.21,-7.4 -16.87,-17.25 -25.89,-29.63 -109.39,-180.89 -217.53,-359.78 -324.44,-536.64 -106.93,-176.79 -215.49,-355.67 -325.69,-536.6l0 1059.68c0,18.08 -4.11,31.67 -12.32,40.71 -8.23,9.06 -23.03,13.55 -44.41,13.55l-350.35 0c-18.95,0 -32.71,-5.11 -41.35,-15.4 -8.62,-10.29 -12.95,-22.84 -12.95,-37.63l0 -1724.62z"/>
   <path class="fil0" d="M6752.08 530.29c-40.87,-28.87 -84.58,-51.29 -131.07,-67.34 -46.49,-16.02 -96.19,-24.04 -149.12,-24.04 -66.53,0 -127.44,12.64 -182.76,37.87 -55.3,25.26 -102.8,59.52 -142.49,102.82 -39.69,43.28 -70.74,93.99 -93.18,152.1 -22.45,58.14 -33.68,120.06 -33.68,185.78 0,65.76 11.23,127.46 33.68,185.18 22.44,57.72 53.49,108.04 93.18,150.9 39.69,42.9 87.19,76.79 142.49,101.62 55.32,24.89 116.23,37.29 182.76,37.29 28.06,0 55.94,-1.99 83.59,-6.03 27.63,-4.02 57.1,-9.2 88.38,-15.61l0 -315.05c0,-15.21 4.41,-27.86 13.22,-37.89 8.79,-10.01 22.03,-15.03 39.67,-15.03l327.07 0c12.04,0 24.85,4.81 38.47,14.45 13.62,9.61 20.44,22.44 20.44,38.47l0 581.98c0,21.64 -11.61,39.27 -34.86,52.91 -37.7,25.66 -79.38,47.69 -125.06,66.13 -45.68,18.45 -93.39,33.68 -143.07,45.68 -49.72,12.04 -100.03,21.06 -150.92,27.07 -50.92,6.01 -100.4,9.01 -148.5,9.01 -85,0 -166.55,-10.8 -244.71,-32.46 -78.16,-21.66 -151.32,-52.48 -219.42,-92.6 -68.17,-40.06 -130.08,-87.96 -185.79,-143.67 -55.73,-55.71 -103.61,-117.45 -143.71,-185.19 -40.09,-67.71 -70.94,-140.69 -92.56,-218.82 -21.66,-78.18 -32.48,-159.73 -32.48,-244.71 0,-84.97 10.82,-166.53 32.48,-244.71 21.62,-78.15 52.47,-151.5 92.56,-220.04 40.09,-68.54 87.98,-130.86 143.71,-186.97 55.71,-56.12 117.62,-104.02 185.79,-143.69 68.1,-39.69 141.26,-70.55 219.42,-92.61 78.16,-22.03 159.71,-33.06 244.71,-33.06 96.19,0 186.97,13.46 272.35,40.29 85.39,26.88 165.72,65.54 241.08,116.04 13.61,8.04 24.04,18.65 31.28,31.86 7.19,13.24 5.59,28.27 -4.81,45.1l-194.82 281.37c-10.42,12.83 -20.85,21.47 -31.27,25.85 -10.43,4.42 -24.44,1.02 -42.07,-10.22z"/>
   <path class="fil2" d="M5127.28 1736.27c245.42,-559.34 -587.87,-667.5 -744.35,-682.72 -10.47,-1.02 -17.75,10.19 -12.6,19.35 203.1,361.72 61.16,469.33 224,644.76 132.85,143.13 352.16,116.62 434.5,100.3 11.7,-2.31 14.24,-17.85 4.02,-23.99 -182.89,-109.67 -256.59,-237.5 -286.15,-317.6 -5.34,-14.47 14.5,-24.53 23.12,-11.74 124.6,184.97 230.29,257.22 290.27,285.4 0.62,0.3 1.73,1.04 2.36,1.25 11.63,4.14 24.23,6.38 36.38,4.16 12.14,-2.22 23.48,-7.88 28.45,-19.18z"/>
   <path class="fil2" d="M5507.46 1783.01l-647.63 -1670.32 -28.87 -65.79c-1.32,-3 -2.89,-5.8 -5.01,-8.3 -4.76,-5.66 -11.17,-12 -19.19,-19.03 -9.87,-8.64 -21.8,-12.95 -35.76,-12.95l-315.81 0c-6.61,0 -13.57,1.45 -20.97,4.32 -7.4,2.89 -14.4,6.79 -20.97,11.72 -6.59,4.93 -12.13,10.29 -16.65,16.04 -4.53,5.76 -7.21,11.1 -8.02,16.04l-669.86 1734.46c-6.57,16.44 -4.74,28.82 5.57,37.01 10.24,8.23 23.23,12.32 38.84,12.32l363.92 0c31.25,0 52.2,-15.19 62.92,-45.65 15.61,-41.93 31.46,-83.66 47.48,-125.2 16.06,-41.5 31.88,-83.26 47.51,-125.18l33.47 -95.96 64.91 -187.63c-17.87,-53.67 -44.11,-114.68 -84.05,-185.79 -11.61,-20.71 -11.4,-46.3 0.6,-66.8 11.98,-20.5 34.17,-33.24 57.86,-33.24 2.15,0 4.35,0.11 6.57,0.32 27.23,2.66 66.28,7.17 112.78,14.45l18.82 -54.39c7.38,-22.77 14.87,-45.21 22.15,-68.24 15.63,-49.35 31.48,-98.27 47.53,-146.81 4.04,-12.23 8.07,-24.27 12.09,-36.09 11.17,-32.89 57.82,-32.6 68.86,0.32l97.29 290.64 24.64 73.58 3.93 11.72c160.71,54.3 321.87,140.94 402.59,278.65 70.11,119.61 70.81,259.67 2.06,416.3 -3.58,8.2 -8.46,15.44 -14.24,21.89 -12.37,15.93 -31.02,26.75 -54.16,31 -2.26,0.42 -4.65,0.37 -6.96,0.62 27.53,15.99 62.67,32.38 118.33,31.49l236.87 0c22.21,0 37.79,-5.11 46.86,-15.4 9.04,-10.27 10.29,-23.63 3.7,-40.09z"/>
   <path class="fil0" d="M60.57 2141.95c0,7.74 1.09,14.26 3.23,19.67 2.13,5.38 4.97,9.76 8.48,13.15 3.49,3.4 7.58,5.89 12.23,7.44 4.65,1.6 9.5,2.36 14.5,2.36 5.23,0 10.19,-0.93 14.84,-2.73 4.65,-1.83 8.74,-4.55 12.23,-8.16 3.51,-3.61 6.29,-8.05 8.32,-13.39 2.04,-5.34 3.07,-11.46 3.07,-18.33l0 -132.92c0,-1.85 0.65,-3.47 1.94,-4.83 1.32,-1.36 3.07,-2.06 5.27,-2.06l45.7 0c2.4,0 4.28,0.72 5.64,2.13 1.37,1.39 2.04,2.98 2.04,4.76l0 132c0,18.28 -2.68,33.63 -8.05,46.03 -5.39,12.44 -12.62,22.4 -21.68,29.96 -9.09,7.61 -19.62,13.02 -31.56,16.32 -11.95,3.28 -24.52,4.95 -37.66,4.95 -13.13,0 -25.75,-1.73 -37.73,-5.13 -12,-3.38 -22.54,-8.94 -31.65,-16.55 -9.08,-7.68 -16.3,-17.71 -21.68,-30.08 -5.38,-12.39 -8.04,-27.55 -8.04,-45.51l0 -132c0,-1.78 0.58,-3.37 1.78,-4.76 1.18,-1.41 2.68,-2.13 4.46,-2.13l46.86 0c1.53,0 3.17,0.65 4.9,1.97 1.73,1.3 2.57,2.96 2.57,4.92l0 132.92z"/>
  </g>
 </g>
</svg>
