<?xml version="1.0" encoding="UTF-8"?>
<!DOCTYPE svg PUBLIC "-//W3C//DTD SVG 1.1//EN" "http://www.w3.org/Graphics/SVG/1.1/DTD/svg11.dtd">
<!-- Creator: CorelDRAW 2021 (64-Bit) -->
<svg xmlns="http://www.w3.org/2000/svg" xml:space="preserve" width="42.3333mm" height="21.1186mm" version="1.1" style="shape-rendering:geometricPrecision; text-rendering:geometricPrecision; image-rendering:optimizeQuality; fill-rule:evenodd; clip-rule:evenodd"
viewBox="0 0 3260.87 1626.73"
 xmlns:xlink="http://www.w3.org/1999/xlink"
 xmlns:xodm="http://www.corel.com/coreldraw/odm/2003">
 <defs>
  <style type="text/css">
   <![CDATA[
    .fil0 {fill:white}
    .fil1 {fill:white;fill-rule:nonzero}
   ]]>
  </style>
 </defs>
 <g id="Capa_x0020_1">
  <metadata id="CorelCorpID_0Corel-Layer"/>
  <path class="fil0" d="M122.14 631.28c37.34,0 67.62,30.29 67.62,67.63 0,37.35 -30.28,67.63 -67.62,67.63 -37.35,0 -67.63,-30.28 -67.63,-67.63 0,-37.34 30.28,-67.63 67.63,-67.63zm748 33.62l28.69 -26.64 47.13 45.5 -49.59 47.07 -656.32 0c-14.03,51.97 -61.51,90.22 -117.91,90.22 -67.45,0 -122.14,-54.68 -122.14,-122.14 0,-67.45 54.68,-122.13 122.14,-122.13 55.65,0 102.59,37.22 117.33,88.11l630.67 0zm-497.58 -204.1c27.39,0 49.59,22.2 49.59,49.6 0,27.39 -22.2,49.59 -49.59,49.59 -27.39,0 -49.6,-22.2 -49.6,-49.59 0,-27.4 22.21,-49.6 49.6,-49.6zm490.19 21.75l204.93 203.26 -46.72 46.73 -186.89 -191.85 -378.29 0c-12.37,33.98 -44.95,58.24 -83.21,58.24 -48.91,0 -88.54,-39.63 -88.54,-88.53 0,-48.91 39.63,-88.54 88.54,-88.54 39.17,0 72.39,25.43 84.06,60.69l406.12 0zm-260.88 -169.71c21.39,0 38.73,17.35 38.73,38.73 0,21.39 -17.34,38.74 -38.73,38.74 -21.39,0 -38.74,-17.35 -38.74,-38.74 0,-21.38 17.35,-38.73 38.74,-38.73zm322.36 8.2l127.05 129.92 -45.08 46.72 -110.66 -115.47 -229.48 0c-11.45,23.93 -35.89,40.46 -64.18,40.46 -39.28,0 -71.11,-31.84 -71.11,-71.11 0,-39.27 31.84,-71.11 71.11,-71.11 28.34,0 52.82,16.59 64.23,40.59l258.12 0zm-459.86 538.97c52.06,0 94.27,42.21 94.27,94.27 0,52.06 -42.2,94.27 -94.27,94.27 -52.06,0 -94.27,-42.2 -94.27,-94.27 0,-52.06 42.2,-94.27 94.27,-94.27zm787.27 -216.17l-108.97 0 -274.48 279.1 -236.2 0c-14.71,-79.19 -84.15,-139.16 -167.61,-139.16 -94.17,0 -170.5,76.33 -170.5,170.49 0,94.17 76.34,170.5 170.5,170.5 82.76,0 151.73,-58.97 167.23,-137.16l262.93 0 276.74 -277.92 85.52 0c-2.67,-21.46 -4.38,-43.57 -5.15,-65.86zm17.59 -190.56l-92.06 0 -155.35 155.17 -45.01 -49.57 166.49 -169.96 147.1 0c-8.38,19.1 -15.44,40.84 -21.18,64.36zm-18.01 153.38l-136.24 0 -26.89 -31.04 41.23 -48.31 17.05 11.92 108.58 0c-2.2,22.08 -3.44,44.72 -3.72,67.44zm39.07 234.59l-157.14 0 -29.15 -31.48 46.45 -45.42 11.8 14.62 107.18 0c5.63,22.59 12.57,43.59 20.86,62.29z"/>
  <path class="fil0" d="M1645.63 15.54l0 77.17c-19.85,1.92 -39.38,4.96 -58.52,9.04l-27.12 -74.51c-2.92,-8.04 -11.89,-12.22 -19.93,-9.3l-65.97 24.01c-8.03,2.93 -12.22,11.89 -9.29,19.93l25.71 70.66c-18.23,7.85 -35.94,16.7 -53.03,26.51l-52.21 -62.22c-5.5,-6.56 -15.36,-7.42 -21.91,-1.92l-53.77 45.12c-6.56,5.5 -7.42,15.35 -1.92,21.91l47.05 56.07c-17.79,15.48 -34.5,32.16 -50.05,49.9l-71.22 -41.12c-7.4,-4.28 -16.96,-1.72 -21.24,5.69l-35.1 60.79c-4.28,7.4 -1.71,16.96 5.69,21.24l62.55 36.12c-44.24,76.52 -69.56,165.35 -69.56,260.09 0,96.6 26.35,187.04 72.21,264.56l-65.2 37.64c-7.4,4.28 -9.97,13.83 -5.69,21.24l35.1 60.8c4.28,7.4 13.83,9.97 21.24,5.69l74.73 -43.15c15.4,17.22 31.91,33.41 49.45,48.45l-49.97 59.54c-5.5,6.56 -4.64,16.41 1.92,21.91l53.77 45.12c6.56,5.5 16.41,4.64 21.91,-1.92l55.63 -66.3c16.62,9.38 33.81,17.89 51.49,25.43l-27.59 75.82c-2.93,8.03 1.26,17.01 9.29,19.93l65.97 24.01c8.03,2.93 17.01,-1.26 19.93,-9.29l29.15 -80.06c18.49,3.87 37.34,6.75 56.49,8.6l0 83.16c0,8.55 7,15.55 15.55,15.55l70.2 0c8.56,0 15.55,-7 15.55,-15.55l0 -83.16c22.52,-2.18 44.62,-5.77 66.21,-10.72l26.79 73.61c2.93,8.03 11.89,12.22 19.93,9.29l65.97 -24c8.03,-2.93 12.22,-11.9 9.29,-19.93l-25.91 -71.2c17.99,-8.08 35.42,-17.15 52.25,-27.14l53.2 63.39c5.5,6.56 15.36,7.42 21.91,1.92l53.77 -45.12c6.56,-5.49 7.42,-15.35 1.92,-21.91l-48.94 -58.33c17.25,-15.44 33.47,-32.01 48.53,-49.61l74.63 43.09c7.4,4.28 16.96,1.71 21.24,-5.69l35.1 -60.79c4.28,-7.41 1.72,-16.97 -5.69,-21.24l-67 -38.68 -127.48 0c-75.8,96.89 -193.8,159.17 -326.34,159.17 -228.71,0 -414.12,-185.41 -414.12,-414.12 0,-228.71 185.41,-414.11 414.12,-414.11 131.65,0 248.94,61.45 324.79,157.22l127.94 0 68.09 -39.32c7.41,-4.28 9.97,-13.83 5.69,-21.24l-35.1 -60.79c-4.28,-7.41 -13.83,-9.97 -21.24,-5.69l-76.1 43.94c-15,-17.38 -31.15,-33.72 -48.3,-48.97l50.18 -59.81c5.5,-6.56 4.64,-16.41 -1.92,-21.91l-53.77 -45.12c-6.55,-5.5 -16.41,-4.64 -21.91,1.92l-54.64 65.13c-16.64,-9.8 -33.86,-18.71 -51.61,-26.64l26.72 -73.43c2.93,-8.03 -1.26,-17 -9.29,-19.93l-65.97 -24.01c-8.03,-2.93 -17,1.26 -19.93,9.3l-27.66 76c-21.31,-4.85 -43.12,-8.38 -65.34,-10.53l0 -77.17c0,-8.55 -7,-15.54 -15.55,-15.54l-70.2 0c-8.55,0 -15.55,6.99 -15.55,15.54z"/>
  <path class="fil1" d="M2948.39 775.48l312.48 0 0 -87.17 -271.16 0 0 -150.43 271.16 0 0 -87.16 -312.48 0c-6.03,0 -12.16,1.5 -18.4,4.52 -6.25,3.01 -11.84,6.99 -16.79,11.94 -4.95,4.95 -8.93,10.55 -11.94,16.78 -3.01,6.25 -4.52,12.59 -4.52,19.05l0 220.16c0,6.45 1.51,12.8 4.52,19.04 3.01,6.24 6.99,11.84 11.94,16.78 4.95,4.95 10.55,8.94 16.79,11.95 6.24,3.01 12.37,4.52 18.4,4.52z"/>
  <polygon class="fil1" points="2761.8,775.48 2855.41,775.48 2855.41,566.74 2761.8,566.74 "/>
  <polygon class="fil1" points="2330.52,537.89 2479.01,537.89 2479.01,775.48 2571.99,775.48 2571.99,537.89 2720.48,537.89 2720.48,450.73 2330.52,450.73 "/>
  <path class="fil1" d="M2196.23 573.4l0 -35.51 -212.41 0 0 150.43 305.38 0 0 87.17 -346.7 0c-6.03,0 -12.16,-1.51 -18.4,-4.52 -6.24,-3.01 -11.84,-6.99 -16.78,-11.95 -4.95,-4.95 -8.94,-10.55 -11.95,-16.78 -3.01,-6.24 -4.52,-12.59 -4.52,-19.04l0 -220.16c0,-6.45 1.51,-12.8 4.52,-19.05 3.01,-6.24 6.99,-11.83 11.95,-16.78 4.95,-4.95 10.55,-8.93 16.78,-11.94 6.24,-3.02 12.37,-4.52 18.4,-4.52l295.05 0c6.02,0 12.16,1.5 18.39,4.52 6.25,3.01 11.84,6.99 16.79,11.94 4.95,4.95 8.93,10.55 11.94,16.78 3.01,6.25 4.52,12.59 4.52,19.05l0 97.49c0,6.46 -1.51,12.81 -4.52,19.05 -3.01,6.24 -6.99,11.84 -11.94,16.78 -4.95,4.95 -10.55,8.94 -16.79,11.95 -6.24,3.01 -12.37,4.51 -18.39,4.51l-218.22 0 0 -79.41 176.9 0z"/>
  <path class="fil1" d="M1756.56 652.81l0 35.51 -338.31 0 0 87.17 379.63 0c6.02,0 12.16,-1.51 18.4,-4.52 6.24,-3.01 11.83,-6.99 16.78,-11.95 4.95,-4.95 8.93,-10.55 11.94,-16.78 3.01,-6.24 4.52,-12.59 4.52,-19.04l0 -97.49c0,-6.45 -1.51,-12.8 -4.52,-19.04 -3.01,-6.25 -6.99,-11.84 -11.94,-16.79 -4.95,-4.95 -10.55,-8.93 -16.78,-11.94 -6.25,-3.01 -12.38,-4.52 -18.4,-4.52l-249.86 0 0 -35.51 301.5 0 0 -87.16 -342.82 0c-6.03,0 -12.16,1.5 -18.4,4.52 -6.24,3.01 -11.84,6.99 -16.78,11.94 -4.95,4.95 -8.94,10.55 -11.95,16.78 -3.01,6.25 -4.52,12.59 -4.52,19.05l0 97.49c0,6.46 1.51,12.81 4.52,19.05 3.01,6.24 6.99,11.84 11.95,16.78 4.95,4.95 10.55,8.94 16.78,11.95 6.24,3.01 12.37,4.51 18.4,4.51l249.86 0z"/>
  <g id="_2701608867536">
   <path class="fil1" d="M2844.41 529.22c-19.77,19.77 -51.83,19.77 -71.6,0 -19.77,-19.77 -19.77,-51.83 0,-71.61 19.77,-19.77 51.82,-19.77 71.6,0 19.77,19.77 19.77,51.83 0,71.61z"/>
   <path class="fil1" d="M2896.82 421.18c-49.61,-49.59 -126.07,-49.61 -175.69,0 -0.02,0.01 -0.02,0.01 -0.04,0l-52.68 -50.21c77.31,-77.32 203.12,-77.31 280.41,0l-51.96 50.21c-0.01,0.01 -0.03,0.01 -0.04,0z"/>
   <path class="fil1" d="M2628.63 331.21l-46.04 -46.04c60.38,-60.37 140.64,-93.62 226.02,-93.62 85.37,0 165.64,33.25 226,93.62l-46.03 46.04c-48.07,-48.07 -111.99,-74.54 -179.97,-74.54 -67.98,0 -131.9,26.47 -179.98,74.54z"/>
  </g>
  <g id="_2701608865808">
   <path class="fil1" d="M2510.3 1045.55c0,-0.2 0.06,-0.38 0.18,-0.52 0.12,-0.15 0.32,-0.23 0.57,-0.23l5.61 0c0.16,0 0.32,0.05 0.5,0.12 0.17,0.08 0.32,0.22 0.45,0.42 1.45,2.34 2.9,4.65 4.32,6.92 1.43,2.28 2.88,4.59 4.34,6.94l0 -13.75c0.05,-0.21 0.13,-0.37 0.28,-0.48 0.13,-0.12 0.29,-0.18 0.48,-0.18l4.89 0c0.24,0 0.44,0.07 0.6,0.2 0.15,0.13 0.24,0.32 0.24,0.55l0 24.06c0,0.23 -0.07,0.4 -0.21,0.51 -0.14,0.11 -0.32,0.16 -0.56,0.16l-5.48 0c-0.15,0 -0.28,-0.05 -0.39,-0.15 -0.12,-0.1 -0.24,-0.25 -0.36,-0.42 -1.52,-2.51 -3.03,-5 -4.51,-7.46 -1.49,-2.46 -3,-4.95 -4.53,-7.46l0 14.74c0,0.25 -0.06,0.44 -0.17,0.56 -0.12,0.12 -0.32,0.19 -0.62,0.19l-4.87 0c-0.27,0 -0.45,-0.07 -0.58,-0.22 -0.12,-0.15 -0.18,-0.32 -0.18,-0.52l0 -23.99z"/>
   <path class="fil1" d="M2538.43 1045.55c0,-0.2 0.06,-0.38 0.18,-0.52 0.13,-0.15 0.32,-0.23 0.57,-0.23l5.05 0c0.17,0 0.35,0.07 0.55,0.21 0.2,0.14 0.29,0.32 0.29,0.55l0 23.98c0,0.5 -0.28,0.75 -0.84,0.75l-5.05 0c-0.5,0 -0.75,-0.25 -0.75,-0.75l0 -23.98z"/>
   <path class="fil1" d="M2557.61 1069.92c-0.12,-0.21 -0.24,-0.42 -0.33,-0.64 -0.1,-0.22 -0.19,-0.44 -0.29,-0.66l-8.8 -23.05c0,-0.06 -0.01,-0.12 -0.02,-0.16 -0.02,-0.05 -0.03,-0.08 -0.03,-0.13 0,-0.32 0.22,-0.49 0.64,-0.49l5.52 0c0.43,0 0.73,0.22 0.89,0.65l5.23 15.62c0.47,-1.31 0.92,-2.61 1.35,-3.91 0.43,-1.29 0.86,-2.6 1.27,-3.91 0.42,-1.3 0.84,-2.6 1.27,-3.9 0.43,-1.3 0.88,-2.6 1.35,-3.91 0.16,-0.43 0.48,-0.65 0.94,-0.65l5.41 0c0.26,0 0.45,0.05 0.56,0.15 0.11,0.1 0.16,0.23 0.16,0.39 0,0.08 -0.01,0.15 -0.02,0.18l0 0.05 -8.86 23.05c-0.05,0.15 -0.12,0.33 -0.21,0.53 -0.08,0.19 -0.17,0.38 -0.27,0.54 -0.11,0.17 -0.22,0.3 -0.36,0.42 -0.14,0.11 -0.29,0.17 -0.46,0.17l-4.24 0c-0.35,0 -0.59,-0.12 -0.7,-0.36z"/>
   <path class="fil1" d="M2575.82 1045.58c0,-0.24 0.06,-0.43 0.19,-0.58 0.13,-0.14 0.32,-0.22 0.55,-0.22l17.03 0c0.25,0 0.45,0.08 0.59,0.22 0.13,0.15 0.2,0.35 0.2,0.6l0 4.24c0,0.19 -0.07,0.38 -0.2,0.55 -0.14,0.18 -0.35,0.26 -0.6,0.26l-11.12 0 0 4.26 8.58 0c0.22,0 0.4,0.05 0.54,0.15 0.14,0.1 0.22,0.28 0.22,0.52l0 3.71c0,0.16 -0.07,0.32 -0.19,0.46 -0.12,0.15 -0.31,0.22 -0.55,0.22l-8.6 0 0 4.39 11.53 0c0.52,0 0.77,0.27 0.77,0.79l0 4.31c0,0.12 -0.05,0.22 -0.13,0.31 -0.05,0.32 -0.29,0.48 -0.71,0.48l-17.35 0c-0.22,0 -0.41,-0.06 -0.55,-0.18 -0.14,-0.12 -0.2,-0.31 -0.2,-0.56l0 -23.96z"/>
   <path class="fil1" d="M2612.46 1053.2c0,-0.34 -0.06,-0.69 -0.18,-1.03 -0.13,-0.34 -0.31,-0.65 -0.53,-0.95 -0.23,-0.28 -0.51,-0.52 -0.82,-0.72 -0.32,-0.19 -0.68,-0.32 -1.07,-0.38 -0.32,-0.02 -0.62,-0.04 -0.89,-0.06 -0.29,-0.02 -0.59,-0.02 -0.92,-0.02l-2.36 0 0 6.3 3.16 0c0.21,0 0.39,-0.01 0.55,-0.02 0.16,-0.01 0.34,-0.02 0.53,-0.05 0.4,-0.05 0.76,-0.16 1.09,-0.35 0.32,-0.19 0.59,-0.42 0.8,-0.7 0.22,-0.29 0.39,-0.59 0.5,-0.95 0.12,-0.35 0.17,-0.71 0.17,-1.07zm-13.43 -7.62c0,-0.24 0.06,-0.43 0.18,-0.58 0.12,-0.14 0.32,-0.22 0.57,-0.22l11.08 0c1.18,0 2.28,0.22 3.31,0.66 1.03,0.44 1.93,1.04 2.7,1.79 0.76,0.75 1.37,1.64 1.81,2.65 0.44,1.02 0.65,2.1 0.65,3.24 0,0.78 -0.1,1.52 -0.32,2.23 -0.21,0.7 -0.5,1.36 -0.88,1.97 -0.39,0.61 -0.83,1.16 -1.35,1.66 -0.52,0.49 -1.09,0.92 -1.71,1.28l4.41 8.3c0.08,0.16 0.18,0.35 0.31,0.57 0.12,0.22 0.18,0.41 0.18,0.56 0,0.18 -0.06,0.32 -0.18,0.42 -0.12,0.1 -0.29,0.15 -0.49,0.15l-5.88 0c-0.19,0 -0.37,-0.06 -0.52,-0.17 -0.15,-0.12 -0.25,-0.27 -0.3,-0.47l-4.17 -7.84 -2.78 0 0 7.74c0,0.49 -0.26,0.74 -0.79,0.74l-5.09 0c-0.23,0 -0.42,-0.06 -0.55,-0.18 -0.13,-0.12 -0.2,-0.32 -0.2,-0.56l0 -23.96z"/>
   <path class="fil1" d="M2626.35 1062.04c0.19,0.16 0.44,0.38 0.75,0.65 0.3,0.27 0.65,0.53 1.03,0.8 0.59,0.39 1.16,0.69 1.73,0.9 0.58,0.22 1.18,0.33 1.8,0.33 0.59,0 1.08,-0.06 1.47,-0.2 0.39,-0.13 0.7,-0.3 0.94,-0.52 0.22,-0.22 0.39,-0.47 0.49,-0.76 0.09,-0.28 0.15,-0.59 0.15,-0.9 0,-0.35 -0.14,-0.68 -0.41,-0.96 -0.27,-0.28 -0.59,-0.53 -0.99,-0.75 -0.39,-0.22 -0.79,-0.4 -1.22,-0.55 -0.42,-0.15 -0.79,-0.29 -1.1,-0.39 -1.37,-0.47 -2.57,-0.99 -3.6,-1.55 -1.02,-0.55 -1.89,-1.17 -2.57,-1.85 -0.69,-0.69 -1.2,-1.43 -1.54,-2.25 -0.35,-0.82 -0.52,-1.73 -0.52,-2.73 0,-1.06 0.22,-2.03 0.65,-2.9 0.42,-0.87 1.03,-1.61 1.83,-2.23 0.79,-0.61 1.76,-1.09 2.87,-1.43 1.12,-0.33 2.37,-0.5 3.76,-0.5 1.04,0 2.04,0.12 3,0.35 0.96,0.23 1.89,0.61 2.82,1.12 0.39,0.23 0.76,0.46 1.11,0.71 0.35,0.25 0.65,0.49 0.92,0.71 0.26,0.23 0.48,0.45 0.62,0.65 0.16,0.21 0.24,0.39 0.24,0.53 0,0.15 -0.04,0.29 -0.12,0.42 -0.08,0.12 -0.18,0.27 -0.33,0.42l-2.63 2.8c-0.18,0.19 -0.39,0.29 -0.58,0.29 -0.16,0 -0.3,-0.05 -0.44,-0.14 -0.13,-0.09 -0.28,-0.2 -0.43,-0.34l-0.16 -0.14c-0.22,-0.19 -0.48,-0.39 -0.76,-0.6 -0.28,-0.2 -0.58,-0.39 -0.9,-0.55 -0.32,-0.17 -0.65,-0.31 -1.01,-0.42 -0.35,-0.11 -0.72,-0.16 -1.08,-0.16 -0.39,0 -0.74,0.03 -1.07,0.09 -0.33,0.07 -0.62,0.16 -0.87,0.3 -0.25,0.14 -0.45,0.32 -0.6,0.55 -0.15,0.22 -0.22,0.49 -0.22,0.81 0,0.32 0.08,0.6 0.24,0.83 0.16,0.24 0.4,0.45 0.72,0.65 0.32,0.2 0.72,0.39 1.19,0.56 0.47,0.18 1.02,0.38 1.65,0.59 1.22,0.39 2.33,0.82 3.36,1.26 1.02,0.44 1.91,0.96 2.65,1.56 0.75,0.6 1.32,1.32 1.74,2.15 0.42,0.84 0.62,1.86 0.62,3.04 0,1.26 -0.25,2.4 -0.77,3.43 -0.51,1.02 -1.22,1.89 -2.12,2.61 -0.89,0.72 -1.96,1.28 -3.17,1.67 -1.21,0.4 -2.52,0.59 -3.91,0.59 -1.31,0 -2.61,-0.23 -3.87,-0.71 -1.27,-0.46 -2.46,-1.09 -3.56,-1.89 -0.45,-0.34 -0.84,-0.66 -1.16,-0.99 -0.32,-0.32 -0.56,-0.58 -0.75,-0.77l-0.05 -0.05c-0.02,-0.02 -0.02,-0.04 -0.04,-0.04 -0.02,-0.01 -0.02,-0.02 -0.03,-0.03 -0.02,-0.02 -0.02,-0.04 -0.04,-0.05 -0.01,-0.01 -0.02,-0.01 -0.03,-0.02 -0.27,-0.29 -0.39,-0.52 -0.39,-0.69 0,-0.19 0.12,-0.42 0.39,-0.65l2.97 -2.83c0.24,-0.17 0.44,-0.25 0.59,-0.25 0.1,0 0.21,0.03 0.32,0.1 0.12,0.07 0.25,0.18 0.42,0.31z"/>
   <path class="fil1" d="M2645.72 1045.55c0,-0.2 0.06,-0.38 0.18,-0.52 0.12,-0.15 0.32,-0.23 0.57,-0.23l5.05 0c0.17,0 0.35,0.07 0.55,0.21 0.2,0.14 0.29,0.32 0.29,0.55l0 23.98c0,0.5 -0.28,0.75 -0.84,0.75l-5.05 0c-0.51,0 -0.75,-0.25 -0.75,-0.75l0 -23.98z"/>
   <path class="fil1" d="M2664.25 1050.94l0 13.19 1.44 0c0.26,0 0.52,-0.01 0.78,-0.02 0.25,-0.02 0.5,-0.04 0.75,-0.06 0.86,-0.07 1.66,-0.28 2.4,-0.62 0.75,-0.35 1.39,-0.81 1.95,-1.38 0.55,-0.56 0.99,-1.23 1.31,-2 0.31,-0.76 0.47,-1.6 0.47,-2.51 0,-0.96 -0.18,-1.84 -0.54,-2.65 -0.36,-0.81 -0.86,-1.5 -1.47,-2.09 -0.62,-0.59 -1.34,-1.05 -2.17,-1.38 -0.82,-0.32 -1.71,-0.49 -2.65,-0.49l-2.26 0zm15.71 6.62c0,1.22 -0.15,2.36 -0.46,3.46 -0.32,1.09 -0.75,2.11 -1.32,3.05 -0.58,0.95 -1.26,1.8 -2.05,2.57 -0.8,0.77 -1.68,1.43 -2.64,1.96 -0.97,0.54 -2.01,0.95 -3.14,1.24 -1.12,0.29 -2.28,0.44 -3.48,0.44l-8.47 0c-0.21,0 -0.39,-0.05 -0.55,-0.14 -0.16,-0.09 -0.24,-0.29 -0.24,-0.59l0 -23.97c0,-0.24 0.06,-0.44 0.19,-0.59 0.13,-0.15 0.33,-0.22 0.59,-0.22l8.47 0c1.2,0 2.36,0.15 3.47,0.45 1.12,0.3 2.16,0.72 3.12,1.27 0.97,0.55 1.86,1.21 2.66,1.97 0.79,0.76 1.48,1.63 2.05,2.58 0.56,0.94 1.01,1.97 1.32,3.07 0.32,1.1 0.48,2.25 0.48,3.45z"/>
   <path class="fil1" d="M2692.58 1052.81c-0.22,0.59 -0.43,1.21 -0.65,1.89 -0.22,0.68 -0.45,1.36 -0.66,2.04 -0.22,0.69 -0.44,1.36 -0.66,2.03 -0.22,0.67 -0.44,1.29 -0.66,1.88l5.27 0 -2.63 -7.84zm-3.12 -7.35c0.01,-0.06 0.05,-0.14 0.11,-0.22 0.06,-0.08 0.15,-0.15 0.23,-0.22 0.09,-0.08 0.19,-0.13 0.29,-0.17 0.11,-0.04 0.2,-0.06 0.29,-0.06l4.4 0c0.19,0 0.35,0.06 0.49,0.18 0.14,0.12 0.24,0.22 0.31,0.32l0.43 0.98 9.01 23.24c0.08,0.22 0.07,0.41 -0.05,0.55 -0.12,0.15 -0.35,0.22 -0.65,0.22l-4.92 0c-0.26,0 -0.47,-0.05 -0.61,-0.15 -0.15,-0.1 -0.25,-0.26 -0.33,-0.49 -0.23,-0.59 -0.45,-1.17 -0.68,-1.75 -0.22,-0.58 -0.43,-1.16 -0.65,-1.74l-9.11 0c-0.22,0.59 -0.44,1.16 -0.66,1.74 -0.22,0.58 -0.45,1.16 -0.66,1.75 -0.15,0.42 -0.44,0.63 -0.87,0.63l-5.06 0c-0.22,0 -0.4,-0.06 -0.55,-0.17 -0.15,-0.12 -0.17,-0.29 -0.08,-0.52l9.32 -24.13z"/>
   <path class="fil1" d="M2714.81 1050.94l0 13.19 1.45 0c0.26,0 0.52,-0.01 0.77,-0.02 0.25,-0.02 0.5,-0.04 0.75,-0.06 0.86,-0.07 1.66,-0.28 2.4,-0.62 0.74,-0.35 1.39,-0.81 1.94,-1.38 0.56,-0.56 0.99,-1.23 1.31,-2 0.32,-0.76 0.47,-1.6 0.47,-2.51 0,-0.96 -0.18,-1.84 -0.54,-2.65 -0.36,-0.81 -0.85,-1.5 -1.47,-2.09 -0.62,-0.59 -1.34,-1.05 -2.16,-1.38 -0.83,-0.32 -1.72,-0.49 -2.66,-0.49l-2.26 0zm15.71 6.62c0,1.22 -0.15,2.36 -0.46,3.46 -0.31,1.09 -0.75,2.11 -1.32,3.05 -0.57,0.95 -1.26,1.8 -2.05,2.57 -0.79,0.77 -1.68,1.43 -2.64,1.96 -0.97,0.54 -2.01,0.95 -3.14,1.24 -1.12,0.29 -2.28,0.44 -3.48,0.44l-8.47 0c-0.2,0 -0.39,-0.05 -0.55,-0.14 -0.15,-0.09 -0.24,-0.29 -0.24,-0.59l0 -23.97c0,-0.24 0.07,-0.44 0.2,-0.59 0.13,-0.15 0.33,-0.22 0.59,-0.22l8.47 0c1.2,0 2.36,0.15 3.47,0.45 1.12,0.3 2.16,0.72 3.13,1.27 0.96,0.55 1.85,1.21 2.65,1.97 0.8,0.76 1.48,1.63 2.05,2.58 0.57,0.94 1.01,1.97 1.32,3.07 0.31,1.1 0.47,2.25 0.47,3.45z"/>
   <path class="fil1" d="M2745.82 1045.55c0,-0.2 0.06,-0.38 0.19,-0.52 0.12,-0.15 0.31,-0.23 0.56,-0.23l5.62 0c0.16,0 0.32,0.05 0.49,0.12 0.18,0.08 0.32,0.22 0.45,0.42 1.46,2.34 2.9,4.65 4.33,6.92 1.43,2.28 2.87,4.59 4.34,6.94l0 -13.75c0.04,-0.21 0.13,-0.37 0.27,-0.48 0.14,-0.12 0.3,-0.18 0.48,-0.18l4.89 0c0.25,0 0.44,0.07 0.6,0.2 0.16,0.13 0.24,0.32 0.24,0.55l0 24.06c0,0.23 -0.06,0.4 -0.2,0.51 -0.14,0.11 -0.32,0.16 -0.57,0.16l-5.47 0c-0.15,0 -0.29,-0.05 -0.4,-0.15 -0.11,-0.1 -0.23,-0.25 -0.35,-0.42 -1.53,-2.51 -3.03,-5 -4.51,-7.46 -1.49,-2.46 -3,-4.95 -4.53,-7.46l0 14.74c0,0.25 -0.06,0.44 -0.18,0.56 -0.12,0.12 -0.32,0.19 -0.62,0.19l-4.88 0c-0.26,0 -0.45,-0.07 -0.57,-0.22 -0.12,-0.15 -0.18,-0.32 -0.18,-0.52l0 -23.99z"/>
   <path class="fil1" d="M2784.29 1052.81c-0.22,0.59 -0.43,1.21 -0.66,1.89 -0.22,0.68 -0.44,1.36 -0.65,2.04 -0.22,0.69 -0.44,1.36 -0.66,2.03 -0.22,0.67 -0.45,1.29 -0.66,1.88l5.27 0 -2.63 -7.84zm-3.12 -7.35c0.01,-0.06 0.05,-0.14 0.11,-0.22 0.06,-0.08 0.14,-0.15 0.23,-0.22 0.09,-0.08 0.19,-0.13 0.29,-0.17 0.11,-0.04 0.2,-0.06 0.29,-0.06l4.4 0c0.19,0 0.35,0.06 0.49,0.18 0.14,0.12 0.24,0.22 0.31,0.32l0.43 0.98 9.01 23.24c0.08,0.22 0.07,0.41 -0.05,0.55 -0.12,0.15 -0.35,0.22 -0.65,0.22l-4.92 0c-0.26,0 -0.47,-0.05 -0.61,-0.15 -0.15,-0.1 -0.25,-0.26 -0.34,-0.49 -0.22,-0.59 -0.45,-1.17 -0.67,-1.75 -0.22,-0.58 -0.43,-1.16 -0.65,-1.74l-9.11 0c-0.22,0.59 -0.44,1.16 -0.66,1.74 -0.22,0.58 -0.45,1.16 -0.66,1.75 -0.15,0.42 -0.44,0.63 -0.88,0.63l-5.06 0c-0.22,0 -0.4,-0.06 -0.54,-0.17 -0.15,-0.12 -0.17,-0.29 -0.08,-0.52l9.32 -24.13z"/>
   <path class="fil1" d="M2817.33 1046.65c0.19,0.12 0.34,0.26 0.43,0.45 0.08,0.18 0.07,0.4 -0.05,0.65l-2.9 4.12c-0.13,0.2 -0.26,0.31 -0.41,0.34 -0.14,0.02 -0.32,-0.02 -0.52,-0.15 -0.56,-0.42 -1.18,-0.75 -1.85,-0.98 -0.68,-0.23 -1.39,-0.35 -2.15,-0.35 -0.94,0 -1.8,0.18 -2.59,0.53 -0.79,0.35 -1.47,0.84 -2.05,1.46 -0.57,0.62 -1.02,1.35 -1.33,2.16 -0.32,0.82 -0.48,1.71 -0.48,2.64 0,0.94 0.15,1.83 0.48,2.63 0.32,0.82 0.76,1.53 1.33,2.15 0.58,0.61 1.26,1.09 2.05,1.45 0.79,0.35 1.65,0.53 2.59,0.53 0.75,0 1.47,-0.12 2.16,-0.35 0.69,-0.24 1.31,-0.57 1.87,-0.99 0.2,-0.13 0.37,-0.18 0.52,-0.16 0.13,0.02 0.27,0.13 0.41,0.32l2.93 4.22c0.12,0.25 0.14,0.46 0.05,0.63 -0.08,0.17 -0.23,0.32 -0.42,0.43 -1.08,0.72 -2.23,1.28 -3.47,1.67 -1.25,0.39 -2.55,0.59 -3.92,0.59 -1.22,0 -2.38,-0.15 -3.5,-0.46 -1.11,-0.32 -2.16,-0.75 -3.13,-1.32 -0.97,-0.57 -1.86,-1.26 -2.66,-2.05 -0.79,-0.8 -1.48,-1.68 -2.05,-2.64 -0.57,-0.96 -1.01,-2.01 -1.32,-3.13 -0.31,-1.12 -0.47,-2.28 -0.47,-3.49 0,-1.22 0.16,-2.38 0.47,-3.49 0.31,-1.12 0.75,-2.16 1.32,-3.14 0.57,-0.98 1.26,-1.87 2.05,-2.67 0.8,-0.8 1.69,-1.48 2.66,-2.05 0.97,-0.57 2.02,-1.01 3.13,-1.32 1.12,-0.32 2.28,-0.47 3.5,-0.47 1.37,0 2.67,0.19 3.88,0.58 1.22,0.38 2.36,0.93 3.44,1.66z"/>
   <path class="fil1" d="M2822.14 1045.55c0,-0.2 0.06,-0.38 0.18,-0.52 0.13,-0.15 0.32,-0.23 0.57,-0.23l5.05 0c0.17,0 0.35,0.07 0.55,0.21 0.19,0.14 0.29,0.32 0.29,0.55l0 23.98c0,0.5 -0.28,0.75 -0.84,0.75l-5.05 0c-0.5,0 -0.75,-0.25 -0.75,-0.75l0 -23.98z"/>
   <path class="fil1" d="M2839.76 1057.54c0,0.96 0.15,1.84 0.48,2.67 0.32,0.82 0.77,1.54 1.35,2.16 0.58,0.61 1.26,1.09 2.05,1.44 0.79,0.35 1.66,0.52 2.6,0.52 0.95,0 1.82,-0.18 2.61,-0.52 0.79,-0.35 1.48,-0.83 2.06,-1.44 0.58,-0.62 1.02,-1.33 1.35,-2.16 0.32,-0.82 0.48,-1.71 0.48,-2.67 0,-0.93 -0.16,-1.82 -0.48,-2.65 -0.32,-0.82 -0.77,-1.55 -1.35,-2.17 -0.58,-0.62 -1.26,-1.1 -2.06,-1.46 -0.79,-0.35 -1.66,-0.53 -2.61,-0.53 -0.95,0 -1.82,0.18 -2.6,0.53 -0.79,0.35 -1.47,0.84 -2.05,1.46 -0.58,0.62 -1.02,1.35 -1.35,2.17 -0.32,0.83 -0.48,1.72 -0.48,2.65zm-6.65 0.02c0,-1.22 0.16,-2.38 0.47,-3.49 0.31,-1.12 0.75,-2.16 1.32,-3.14 0.58,-0.98 1.26,-1.87 2.06,-2.67 0.79,-0.8 1.68,-1.48 2.66,-2.05 0.97,-0.57 2.01,-1.01 3.13,-1.32 1.12,-0.32 2.28,-0.47 3.5,-0.47 1.2,0 2.36,0.15 3.48,0.47 1.12,0.32 2.17,0.75 3.14,1.32 0.98,0.57 1.86,1.25 2.67,2.05 0.8,0.8 1.49,1.69 2.05,2.67 0.57,0.98 1.01,2.02 1.32,3.14 0.32,1.11 0.47,2.27 0.47,3.49 0,1.21 -0.15,2.38 -0.47,3.49 -0.32,1.12 -0.75,2.16 -1.32,3.13 -0.56,0.96 -1.25,1.85 -2.05,2.64 -0.8,0.79 -1.69,1.48 -2.67,2.05 -0.97,0.58 -2.02,1.01 -3.14,1.32 -1.12,0.31 -2.28,0.46 -3.48,0.46 -1.22,0 -2.38,-0.15 -3.5,-0.46 -1.12,-0.32 -2.16,-0.75 -3.13,-1.32 -0.98,-0.57 -1.86,-1.26 -2.66,-2.05 -0.79,-0.79 -1.48,-1.68 -2.06,-2.64 -0.57,-0.97 -1.01,-2.01 -1.32,-3.13 -0.31,-1.11 -0.47,-2.28 -0.47,-3.49z"/>
   <path class="fil1" d="M2863.63 1045.55c0,-0.2 0.06,-0.38 0.18,-0.52 0.13,-0.15 0.32,-0.23 0.57,-0.23l5.61 0c0.16,0 0.33,0.05 0.5,0.12 0.17,0.08 0.32,0.22 0.45,0.42 1.46,2.34 2.9,4.65 4.32,6.92 1.43,2.28 2.88,4.59 4.34,6.94l0 -13.75c0.05,-0.21 0.14,-0.37 0.28,-0.48 0.13,-0.12 0.29,-0.18 0.48,-0.18l4.89 0c0.24,0 0.44,0.07 0.6,0.2 0.16,0.13 0.24,0.32 0.24,0.55l0 24.06c0,0.23 -0.07,0.4 -0.2,0.51 -0.14,0.11 -0.33,0.16 -0.57,0.16l-5.48 0c-0.15,0 -0.28,-0.05 -0.39,-0.15 -0.12,-0.1 -0.24,-0.25 -0.36,-0.42 -1.52,-2.51 -3.02,-5 -4.51,-7.46 -1.49,-2.46 -3,-4.95 -4.53,-7.46l0 14.74c0,0.25 -0.05,0.44 -0.17,0.56 -0.12,0.12 -0.32,0.19 -0.62,0.19l-4.87 0c-0.27,0 -0.45,-0.07 -0.58,-0.22 -0.12,-0.15 -0.18,-0.32 -0.18,-0.52l0 -23.99z"/>
   <path class="fil1" d="M2902.11 1052.81c-0.22,0.59 -0.44,1.21 -0.66,1.89 -0.22,0.68 -0.45,1.36 -0.66,2.04 -0.22,0.69 -0.43,1.36 -0.66,2.03 -0.22,0.67 -0.44,1.29 -0.65,1.88l5.26 0 -2.62 -7.84zm-3.13 -7.35c0.02,-0.06 0.05,-0.14 0.12,-0.22 0.06,-0.08 0.14,-0.15 0.23,-0.22 0.09,-0.08 0.18,-0.13 0.29,-0.17 0.1,-0.04 0.2,-0.06 0.29,-0.06l4.39 0c0.19,0 0.36,0.06 0.5,0.18 0.13,0.12 0.24,0.22 0.31,0.32l0.42 0.98 9.01 23.24c0.09,0.22 0.08,0.41 -0.05,0.55 -0.12,0.15 -0.34,0.22 -0.65,0.22l-4.92 0c-0.26,0 -0.47,-0.05 -0.61,-0.15 -0.14,-0.1 -0.25,-0.26 -0.33,-0.49 -0.23,-0.59 -0.45,-1.17 -0.67,-1.75 -0.22,-0.58 -0.44,-1.16 -0.65,-1.74l-9.11 0c-0.22,0.59 -0.44,1.16 -0.66,1.74 -0.22,0.58 -0.44,1.16 -0.66,1.75 -0.15,0.42 -0.44,0.63 -0.87,0.63l-5.06 0c-0.22,0 -0.4,-0.06 -0.55,-0.17 -0.14,-0.12 -0.16,-0.29 -0.08,-0.52l9.32 -24.13z"/>
   <path class="fil1" d="M2917.36 1045.53c0,-0.21 0.07,-0.39 0.21,-0.53 0.14,-0.15 0.32,-0.22 0.56,-0.22l5.08 0c0.19,0 0.37,0.07 0.53,0.21 0.16,0.14 0.25,0.32 0.25,0.55l0 18.67 9.44 0c0.2,0 0.38,0.07 0.53,0.21 0.15,0.14 0.22,0.32 0.22,0.56l0 4.51c0,0.2 -0.07,0.37 -0.2,0.53 -0.13,0.16 -0.32,0.25 -0.55,0.26l-15.33 0c-0.5,0 -0.75,-0.25 -0.75,-0.75l0 -23.99z"/>
   <path class="fil1" d="M2955.32 1050.94l0 13.19 1.44 0c0.27,0 0.52,-0.01 0.78,-0.02 0.25,-0.02 0.5,-0.04 0.75,-0.06 0.86,-0.07 1.66,-0.28 2.4,-0.62 0.75,-0.35 1.4,-0.81 1.95,-1.38 0.56,-0.56 0.99,-1.23 1.31,-2 0.32,-0.76 0.47,-1.6 0.47,-2.51 0,-0.96 -0.18,-1.84 -0.54,-2.65 -0.36,-0.81 -0.85,-1.5 -1.47,-2.09 -0.62,-0.59 -1.34,-1.05 -2.16,-1.38 -0.83,-0.32 -1.72,-0.49 -2.66,-0.49l-2.26 0zm15.71 6.62c0,1.22 -0.15,2.36 -0.46,3.46 -0.31,1.09 -0.75,2.11 -1.32,3.05 -0.57,0.95 -1.26,1.8 -2.05,2.57 -0.8,0.77 -1.68,1.43 -2.64,1.96 -0.97,0.54 -2.01,0.95 -3.14,1.24 -1.12,0.29 -2.28,0.44 -3.48,0.44l-8.46 0c-0.21,0 -0.39,-0.05 -0.55,-0.14 -0.15,-0.09 -0.24,-0.29 -0.24,-0.59l0 -23.97c0,-0.24 0.06,-0.44 0.2,-0.59 0.13,-0.15 0.33,-0.22 0.59,-0.22l8.46 0c1.2,0 2.36,0.15 3.47,0.45 1.12,0.3 2.16,0.72 3.13,1.27 0.96,0.55 1.85,1.21 2.65,1.97 0.8,0.76 1.48,1.63 2.05,2.58 0.57,0.94 1.01,1.97 1.32,3.07 0.32,1.1 0.48,2.25 0.48,3.45z"/>
   <path class="fil1" d="M2975.5 1045.58c0,-0.24 0.07,-0.43 0.2,-0.58 0.13,-0.14 0.32,-0.22 0.55,-0.22l17.02 0c0.25,0 0.45,0.08 0.59,0.22 0.14,0.15 0.21,0.35 0.21,0.6l0 4.24c0,0.19 -0.07,0.38 -0.21,0.55 -0.14,0.18 -0.34,0.26 -0.6,0.26l-11.12 0 0 4.26 8.58 0c0.22,0 0.39,0.05 0.54,0.15 0.14,0.1 0.22,0.28 0.22,0.52l0 3.71c0,0.16 -0.07,0.32 -0.19,0.46 -0.12,0.15 -0.31,0.22 -0.55,0.22l-8.6 0 0 4.39 11.53 0c0.52,0 0.77,0.27 0.77,0.79l0 4.31c0,0.12 -0.05,0.22 -0.14,0.31 -0.05,0.32 -0.28,0.48 -0.7,0.48l-17.35 0c-0.22,0 -0.41,-0.06 -0.55,-0.18 -0.14,-0.12 -0.21,-0.31 -0.21,-0.56l0 -23.96z"/>
   <path class="fil1" d="M3019.85 1052.81c-0.22,0.59 -0.43,1.21 -0.66,1.89 -0.22,0.68 -0.44,1.36 -0.65,2.04 -0.22,0.69 -0.44,1.36 -0.66,2.03 -0.22,0.67 -0.45,1.29 -0.66,1.88l5.27 0 -2.63 -7.84zm-3.12 -7.35c0.01,-0.06 0.05,-0.14 0.11,-0.22 0.06,-0.08 0.14,-0.15 0.23,-0.22 0.09,-0.08 0.19,-0.13 0.29,-0.17 0.11,-0.04 0.2,-0.06 0.29,-0.06l4.4 0c0.19,0 0.35,0.06 0.49,0.18 0.14,0.12 0.24,0.22 0.31,0.32l0.43 0.98 9.01 23.24c0.08,0.22 0.07,0.41 -0.05,0.55 -0.12,0.15 -0.35,0.22 -0.65,0.22l-4.92 0c-0.26,0 -0.47,-0.05 -0.61,-0.15 -0.15,-0.1 -0.25,-0.26 -0.34,-0.49 -0.22,-0.59 -0.45,-1.17 -0.67,-1.75 -0.22,-0.58 -0.43,-1.16 -0.65,-1.74l-9.11 0c-0.22,0.59 -0.44,1.16 -0.66,1.74 -0.22,0.58 -0.45,1.16 -0.66,1.75 -0.15,0.42 -0.44,0.63 -0.88,0.63l-5.06 0c-0.22,0 -0.39,-0.06 -0.54,-0.17 -0.15,-0.12 -0.17,-0.29 -0.08,-0.52l9.32 -24.13z"/>
   <path class="fil1" d="M3049.53 1051.99c-0.59,-0.42 -1.21,-0.73 -1.87,-0.96 -0.67,-0.23 -1.38,-0.35 -2.13,-0.35 -0.95,0 -1.82,0.18 -2.6,0.55 -0.79,0.36 -1.47,0.85 -2.03,1.46 -0.57,0.62 -1.02,1.34 -1.33,2.17 -0.32,0.82 -0.48,1.71 -0.48,2.65 0,0.94 0.15,1.83 0.48,2.64 0.32,0.82 0.76,1.54 1.33,2.16 0.56,0.62 1.24,1.09 2.03,1.45 0.79,0.35 1.66,0.53 2.6,0.53 0.4,0 0.8,-0.03 1.19,-0.08 0.39,-0.05 0.82,-0.13 1.26,-0.22l0 -4.5c0,-0.22 0.06,-0.39 0.18,-0.54 0.13,-0.14 0.32,-0.22 0.57,-0.22l4.67 0c0.17,0 0.35,0.07 0.55,0.21 0.2,0.14 0.29,0.32 0.29,0.55l0 8.31c0,0.31 -0.16,0.55 -0.5,0.75 -0.53,0.36 -1.13,0.68 -1.78,0.94 -0.65,0.26 -1.33,0.49 -2.04,0.65 -0.71,0.17 -1.43,0.3 -2.16,0.39 -0.72,0.08 -1.43,0.13 -2.12,0.13 -1.22,0 -2.38,-0.15 -3.49,-0.46 -1.12,-0.32 -2.16,-0.75 -3.14,-1.32 -0.97,-0.57 -1.86,-1.26 -2.65,-2.05 -0.79,-0.8 -1.48,-1.68 -2.06,-2.64 -0.57,-0.97 -1.01,-2.01 -1.32,-3.12 -0.31,-1.12 -0.46,-2.29 -0.46,-3.5 0,-1.21 0.15,-2.38 0.46,-3.49 0.31,-1.12 0.75,-2.16 1.32,-3.14 0.58,-0.98 1.26,-1.87 2.06,-2.67 0.79,-0.8 1.68,-1.48 2.65,-2.05 0.97,-0.57 2.02,-1 3.14,-1.32 1.11,-0.31 2.27,-0.47 3.49,-0.47 1.37,0 2.67,0.19 3.89,0.58 1.22,0.39 2.36,0.93 3.44,1.66 0.2,0.12 0.35,0.26 0.45,0.45 0.11,0.19 0.08,0.4 -0.07,0.64l-2.78 4.02c-0.15,0.18 -0.29,0.31 -0.45,0.37 -0.15,0.06 -0.35,0.02 -0.59,-0.15z"/>
   <path class="fil1" d="M3072.69 1053.2c0,-0.34 -0.06,-0.69 -0.18,-1.03 -0.13,-0.34 -0.31,-0.65 -0.53,-0.95 -0.23,-0.28 -0.51,-0.52 -0.83,-0.72 -0.32,-0.19 -0.67,-0.32 -1.06,-0.38 -0.32,-0.02 -0.62,-0.04 -0.89,-0.06 -0.29,-0.02 -0.59,-0.02 -0.92,-0.02l-2.36 0 0 6.3 3.16 0c0.21,0 0.39,-0.01 0.55,-0.02 0.16,-0.01 0.34,-0.02 0.53,-0.05 0.4,-0.05 0.76,-0.16 1.08,-0.35 0.32,-0.19 0.59,-0.42 0.81,-0.7 0.22,-0.29 0.39,-0.59 0.5,-0.95 0.12,-0.35 0.17,-0.71 0.17,-1.07zm-13.43 -7.62c0,-0.24 0.06,-0.43 0.18,-0.58 0.12,-0.14 0.32,-0.22 0.57,-0.22l11.08 0c1.18,0 2.28,0.22 3.31,0.66 1.02,0.44 1.93,1.04 2.7,1.79 0.76,0.75 1.37,1.64 1.81,2.65 0.44,1.02 0.65,2.1 0.65,3.24 0,0.78 -0.1,1.52 -0.32,2.23 -0.21,0.7 -0.5,1.36 -0.89,1.97 -0.38,0.61 -0.82,1.16 -1.35,1.66 -0.52,0.49 -1.09,0.92 -1.7,1.28l4.41 8.3c0.08,0.16 0.18,0.35 0.31,0.57 0.12,0.22 0.18,0.41 0.18,0.56 0,0.18 -0.06,0.32 -0.18,0.42 -0.12,0.1 -0.29,0.15 -0.49,0.15l-5.88 0c-0.19,0 -0.37,-0.06 -0.52,-0.17 -0.15,-0.12 -0.25,-0.27 -0.3,-0.47l-4.17 -7.84 -2.78 0 0 7.74c0,0.49 -0.26,0.74 -0.79,0.74l-5.09 0c-0.23,0 -0.42,-0.06 -0.55,-0.18 -0.13,-0.12 -0.2,-0.32 -0.2,-0.56l0 -23.96z"/>
   <path class="fil1" d="M3083.43 1045.55c0,-0.2 0.06,-0.38 0.18,-0.52 0.12,-0.15 0.32,-0.23 0.56,-0.23l5.05 0c0.17,0 0.35,0.07 0.55,0.21 0.19,0.14 0.29,0.32 0.29,0.55l0 23.98c0,0.5 -0.28,0.75 -0.84,0.75l-5.05 0c-0.5,0 -0.75,-0.25 -0.75,-0.75l0 -23.98z"/>
   <path class="fil1" d="M3115.05 1046.65c0.19,0.12 0.33,0.26 0.42,0.45 0.09,0.18 0.08,0.4 -0.05,0.65l-2.9 4.12c-0.12,0.2 -0.26,0.31 -0.41,0.34 -0.14,0.02 -0.32,-0.02 -0.52,-0.15 -0.56,-0.42 -1.19,-0.75 -1.86,-0.98 -0.68,-0.23 -1.39,-0.35 -2.14,-0.35 -0.94,0 -1.81,0.18 -2.6,0.53 -0.79,0.35 -1.47,0.84 -2.04,1.46 -0.57,0.62 -1.02,1.35 -1.34,2.16 -0.32,0.82 -0.48,1.71 -0.48,2.64 0,0.94 0.16,1.83 0.48,2.63 0.32,0.82 0.77,1.53 1.34,2.15 0.57,0.61 1.25,1.09 2.04,1.45 0.79,0.35 1.66,0.53 2.6,0.53 0.75,0 1.47,-0.12 2.16,-0.35 0.69,-0.24 1.31,-0.57 1.87,-0.99 0.21,-0.13 0.38,-0.18 0.52,-0.16 0.14,0.02 0.28,0.13 0.41,0.32l2.93 4.22c0.13,0.25 0.15,0.46 0.05,0.63 -0.09,0.17 -0.24,0.32 -0.43,0.43 -1.07,0.72 -2.23,1.28 -3.47,1.67 -1.24,0.39 -2.55,0.59 -3.92,0.59 -1.21,0 -2.37,-0.15 -3.49,-0.46 -1.12,-0.32 -2.16,-0.75 -3.14,-1.32 -0.97,-0.57 -1.86,-1.26 -2.65,-2.05 -0.79,-0.8 -1.48,-1.68 -2.05,-2.64 -0.58,-0.96 -1.02,-2.01 -1.32,-3.13 -0.31,-1.12 -0.46,-2.28 -0.46,-3.49 0,-1.22 0.15,-2.38 0.46,-3.49 0.31,-1.12 0.75,-2.16 1.32,-3.14 0.57,-0.98 1.26,-1.87 2.05,-2.67 0.79,-0.8 1.68,-1.48 2.65,-2.05 0.97,-0.57 2.02,-1.01 3.14,-1.32 1.12,-0.32 2.28,-0.47 3.49,-0.47 1.37,0 2.67,0.19 3.89,0.58 1.22,0.38 2.36,0.93 3.44,1.66z"/>
   <path class="fil1" d="M3126.33 1060.11c0,0.85 0.12,1.56 0.35,2.16 0.24,0.59 0.55,1.07 0.93,1.44 0.38,0.38 0.83,0.65 1.34,0.82 0.51,0.18 1.04,0.26 1.59,0.26 0.58,0 1.12,-0.1 1.63,-0.3 0.51,-0.2 0.96,-0.5 1.35,-0.89 0.38,-0.4 0.69,-0.89 0.91,-1.47 0.22,-0.59 0.33,-1.26 0.33,-2.01l0 -14.57c0,-0.2 0.08,-0.38 0.22,-0.53 0.15,-0.15 0.34,-0.22 0.58,-0.22l5.01 0c0.27,0 0.47,0.08 0.62,0.23 0.15,0.15 0.22,0.33 0.22,0.52l0 14.47c0,2 -0.3,3.69 -0.89,5.05 -0.59,1.36 -1.39,2.46 -2.38,3.29 -0.99,0.83 -2.15,1.43 -3.46,1.79 -1.31,0.36 -2.68,0.54 -4.13,0.54 -1.44,0 -2.82,-0.18 -4.13,-0.56 -1.32,-0.37 -2.47,-0.98 -3.47,-1.81 -0.99,-0.84 -1.79,-1.94 -2.37,-3.3 -0.59,-1.36 -0.89,-3.02 -0.89,-4.99l0 -14.47c0,-0.19 0.07,-0.37 0.2,-0.52 0.13,-0.15 0.29,-0.23 0.49,-0.23l5.14 0c0.17,0 0.35,0.07 0.54,0.22 0.18,0.15 0.28,0.32 0.28,0.54l0 14.57z"/>
   <path class="fil1" d="M3145.78 1045.53c0,-0.21 0.06,-0.39 0.2,-0.53 0.14,-0.15 0.33,-0.22 0.57,-0.22l5.08 0c0.2,0 0.38,0.07 0.53,0.21 0.16,0.14 0.25,0.32 0.26,0.55l0 18.67 9.44 0c0.21,0 0.39,0.07 0.53,0.21 0.15,0.14 0.22,0.32 0.22,0.56l0 4.51c0,0.2 -0.06,0.37 -0.19,0.53 -0.13,0.16 -0.32,0.25 -0.56,0.26l-15.32 0c-0.51,0 -0.75,-0.25 -0.75,-0.75l0 -23.99z"/>
   <path class="fil1" d="M3162.96 1045.55c0,-0.22 0.08,-0.41 0.23,-0.55 0.15,-0.14 0.35,-0.21 0.58,-0.21l18.46 0c0.2,0 0.39,0.06 0.55,0.18 0.15,0.13 0.25,0.32 0.27,0.57l0 4.26c0,0.21 -0.07,0.4 -0.21,0.59 -0.15,0.18 -0.35,0.28 -0.61,0.28l-5.92 0 0 18.79c0,0.21 -0.07,0.39 -0.22,0.56 -0.15,0.16 -0.34,0.25 -0.58,0.25l-5.04 0c-0.19,0 -0.38,-0.08 -0.55,-0.23 -0.17,-0.15 -0.25,-0.35 -0.25,-0.58l0 -18.79 -5.9 0c-0.23,0 -0.42,-0.07 -0.58,-0.22 -0.15,-0.15 -0.23,-0.37 -0.23,-0.65l0 -4.26z"/>
   <path class="fil1" d="M3193.76 1060.11c0,0.85 0.12,1.56 0.35,2.16 0.23,0.59 0.54,1.07 0.92,1.44 0.39,0.38 0.83,0.65 1.34,0.82 0.52,0.18 1.05,0.26 1.59,0.26 0.57,0 1.11,-0.1 1.63,-0.3 0.51,-0.2 0.96,-0.5 1.34,-0.89 0.39,-0.4 0.69,-0.89 0.91,-1.47 0.22,-0.59 0.34,-1.26 0.34,-2.01l0 -14.57c0,-0.2 0.07,-0.38 0.22,-0.53 0.14,-0.15 0.33,-0.22 0.57,-0.22l5.01 0c0.26,0 0.47,0.08 0.62,0.23 0.15,0.15 0.22,0.33 0.22,0.52l0 14.47c0,2 -0.29,3.69 -0.89,5.05 -0.59,1.36 -1.38,2.46 -2.37,3.29 -0.99,0.83 -2.15,1.43 -3.46,1.79 -1.31,0.36 -2.69,0.54 -4.13,0.54 -1.44,0 -2.82,-0.18 -4.14,-0.56 -1.32,-0.37 -2.47,-0.98 -3.47,-1.81 -0.99,-0.84 -1.79,-1.94 -2.38,-3.3 -0.59,-1.36 -0.88,-3.02 -0.88,-4.99l0 -14.47c0,-0.19 0.06,-0.37 0.19,-0.52 0.13,-0.15 0.29,-0.23 0.49,-0.23l5.13 0c0.17,0 0.35,0.07 0.54,0.22 0.18,0.15 0.29,0.32 0.29,0.54l0 14.57z"/>
   <path class="fil1" d="M3227.28 1053.2c0,-0.34 -0.06,-0.69 -0.18,-1.03 -0.13,-0.34 -0.31,-0.65 -0.54,-0.95 -0.22,-0.28 -0.5,-0.52 -0.82,-0.72 -0.32,-0.19 -0.67,-0.32 -1.06,-0.38 -0.32,-0.02 -0.62,-0.04 -0.9,-0.06 -0.28,-0.02 -0.59,-0.02 -0.92,-0.02l-2.36 0 0 6.3 3.16 0c0.21,0 0.39,-0.01 0.55,-0.02 0.16,-0.01 0.34,-0.02 0.53,-0.05 0.4,-0.05 0.76,-0.16 1.08,-0.35 0.32,-0.19 0.59,-0.42 0.81,-0.7 0.22,-0.29 0.39,-0.59 0.5,-0.95 0.12,-0.35 0.17,-0.71 0.17,-1.07zm-13.43 -7.62c0,-0.24 0.06,-0.43 0.18,-0.58 0.12,-0.14 0.32,-0.22 0.57,-0.22l11.08 0c1.18,0 2.28,0.22 3.31,0.66 1.02,0.44 1.93,1.04 2.7,1.79 0.76,0.75 1.36,1.64 1.81,2.65 0.44,1.02 0.65,2.1 0.65,3.24 0,0.78 -0.1,1.52 -0.32,2.23 -0.21,0.7 -0.5,1.36 -0.88,1.97 -0.39,0.61 -0.83,1.16 -1.36,1.66 -0.52,0.49 -1.09,0.92 -1.7,1.28l4.41 8.3c0.08,0.16 0.18,0.35 0.32,0.57 0.12,0.22 0.18,0.41 0.18,0.56 0,0.18 -0.06,0.32 -0.18,0.42 -0.12,0.1 -0.29,0.15 -0.49,0.15l-5.88 0c-0.19,0 -0.37,-0.06 -0.52,-0.17 -0.15,-0.12 -0.25,-0.27 -0.3,-0.47l-4.17 -7.84 -2.78 0 0 7.74c0,0.49 -0.26,0.74 -0.79,0.74l-5.09 0c-0.23,0 -0.42,-0.06 -0.55,-0.18 -0.13,-0.12 -0.2,-0.32 -0.2,-0.56l0 -23.96z"/>
   <path class="fil1" d="M3248.37 1052.81c-0.22,0.59 -0.44,1.21 -0.66,1.89 -0.22,0.68 -0.45,1.36 -0.66,2.04 -0.22,0.69 -0.43,1.36 -0.66,2.03 -0.22,0.67 -0.44,1.29 -0.65,1.88l5.27 0 -2.63 -7.84zm-3.12 -7.35c0.01,-0.06 0.05,-0.14 0.11,-0.22 0.06,-0.08 0.14,-0.15 0.23,-0.22 0.09,-0.08 0.19,-0.13 0.29,-0.17 0.1,-0.04 0.2,-0.06 0.29,-0.06l4.39 0c0.19,0 0.36,0.06 0.5,0.18 0.13,0.12 0.24,0.22 0.31,0.32l0.43 0.98 9 23.24c0.09,0.22 0.08,0.41 -0.05,0.55 -0.12,0.15 -0.34,0.22 -0.65,0.22l-4.92 0c-0.27,0 -0.47,-0.05 -0.62,-0.15 -0.14,-0.1 -0.25,-0.26 -0.33,-0.49 -0.23,-0.59 -0.45,-1.17 -0.67,-1.75 -0.22,-0.58 -0.43,-1.16 -0.65,-1.74l-9.11 0c-0.22,0.59 -0.45,1.16 -0.66,1.74 -0.22,0.58 -0.45,1.16 -0.66,1.75 -0.15,0.42 -0.45,0.63 -0.88,0.63l-5.06 0c-0.22,0 -0.4,-0.06 -0.54,-0.17 -0.15,-0.12 -0.17,-0.29 -0.08,-0.52l9.32 -24.13z"/>
   <path class="fil1" d="M2536.11 945.32c0,6.58 0.92,12.16 2.73,16.73 1.83,4.57 4.23,8.3 7.2,11.19 2.98,2.89 6.45,5 10.41,6.32 3.96,1.33 8.07,2 12.35,2 4.44,0 8.65,-0.78 12.6,-2.33 3.96,-1.56 7.43,-3.87 10.41,-6.92 2.98,-3.07 5.34,-6.86 7.07,-11.4 1.74,-4.53 2.6,-9.73 2.6,-15.59l0 -113c0,-1.6 0.55,-2.98 1.66,-4.13 1.11,-1.16 2.6,-1.74 4.46,-1.74l38.88 0c2.05,0 3.64,0.6 4.8,1.8 1.15,1.2 1.73,2.55 1.73,4.06l0 112.24c0,15.54 -2.3,28.59 -6.86,39.15 -4.57,10.57 -10.71,19.06 -18.44,25.5 -7.72,6.43 -16.66,11.05 -26.83,13.84 -10.16,2.8 -20.84,4.2 -32.02,4.2 -11.18,0 -21.88,-1.45 -32.09,-4.33 -10.21,-2.89 -19.17,-7.59 -26.89,-14.11 -7.73,-6.52 -13.87,-15.05 -18.44,-25.57 -4.57,-10.52 -6.86,-23.41 -6.86,-38.68l0 -112.24c0,-1.51 0.51,-2.86 1.53,-4.06 1.02,-1.2 2.28,-1.8 3.79,-1.8l39.84 0c1.32,0 2.72,0.56 4.18,1.67 1.46,1.11 2.19,2.51 2.19,4.2l0 113z"/>
   <path class="fil1" d="M2684.75 832.41c0,-1.63 0.49,-3.02 1.49,-4.19 0.99,-1.17 2.48,-1.76 4.46,-1.76l44.21 0c1.26,0 2.57,0.32 3.92,0.95 1.36,0.63 2.52,1.72 3.51,3.25 11.45,18.47 22.81,36.68 34.07,54.62 11.27,17.94 22.67,36.15 34.22,54.62l0 -108.3c0.35,-1.62 1.08,-2.88 2.16,-3.78 1.09,-0.9 2.35,-1.36 3.79,-1.36l38.53 0c1.89,0 3.47,0.52 4.74,1.56 1.26,1.04 1.89,2.5 1.89,4.4l0 189.56c0,1.8 -0.54,3.14 -1.62,3.99 -1.09,0.86 -2.57,1.29 -4.46,1.29l-43.14 0c-1.17,0 -2.21,-0.41 -3.11,-1.22 -0.9,-0.81 -1.85,-1.89 -2.83,-3.25 -11.99,-19.83 -23.84,-39.43 -35.56,-58.81 -11.72,-19.38 -23.62,-38.98 -35.7,-58.82l0 116.15c0,1.98 -0.45,3.47 -1.35,4.46 -0.9,0.99 -2.53,1.49 -4.87,1.49l-38.4 0c-2.07,0 -3.58,-0.56 -4.53,-1.69 -0.95,-1.12 -1.42,-2.5 -1.42,-4.12l0 -189.02z"/>
   <path class="fil1" d="M3224.63 883.86c-4.48,-3.17 -9.27,-5.62 -14.37,-7.38 -5.1,-1.76 -10.55,-2.63 -16.35,-2.63 -7.29,0 -13.97,1.38 -20.04,4.14 -6.05,2.77 -11.26,6.52 -15.61,11.27 -4.35,4.74 -7.76,10.31 -10.21,16.68 -2.46,6.37 -3.69,13.16 -3.69,20.36 0,7.21 1.23,13.97 3.69,20.3 2.46,6.32 5.86,11.84 10.21,16.54 4.35,4.7 9.56,8.41 15.61,11.14 6.07,2.73 12.74,4.08 20.04,4.08 3.07,0 6.13,-0.22 9.16,-0.65 3.03,-0.45 6.26,-1.01 9.69,-1.72l0 -34.52c0,-1.67 0.49,-3.06 1.45,-4.15 0.96,-1.1 2.41,-1.65 4.35,-1.65l35.84 0c1.32,0 2.73,0.52 4.22,1.58 1.49,1.06 2.24,2.46 2.24,4.22l0 63.79c0,2.37 -1.28,4.3 -3.83,5.79 -4.13,2.82 -8.7,5.23 -13.7,7.25 -5.01,2.03 -10.24,3.69 -15.68,5.01 -5.45,1.32 -10.96,2.31 -16.54,2.97 -5.58,0.66 -11.01,0.99 -16.28,0.99 -9.31,0 -18.26,-1.19 -26.82,-3.56 -8.57,-2.37 -16.58,-5.75 -24.05,-10.15 -7.47,-4.39 -14.26,-9.64 -20.36,-15.74 -6.12,-6.11 -11.36,-12.87 -15.75,-20.3 -4.4,-7.43 -7.78,-15.42 -10.14,-23.99 -2.38,-8.57 -3.57,-17.5 -3.57,-26.82 0,-9.31 1.19,-18.25 3.57,-26.82 2.36,-8.56 5.75,-16.6 10.14,-24.12 4.39,-7.51 9.64,-14.33 15.75,-20.49 6.1,-6.15 12.89,-11.4 20.36,-15.74 7.46,-4.35 15.48,-7.73 24.05,-10.15 8.57,-2.42 17.51,-3.63 26.82,-3.63 10.55,0 20.49,1.48 29.85,4.42 9.36,2.94 18.16,7.18 26.43,12.72 1.49,0.88 2.63,2.04 3.43,3.49 0.79,1.46 0.61,3.1 -0.53,4.95l-21.35 30.83c-1.14,1.41 -2.29,2.36 -3.43,2.83 -1.14,0.49 -2.68,0.12 -4.61,-1.12z"/>
   <path class="fil1" d="M3046.54 1016.03c26.9,-61.3 -64.43,-73.15 -81.59,-74.83 -1.15,-0.11 -1.94,1.12 -1.38,2.12 22.26,39.65 6.7,51.44 24.56,70.67 14.56,15.68 38.59,12.78 47.62,10.99 1.28,-0.25 1.56,-1.96 0.44,-2.63 -20.04,-12.02 -28.12,-26.04 -31.36,-34.82 -0.59,-1.59 1.59,-2.69 2.53,-1.29 13.66,20.27 25.24,28.19 31.81,31.28 0.07,0.03 0.18,0.12 0.26,0.14 1.27,0.45 2.65,0.7 3.98,0.45 1.33,-0.24 2.57,-0.86 3.12,-2.1z"/>
   <path class="fil1" d="M3088.21 1021.15l-70.98 -183.07 -3.17 -7.21c-0.14,-0.33 -0.32,-0.64 -0.55,-0.91 -0.52,-0.62 -1.22,-1.32 -2.1,-2.09 -1.08,-0.95 -2.39,-1.43 -3.92,-1.43l-34.61 0c-0.72,0 -1.49,0.16 -2.3,0.48 -0.81,0.32 -1.57,0.74 -2.3,1.29 -0.72,0.54 -1.32,1.12 -1.83,1.76 -0.49,0.63 -0.79,1.22 -0.88,1.76l-73.42 190.1c-0.72,1.8 -0.52,3.16 0.61,4.06 1.12,0.9 2.54,1.35 4.26,1.35l39.89 0c3.42,0 5.72,-1.66 6.89,-5 1.71,-4.6 3.45,-9.17 5.21,-13.73 1.76,-4.54 3.49,-9.12 5.21,-13.72l3.67 -10.51 7.12 -20.57c-1.96,-5.88 -4.84,-12.57 -9.21,-20.37 -1.28,-2.26 -1.26,-5.08 0.06,-7.32 1.32,-2.25 3.74,-3.64 6.34,-3.64 0.24,0 0.48,0.01 0.72,0.03 2.99,0.29 7.26,0.79 12.36,1.59l2.06 -5.96c0.81,-2.5 1.63,-4.95 2.43,-7.48 1.71,-5.41 3.44,-10.77 5.21,-16.09 0.45,-1.34 0.89,-2.66 1.32,-3.95 1.22,-3.6 6.34,-3.57 7.55,0.03l10.66 31.85 2.7 8.07 0.42 1.28c17.62,5.95 35.28,15.45 44.13,30.54 7.68,13.11 7.76,28.46 0.22,45.63 -0.39,0.89 -0.92,1.69 -1.56,2.4 -1.36,1.75 -3.4,2.93 -5.93,3.4 -0.25,0.05 -0.51,0.04 -0.76,0.07 3.02,1.76 6.87,3.55 12.97,3.45l25.96 0c2.43,0 4.14,-0.56 5.14,-1.69 0.99,-1.12 1.12,-2.59 0.4,-4.4z"/>
   <path class="fil1" d="M2491.22 1060.49c0,0.86 0.12,1.56 0.35,2.16 0.23,0.59 0.54,1.07 0.92,1.44 0.39,0.38 0.83,0.65 1.35,0.82 0.51,0.18 1.04,0.26 1.59,0.26 0.57,0 1.12,-0.1 1.63,-0.3 0.51,-0.2 0.96,-0.5 1.34,-0.89 0.39,-0.39 0.69,-0.89 0.91,-1.47 0.23,-0.59 0.34,-1.26 0.34,-2.01l0 -14.57c0,-0.2 0.07,-0.38 0.22,-0.52 0.14,-0.15 0.33,-0.23 0.58,-0.23l5.01 0c0.26,0 0.47,0.08 0.62,0.24 0.15,0.15 0.22,0.32 0.22,0.52l0 14.47c0,2 -0.29,3.68 -0.88,5.05 -0.59,1.36 -1.39,2.45 -2.38,3.28 -0.99,0.83 -2.15,1.43 -3.46,1.79 -1.31,0.36 -2.69,0.54 -4.13,0.54 -1.44,0 -2.82,-0.18 -4.14,-0.55 -1.31,-0.38 -2.47,-0.98 -3.47,-1.82 -0.99,-0.84 -1.79,-1.94 -2.38,-3.3 -0.59,-1.36 -0.88,-3.02 -0.88,-4.98l0 -14.47c0,-0.19 0.06,-0.37 0.19,-0.52 0.13,-0.16 0.29,-0.24 0.49,-0.24l5.14 0c0.17,0 0.35,0.08 0.53,0.22 0.19,0.15 0.29,0.32 0.29,0.54l0 14.57z"/>
  </g>
  <path class="fil1" d="M514.33 1466.08c-7.74,0 -15.22,-1.09 -22.44,-3.3 -7.22,-2.2 -12.93,-5.11 -17.13,-8.74l6.45 -14.48c4.11,3.25 9.15,5.9 15.12,7.96 5.98,2.06 11.97,3.08 17.99,3.08 7.46,0 13.03,-1.19 16.71,-3.58 3.67,-2.39 5.52,-5.55 5.52,-9.47 0,-2.87 -1.02,-5.23 -3.08,-7.09 -2.06,-1.86 -4.66,-3.32 -7.82,-4.38 -3.15,-1.05 -7.45,-2.24 -12.9,-3.58 -7.64,-1.82 -13.83,-3.64 -18.56,-5.45 -4.73,-1.82 -8.79,-4.66 -12.19,-8.53 -3.4,-3.87 -5.09,-9.1 -5.09,-15.7 0,-5.55 1.51,-10.58 4.51,-15.13 3.01,-4.54 7.56,-8.15 13.63,-10.82 6.06,-2.68 13.5,-4.01 22.29,-4.01 6.12,0 12.14,0.76 18.06,2.29 5.92,1.53 11.04,3.73 15.34,6.6l-5.88 14.48c-4.4,-2.58 -8.99,-4.54 -13.76,-5.88 -4.78,-1.33 -9.41,-2 -13.91,-2 -7.36,0 -12.83,1.24 -16.41,3.73 -3.58,2.49 -5.38,5.78 -5.38,9.89 0,2.87 1.02,5.21 3.08,7.02 2.06,1.82 4.66,3.25 7.82,4.31 3.15,1.05 7.46,2.24 12.9,3.58 7.46,1.72 13.57,3.51 18.36,5.38 4.78,1.86 8.86,4.71 12.26,8.53 3.39,3.82 5.09,8.98 5.09,15.48 0,5.55 -1.51,10.56 -4.52,15.05 -3.01,4.5 -7.57,8.08 -13.69,10.75 -6.12,2.68 -13.57,4.01 -22.37,4.01zm134.35 -17.06l0 15.63 -75.27 0 0 -100.36 73.26 0 0 15.63 -54.63 0 0 26.09 48.47 0 0 15.34 -48.47 0 0 27.67 56.64 0zm66.81 17.06c-10.13,0 -19.28,-2.22 -27.45,-6.66 -8.17,-4.44 -14.57,-10.58 -19.21,-18.43 -4.64,-7.83 -6.96,-16.68 -6.96,-26.52 0,-9.85 2.34,-18.69 7.02,-26.53 4.68,-7.84 11.12,-13.98 19.29,-18.43 8.17,-4.44 17.32,-6.66 27.45,-6.66 8.22,0 15.72,1.43 22.51,4.3 6.79,2.87 12.52,7.02 17.21,12.47l-12.05 11.33c-7.26,-7.84 -16.2,-11.75 -26.81,-11.75 -6.89,0 -13.05,1.5 -18.49,4.51 -5.45,3.01 -9.71,7.19 -12.76,12.55 -3.06,5.35 -4.58,11.42 -4.58,18.21 0,6.79 1.53,12.86 4.58,18.2 3.06,5.35 7.31,9.54 12.76,12.55 5.45,3.01 11.61,4.52 18.49,4.52 10.61,0 19.54,-3.97 26.81,-11.9l12.05 11.47c-4.68,5.45 -10.45,9.61 -17.28,12.47 -6.83,2.87 -14.36,4.3 -22.58,4.3zm123.45 -1.43l-20.5 -29.39c-0.86,0.09 -2.15,0.14 -3.87,0.14l-22.65 0 0 29.25 -18.63 0 0 -100.36 41.29 0c8.7,0 16.28,1.43 22.72,4.3 6.45,2.87 11.4,6.98 14.84,12.33 3.44,5.35 5.16,11.71 5.16,19.07 0,7.55 -1.84,14.05 -5.52,19.5 -3.67,5.45 -8.96,9.51 -15.84,12.19l23.09 32.98 -20.07 0zm-0.42 -64.66c0,-6.41 -2.1,-11.33 -6.32,-14.77 -4.2,-3.44 -10.37,-5.16 -18.49,-5.16l-21.8 0 0 40.01 21.8 0c8.12,0 14.29,-1.75 18.49,-5.24 4.21,-3.49 6.32,-8.43 6.32,-14.84zm114.84 49.03l0 15.63 -75.27 0 0 -100.36 73.26 0 0 15.63 -54.63 0 0 26.09 48.47 0 0 15.34 -48.47 0 0 27.67 56.64 0zm41.15 -68.96l-33.27 0 0 -15.77 85.16 0 0 15.77 -33.26 0 0 84.59 -18.63 0 0 -84.59zm126.02 61.37l-50.18 0 -9.89 23.22 -19.22 0 45.16 -100.36 18.36 0 45.31 100.36 -19.5 0 -10.04 -23.22zm-6.16 -14.63l-18.93 -43.87 -18.78 43.87 37.71 0zm114.13 37.85l-20.5 -29.39c-0.86,0.09 -2.15,0.14 -3.87,0.14l-22.65 0 0 29.25 -18.64 0 0 -100.36 41.29 0c8.7,0 16.28,1.43 22.72,4.3 6.45,2.87 11.4,6.98 14.84,12.33 3.44,5.35 5.16,11.71 5.16,19.07 0,7.55 -1.84,14.05 -5.52,19.5 -3.67,5.45 -8.96,9.51 -15.84,12.19l23.09 32.98 -20.07 0zm-0.43 -64.66c0,-6.41 -2.1,-11.33 -6.31,-14.77 -4.21,-3.44 -10.37,-5.16 -18.49,-5.16l-21.8 0 0 40.01 21.8 0c8.12,0 14.28,-1.75 18.49,-5.24 4.21,-3.49 6.31,-8.43 6.31,-14.84zm39.58 -35.7l18.63 0 0 100.36 -18.63 0 0 -100.36zm16.63 -27.81l21.07 0 -24.95 19.64 -15.48 0 19.36 -19.64zm94.2 104.95l-50.18 0 -9.89 23.22 -19.21 0 45.16 -100.36 18.35 0 45.31 100.36 -19.5 0 -10.03 -23.22zm-6.17 -14.63l-18.93 -43.87 -18.78 43.87 37.71 0zm88.04 -62.51l43.87 0c10.71,0 20.22,2.08 28.53,6.23 8.32,4.16 14.77,10.04 19.36,17.64 4.59,7.6 6.89,16.37 6.89,26.31 0,9.94 -2.3,18.71 -6.89,26.31 -4.58,7.6 -11.04,13.48 -19.36,17.64 -8.31,4.15 -17.82,6.23 -28.53,6.23l-43.87 0 0 -100.36zm43.01 84.59c7.36,0 13.83,-1.41 19.43,-4.23 5.59,-2.82 9.89,-6.83 12.9,-12.05 3.01,-5.21 4.51,-11.25 4.51,-18.13 0,-6.89 -1.5,-12.93 -4.51,-18.14 -3.01,-5.21 -7.31,-9.23 -12.9,-12.05 -5.59,-2.82 -12.07,-4.23 -19.43,-4.23l-24.38 0 0 68.82 24.38 0zm150.68 0.14l0 15.63 -75.27 0 0 -100.36 73.26 0 0 15.63 -54.62 0 0 26.09 48.46 0 0 15.34 -48.46 0 0 27.67 56.63 0zm80.73 -68.96l-33.27 0 0 -15.77 85.16 0 0 15.77 -33.26 0 0 84.59 -18.63 0 0 -84.59zm141.22 68.96l0 15.63 -75.27 0 0 -100.36 73.27 0 0 15.63 -54.63 0 0 26.09 48.47 0 0 15.34 -48.47 0 0 27.67 56.63 0zm66.81 17.06c-10.13,0 -19.28,-2.22 -27.45,-6.66 -8.17,-4.44 -14.58,-10.58 -19.21,-18.43 -4.64,-7.83 -6.96,-16.68 -6.96,-26.52 0,-9.85 2.34,-18.69 7.02,-26.53 4.68,-7.84 11.11,-13.98 19.28,-18.43 8.17,-4.44 17.32,-6.66 27.46,-6.66 8.22,0 15.72,1.43 22.51,4.3 6.79,2.87 12.52,7.02 17.21,12.47l-12.05 11.33c-7.26,-7.84 -16.2,-11.75 -26.81,-11.75 -6.88,0 -13.04,1.5 -18.49,4.51 -5.45,3.01 -9.71,7.19 -12.76,12.55 -3.06,5.35 -4.59,11.42 -4.59,18.21 0,6.79 1.53,12.86 4.59,18.2 3.06,5.35 7.31,9.54 12.76,12.55 5.45,3.01 11.61,4.52 18.49,4.52 10.61,0 19.55,-3.97 26.81,-11.9l12.05 11.47c-4.69,5.45 -10.45,9.61 -17.28,12.47 -6.83,2.87 -14.37,4.3 -22.58,4.3zm146.96 -101.79l0 100.36 -15.34 0 -55.34 -67.96 0 67.96 -18.5 0 0 -100.36 15.34 0 55.34 67.96 0 -67.96 18.49 0zm73.83 101.79c-10.22,0 -19.45,-2.22 -27.67,-6.66 -8.22,-4.44 -14.67,-10.61 -19.36,-18.49 -4.68,-7.89 -7.02,-16.71 -7.02,-26.45 0,-9.75 2.34,-18.57 7.02,-26.46 4.68,-7.89 11.14,-14.05 19.36,-18.49 8.22,-4.44 17.45,-6.66 27.67,-6.66 10.23,0 19.45,2.22 27.68,6.66 8.22,4.44 14.67,10.58 19.36,18.43 4.68,7.84 7.02,16.68 7.02,26.53 0,9.84 -2.33,18.69 -7.02,26.52 -4.68,7.84 -11.14,13.98 -19.36,18.43 -8.23,4.44 -17.45,6.66 -27.68,6.66zm0 -16.34c6.69,0 12.72,-1.51 18.07,-4.52 5.35,-3.01 9.55,-7.22 12.62,-12.62 3.06,-5.4 4.58,-11.45 4.58,-18.13 0,-6.69 -1.53,-12.74 -4.58,-18.14 -3.07,-5.4 -7.27,-9.61 -12.62,-12.62 -5.35,-3.01 -11.38,-4.51 -18.07,-4.51 -6.69,0 -12.71,1.5 -18.06,4.51 -5.35,3.01 -9.56,7.22 -12.62,12.62 -3.06,5.4 -4.59,11.45 -4.59,18.14 0,6.69 1.53,12.73 4.59,18.13 3.06,5.4 7.26,9.61 12.62,12.62 5.35,3.01 11.38,4.52 18.06,4.52zm73.84 -85.46l18.64 0 0 84.59 52.47 0 0 15.77 -71.11 0 0 -100.36zm130.9 101.79c-10.23,0 -19.45,-2.22 -27.67,-6.66 -8.23,-4.44 -14.67,-10.61 -19.36,-18.49 -4.68,-7.89 -7.02,-16.71 -7.02,-26.45 0,-9.75 2.34,-18.57 7.02,-26.46 4.68,-7.89 11.13,-14.05 19.36,-18.49 8.22,-4.44 17.44,-6.66 27.67,-6.66 10.23,0 19.45,2.22 27.67,6.66 8.22,4.44 14.67,10.58 19.36,18.43 4.68,7.84 7.02,16.68 7.02,26.53 0,9.84 -2.34,18.69 -7.02,26.52 -4.68,7.84 -11.14,13.98 -19.36,18.43 -8.22,4.44 -17.44,6.66 -27.67,6.66zm0 -16.34c6.69,0 12.71,-1.51 18.06,-4.52 5.35,-3.01 9.56,-7.22 12.62,-12.62 3.06,-5.4 4.59,-11.45 4.59,-18.13 0,-6.69 -1.53,-12.74 -4.59,-18.14 -3.06,-5.4 -7.26,-9.61 -12.62,-12.62 -5.35,-3.01 -11.37,-4.51 -18.06,-4.51 -6.69,0 -12.71,1.5 -18.06,4.51 -5.35,3.01 -9.56,7.22 -12.62,12.62 -3.06,5.4 -4.59,11.45 -4.59,18.14 0,6.69 1.53,12.73 4.59,18.13 3.06,5.4 7.26,9.61 12.62,12.62 5.35,3.01 11.37,4.52 18.06,4.52zm142.37 -36.42l17.63 0 0 40c-5.16,4.11 -11.18,7.26 -18.06,9.46 -6.88,2.2 -13.96,3.3 -21.22,3.3 -10.22,0 -19.45,-2.22 -27.67,-6.66 -8.22,-4.44 -14.67,-10.58 -19.36,-18.43 -4.68,-7.83 -7.02,-16.68 -7.02,-26.52 0,-9.85 2.34,-18.69 7.02,-26.53 4.68,-7.84 11.16,-13.98 19.43,-18.43 8.27,-4.44 17.56,-6.66 27.89,-6.66 8.41,0 16.05,1.39 22.94,4.15 6.88,2.77 12.66,6.84 17.35,12.19l-11.75 11.47c-7.65,-7.65 -16.88,-11.47 -27.68,-11.47 -7.07,0 -13.36,1.48 -18.86,4.44 -5.49,2.96 -9.79,7.12 -12.9,12.47 -3.1,5.35 -4.65,11.47 -4.65,18.36 0,6.69 1.55,12.71 4.65,18.06 3.11,5.35 7.41,9.56 12.9,12.62 5.5,3.06 11.74,4.59 18.72,4.59 7.83,0 14.71,-1.73 20.64,-5.17l0 -31.25zm42.15 -49.04l18.64 0 0 100.36 -18.64 0 0 -100.36zm16.63 -27.81l21.07 0 -24.94 19.64 -15.48 0 19.35 -19.64zm94.2 104.95l-50.18 0 -9.89 23.22 -19.21 0 45.16 -100.36 18.35 0 45.32 100.36 -19.5 0 -10.04 -23.22zm-6.16 -14.63l-18.93 -43.87 -18.78 43.87 37.71 0zm79.57 39.28c-7.74,0 -15.22,-1.09 -22.44,-3.3 -7.22,-2.2 -12.93,-5.11 -17.13,-8.74l6.45 -14.48c4.11,3.25 9.15,5.9 15.13,7.96 5.98,2.06 11.97,3.08 17.99,3.08 7.46,0 13.03,-1.19 16.71,-3.58 3.67,-2.39 5.52,-5.55 5.52,-9.47 0,-2.87 -1.02,-5.23 -3.08,-7.09 -2.06,-1.86 -4.66,-3.32 -7.82,-4.38 -3.15,-1.05 -7.45,-2.24 -12.9,-3.58 -7.64,-1.82 -13.83,-3.64 -18.56,-5.45 -4.73,-1.82 -8.8,-4.66 -12.19,-8.53 -3.4,-3.87 -5.09,-9.1 -5.09,-15.7 0,-5.55 1.5,-10.58 4.51,-15.13 3.01,-4.54 7.56,-8.15 13.63,-10.82 6.07,-2.68 13.5,-4.01 22.29,-4.01 6.12,0 12.14,0.76 18.06,2.29 5.93,1.53 11.05,3.73 15.34,6.6l-5.88 14.48c-4.4,-2.58 -8.99,-4.54 -13.76,-5.88 -4.78,-1.33 -9.41,-2 -13.91,-2 -7.36,0 -12.83,1.24 -16.41,3.73 -3.58,2.49 -5.38,5.78 -5.38,9.89 0,2.87 1.03,5.21 3.08,7.02 2.06,1.82 4.66,3.25 7.82,4.31 3.15,1.05 7.46,2.24 12.9,3.58 7.46,1.72 13.57,3.51 18.35,5.38 4.78,1.86 8.87,4.71 12.26,8.53 3.39,3.82 5.09,8.98 5.09,15.48 0,5.55 -1.51,10.56 -4.52,15.05 -3.01,4.5 -7.57,8.08 -13.69,10.75 -6.12,2.68 -13.57,4.01 -22.37,4.01zm-2689.7 58.85l43.88 0c10.71,0 20.21,2.08 28.53,6.24 8.31,4.16 14.77,10.04 19.36,17.63 4.58,7.6 6.88,16.38 6.88,26.31 0,9.94 -2.3,18.71 -6.88,26.31 -4.59,7.6 -11.05,13.47 -19.36,17.63 -8.32,4.16 -17.82,6.24 -28.53,6.24l-43.88 0 0 -100.37zm43.01 84.6c7.36,0 13.83,-1.42 19.43,-4.24 5.59,-2.82 9.89,-6.83 12.9,-12.04 3.01,-5.21 4.52,-11.25 4.52,-18.14 0,-6.88 -1.51,-12.93 -4.52,-18.14 -3.01,-5.21 -7.31,-9.22 -12.9,-12.04 -5.59,-2.82 -12.06,-4.23 -19.43,-4.23l-24.37 0 0 68.82 24.37 0zm150.69 0.14l0 15.63 -75.27 0 0 -100.37 73.26 0 0 15.63 -54.63 0 0 26.1 48.47 0 0 15.34 -48.47 0 0 27.67 56.64 0zm60.36 -84.74l18.63 0 0 84.6 52.48 0 0 15.77 -71.11 0 0 -100.37zm151.68 77.14l-50.18 0 -9.89 23.23 -19.22 0 45.16 -100.37 18.36 0 45.31 100.37 -19.5 0 -10.04 -23.23zm-6.16 -14.62l-18.93 -43.88 -18.78 43.88 37.71 0zm88.04 -62.52l18.63 0 0 100.37 -18.63 0 0 -100.37zm134.92 0l0 100.37 -15.34 0 -55.34 -67.96 0 67.96 -18.49 0 0 -100.37 15.34 0 55.34 67.96 0 -67.96 18.5 0zm45.59 15.63l0 30.54 48.47 0 0 15.77 -48.47 0 0 38.43 -18.63 0 0 -100.37 73.26 0 0 15.63 -54.63 0zm118.43 86.17c-10.23,0 -19.45,-2.22 -27.67,-6.67 -8.23,-4.44 -14.67,-10.61 -19.36,-18.49 -4.68,-7.88 -7.02,-16.7 -7.02,-26.45 0,-9.75 2.34,-18.56 7.02,-26.45 4.68,-7.89 11.13,-14.05 19.36,-18.49 8.22,-4.44 17.44,-6.67 27.67,-6.67 10.23,0 19.45,2.23 27.67,6.67 8.23,4.44 14.67,10.58 19.36,18.43 4.68,7.83 7.02,16.68 7.02,26.52 0,9.84 -2.34,18.69 -7.02,26.53 -4.68,7.83 -11.13,13.98 -19.36,18.42 -8.22,4.45 -17.44,6.67 -27.67,6.67zm0 -16.35c6.69,0 12.71,-1.5 18.06,-4.51 5.35,-3.01 9.56,-7.22 12.62,-12.62 3.06,-5.4 4.59,-11.45 4.59,-18.14 0,-6.69 -1.53,-12.73 -4.59,-18.14 -3.06,-5.4 -7.26,-9.61 -12.62,-12.61 -5.35,-3.01 -11.37,-4.52 -18.06,-4.52 -6.69,0 -12.71,1.51 -18.06,4.52 -5.35,3 -9.56,7.21 -12.62,12.61 -3.06,5.41 -4.59,11.45 -4.59,18.14 0,6.69 1.53,12.74 4.59,18.14 3.06,5.4 7.26,9.61 12.62,12.62 5.35,3.01 11.38,4.51 18.06,4.51zm139.51 14.91l-20.5 -29.39c-0.86,0.1 -2.15,0.15 -3.87,0.15l-22.66 0 0 29.25 -18.63 0 0 -100.37 41.29 0c8.7,0 16.27,1.44 22.72,4.31 6.45,2.87 11.39,6.98 14.84,12.33 3.44,5.35 5.16,11.71 5.16,19.06 0,7.56 -1.84,14.05 -5.52,19.5 -3.68,5.45 -8.97,9.51 -15.84,12.19l23.08 32.98 -20.07 0zm-0.43 -64.67c0,-6.4 -2.1,-11.32 -6.31,-14.77 -4.21,-3.44 -10.37,-5.16 -18.49,-5.16l-21.8 0 0 40 21.8 0c8.13,0 14.29,-1.74 18.49,-5.23 4.21,-3.49 6.31,-8.43 6.31,-14.84zm131.76 64.67l-0.14 -66.53 -32.98 55.06 -8.32 0 -32.98 -54.2 0 65.67 -17.78 0 0 -100.37 15.34 0 39.85 66.53 39.15 -66.53 15.34 0 0.15 100.37 -17.64 0zm109.83 -23.23l-50.18 0 -9.89 23.23 -19.21 0 45.16 -100.37 18.36 0 45.3 100.37 -19.5 0 -10.04 -23.23zm-6.16 -14.62l-18.93 -43.88 -18.79 43.88 37.71 0zm93.47 39.28c-10.13,0 -19.28,-2.22 -27.45,-6.67 -8.17,-4.44 -14.58,-10.58 -19.21,-18.42 -4.64,-7.84 -6.96,-16.68 -6.96,-26.53 0,-9.84 2.34,-18.69 7.02,-26.52 4.68,-7.84 11.11,-13.98 19.29,-18.43 8.17,-4.44 17.32,-6.67 27.45,-6.67 8.22,0 15.72,1.43 22.51,4.31 6.79,2.87 12.52,7.02 17.21,12.47l-12.05 11.32c-7.26,-7.83 -16.2,-11.75 -26.81,-11.75 -6.89,0 -13.05,1.51 -18.49,4.52 -5.45,3 -9.71,7.19 -12.76,12.54 -3.06,5.35 -4.59,11.42 -4.59,18.21 0,6.79 1.53,12.86 4.59,18.21 3.06,5.35 7.31,9.54 12.76,12.55 5.45,3.01 11.61,4.51 18.49,4.51 10.61,0 19.54,-3.97 26.81,-11.9l12.05 11.47c-4.68,5.45 -10.45,9.61 -17.28,12.48 -6.83,2.87 -14.36,4.3 -22.58,4.3zm57.78 -101.8l18.64 0 0 100.37 -18.64 0 0 -100.37zm92.63 101.8c-10.23,0 -19.46,-2.22 -27.68,-6.67 -8.22,-4.44 -14.67,-10.61 -19.36,-18.49 -4.68,-7.88 -7.02,-16.7 -7.02,-26.45 0,-9.75 2.35,-18.56 7.02,-26.45 4.68,-7.89 11.14,-14.05 19.36,-18.49 8.22,-4.44 17.45,-6.67 27.68,-6.67 10.22,0 19.45,2.23 27.67,6.67 8.22,4.44 14.67,10.58 19.36,18.43 4.68,7.83 7.02,16.68 7.02,26.52 0,9.84 -2.34,18.69 -7.02,26.53 -4.68,7.83 -11.14,13.98 -19.36,18.42 -8.22,4.45 -17.45,6.67 -27.67,6.67zm0 -16.35c6.69,0 12.71,-1.5 18.06,-4.51 5.35,-3.01 9.56,-7.22 12.62,-12.62 3.06,-5.4 4.59,-11.45 4.59,-18.14 0,-6.69 -1.53,-12.73 -4.59,-18.14 -3.06,-5.4 -7.26,-9.61 -12.62,-12.61 -5.35,-3.01 -11.38,-4.52 -18.06,-4.52 -6.69,0 -12.72,1.51 -18.07,4.52 -5.35,3 -9.55,7.21 -12.62,12.61 -3.06,5.41 -4.58,11.45 -4.58,18.14 0,6.69 1.53,12.74 4.58,18.14 3.07,5.4 7.26,9.61 12.62,12.62 5.35,3.01 11.38,4.51 18.07,4.51zm7.31 -113.27l21.07 0 -24.95 19.64 -15.48 0 19.36 -19.64zm155.71 27.81l0 100.37 -15.34 0 -55.34 -67.96 0 67.96 -18.5 0 0 -100.37 15.34 0 55.34 67.96 0 -67.96 18.49 0zm109.83 64.95l0 35.42 -18.64 0 0 -35.12 -39.43 -65.24 19.93 0 29.39 48.9 29.68 -48.9 18.35 0 -39.28 64.95zm137.5 36.85c-10.14,0 -19.29,-2.22 -27.46,-6.67 -8.17,-4.44 -14.57,-10.58 -19.21,-18.42 -4.64,-7.84 -6.96,-16.68 -6.96,-26.53 0,-9.84 2.34,-18.69 7.02,-26.52 4.68,-7.84 11.12,-13.98 19.29,-18.43 8.17,-4.44 17.32,-6.67 27.45,-6.67 8.23,0 15.73,1.43 22.52,4.31 6.78,2.87 12.52,7.02 17.2,12.47l-12.05 11.32c-7.26,-7.83 -16.2,-11.75 -26.81,-11.75 -6.89,0 -13.05,1.51 -18.49,4.52 -5.45,3 -9.71,7.19 -12.76,12.54 -3.06,5.35 -4.58,11.42 -4.58,18.21 0,6.79 1.53,12.86 4.58,18.21 3.06,5.35 7.31,9.54 12.76,12.55 5.45,3.01 11.61,4.51 18.49,4.51 10.61,0 19.54,-3.97 26.81,-11.9l12.05 11.47c-4.68,5.45 -10.45,9.61 -17.28,12.48 -6.83,2.87 -14.36,4.3 -22.58,4.3zm102.51 0c-10.23,0 -19.45,-2.22 -27.67,-6.67 -8.23,-4.44 -14.67,-10.61 -19.36,-18.49 -4.68,-7.88 -7.02,-16.7 -7.02,-26.45 0,-9.75 2.34,-18.56 7.02,-26.45 4.68,-7.89 11.13,-14.05 19.36,-18.49 8.22,-4.44 17.44,-6.67 27.67,-6.67 10.23,0 19.45,2.23 27.67,6.67 8.22,4.44 14.67,10.58 19.36,18.43 4.68,7.83 7.02,16.68 7.02,26.52 0,9.84 -2.34,18.69 -7.02,26.53 -4.68,7.83 -11.14,13.98 -19.36,18.42 -8.22,4.45 -17.44,6.67 -27.67,6.67zm0 -16.35c6.69,0 12.71,-1.5 18.06,-4.51 5.35,-3.01 9.56,-7.22 12.62,-12.62 3.06,-5.4 4.59,-11.45 4.59,-18.14 0,-6.69 -1.53,-12.73 -4.59,-18.14 -3.06,-5.4 -7.26,-9.61 -12.62,-12.61 -5.35,-3.01 -11.37,-4.52 -18.06,-4.52 -6.69,0 -12.71,1.51 -18.06,4.52 -5.35,3 -9.56,7.21 -12.62,12.61 -3.06,5.41 -4.59,11.45 -4.59,18.14 0,6.69 1.53,12.74 4.59,18.14 3.06,5.4 7.26,9.61 12.62,12.62 5.35,3.01 11.37,4.51 18.06,4.51zm166.03 14.91l-0.14 -66.53 -32.98 55.06 -8.31 0 -32.98 -54.2 0 65.67 -17.78 0 0 -100.37 15.34 0 39.85 66.53 39.14 -66.53 15.34 0 0.15 100.37 -17.64 0zm87.89 1.43c-13.86,0 -24.66,-3.89 -32.4,-11.69 -7.75,-7.79 -11.62,-18.95 -11.62,-33.48l0 -56.64 18.63 0 0 55.92c0,19.69 8.51,29.53 25.53,29.53 16.92,0 25.37,-9.84 25.37,-29.53l0 -55.92 18.36 0 0 56.64c0,14.53 -3.85,25.69 -11.55,33.48 -7.7,7.8 -18.47,11.69 -32.33,11.69zm159.15 -101.8l0 100.37 -15.34 0 -55.34 -67.96 0 67.96 -18.5 0 0 -100.37 15.34 0 55.34 67.96 0 -67.96 18.49 0zm26.95 0l18.63 0 0 100.37 -18.63 0 0 -100.37zm92.19 101.8c-10.13,0 -19.28,-2.22 -27.45,-6.67 -8.17,-4.44 -14.58,-10.58 -19.21,-18.42 -4.64,-7.84 -6.96,-16.68 -6.96,-26.53 0,-9.84 2.34,-18.69 7.02,-26.52 4.68,-7.84 11.11,-13.98 19.28,-18.43 8.17,-4.44 17.32,-6.67 27.46,-6.67 8.22,0 15.72,1.43 22.51,4.31 6.79,2.87 12.52,7.02 17.21,12.47l-12.05 11.32c-7.26,-7.83 -16.2,-11.75 -26.81,-11.75 -6.88,0 -13.04,1.51 -18.49,4.52 -5.45,3 -9.7,7.19 -12.76,12.54 -3.06,5.35 -4.59,11.42 -4.59,18.21 0,6.79 1.53,12.86 4.59,18.21 3.06,5.35 7.31,9.54 12.76,12.55 5.45,3.01 11.62,4.51 18.49,4.51 10.61,0 19.55,-3.97 26.81,-11.9l12.05 11.47c-4.69,5.45 -10.45,9.61 -17.28,12.48 -6.84,2.87 -14.37,4.3 -22.58,4.3zm120.72 -24.66l-50.18 0 -9.9 23.23 -19.21 0 45.16 -100.37 18.36 0 45.31 100.37 -19.5 0 -10.04 -23.23zm-6.16 -14.62l-18.93 -43.88 -18.78 43.88 37.71 0zm93.48 39.28c-10.14,0 -19.29,-2.22 -27.46,-6.67 -8.17,-4.44 -14.57,-10.58 -19.21,-18.42 -4.64,-7.84 -6.96,-16.68 -6.96,-26.53 0,-9.84 2.34,-18.69 7.02,-26.52 4.68,-7.84 11.12,-13.98 19.29,-18.43 8.17,-4.44 17.32,-6.67 27.45,-6.67 8.23,0 15.73,1.43 22.52,4.31 6.79,2.87 12.52,7.02 17.2,12.47l-12.04 11.32c-7.26,-7.83 -16.21,-11.75 -26.81,-11.75 -6.89,0 -13.05,1.51 -18.49,4.52 -5.45,3 -9.7,7.19 -12.76,12.54 -3.06,5.35 -4.58,11.42 -4.58,18.21 0,6.79 1.53,12.86 4.58,18.21 3.07,5.35 7.32,9.54 12.76,12.55 5.45,3.01 11.61,4.51 18.49,4.51 10.61,0 19.55,-3.97 26.81,-11.9l12.04 11.47c-4.68,5.45 -10.44,9.61 -17.28,12.48 -6.83,2.87 -14.36,4.3 -22.58,4.3zm57.78 -101.8l18.64 0 0 100.37 -18.64 0 0 -100.37zm92.62 101.8c-10.23,0 -19.45,-2.22 -27.67,-6.67 -8.23,-4.44 -14.67,-10.61 -19.36,-18.49 -4.68,-7.88 -7.02,-16.7 -7.02,-26.45 0,-9.75 2.34,-18.56 7.02,-26.45 4.68,-7.89 11.13,-14.05 19.36,-18.49 8.22,-4.44 17.44,-6.67 27.67,-6.67 10.23,0 19.45,2.23 27.67,6.67 8.22,4.44 14.67,10.58 19.36,18.43 4.68,7.83 7.02,16.68 7.02,26.52 0,9.84 -2.34,18.69 -7.02,26.53 -4.68,7.83 -11.14,13.98 -19.36,18.42 -8.22,4.45 -17.44,6.67 -27.67,6.67zm0 -16.35c6.69,0 12.71,-1.5 18.06,-4.51 5.35,-3.01 9.56,-7.22 12.62,-12.62 3.06,-5.4 4.59,-11.45 4.59,-18.14 0,-6.69 -1.53,-12.73 -4.59,-18.14 -3.06,-5.4 -7.26,-9.61 -12.62,-12.61 -5.35,-3.01 -11.37,-4.52 -18.06,-4.52 -6.69,0 -12.72,1.51 -18.06,4.52 -5.35,3 -9.56,7.21 -12.62,12.61 -3.06,5.41 -4.59,11.45 -4.59,18.14 0,6.69 1.53,12.74 4.59,18.14 3.06,5.4 7.26,9.61 12.62,12.62 5.35,3.01 11.37,4.51 18.06,4.51zm163.02 -85.46l0 100.37 -15.34 0 -55.34 -67.96 0 67.96 -18.49 0 0 -100.37 15.34 0 55.34 67.96 0 -67.96 18.49 0zm102.22 84.74l0 15.63 -75.27 0 0 -100.37 73.27 0 0 15.63 -54.63 0 0 26.1 48.46 0 0 15.34 -48.46 0 0 27.67 56.63 0zm51.9 17.06c-7.74,0 -15.22,-1.1 -22.44,-3.3 -7.22,-2.2 -12.93,-5.11 -17.13,-8.74l6.45 -14.49c4.11,3.25 9.16,5.91 15.13,7.96 5.98,2.05 11.98,3.08 17.99,3.08 7.46,0 13.03,-1.19 16.71,-3.59 3.67,-2.39 5.52,-5.54 5.52,-9.46 0,-2.87 -1.02,-5.23 -3.08,-7.09 -2.06,-1.86 -4.66,-3.33 -7.82,-4.38 -3.15,-1.06 -7.45,-2.25 -12.9,-3.59 -7.64,-1.81 -13.83,-3.63 -18.56,-5.45 -4.73,-1.82 -8.8,-4.66 -12.19,-8.53 -3.4,-3.87 -5.09,-9.1 -5.09,-15.71 0,-5.54 1.5,-10.58 4.51,-15.12 3.01,-4.54 7.56,-8.15 13.63,-10.83 6.07,-2.67 13.5,-4.01 22.29,-4.01 6.12,0 12.14,0.76 18.06,2.3 5.93,1.53 11.05,3.73 15.34,6.59l-5.88 14.48c-4.4,-2.58 -8.99,-4.54 -13.76,-5.88 -4.78,-1.34 -9.41,-2.01 -13.91,-2.01 -7.36,0 -12.83,1.25 -16.41,3.73 -3.58,2.49 -5.38,5.78 -5.38,9.9 0,2.87 1.03,5.21 3.08,7.02 2.06,1.82 4.66,3.25 7.82,4.3 3.15,1.06 7.46,2.25 12.9,3.59 7.46,1.72 13.57,3.51 18.35,5.38 4.78,1.86 8.87,4.71 12.26,8.53 3.4,3.83 5.09,8.99 5.09,15.48 0,5.55 -1.51,10.57 -4.52,15.06 -3,4.49 -7.57,8.08 -13.69,10.75 -6.12,2.67 -13.57,4.01 -22.37,4.01z"/>
 </g>
</svg>
