<?xml version="1.0" encoding="UTF-8"?>
<!DOCTYPE svg PUBLIC "-//W3C//DTD SVG 1.1//EN" "http://www.w3.org/Graphics/SVG/1.1/DTD/svg11.dtd">
<!-- Creator: CorelDRAW 2020 (64-Bit) -->
<svg xmlns="http://www.w3.org/2000/svg" xml:space="preserve" width="150px" height="47px" version="1.1" style="shape-rendering:geometricPrecision; text-rendering:geometricPrecision; image-rendering:optimizeQuality; fill-rule:evenodd; clip-rule:evenodd"
viewBox="0 0 37.62 11.89"
 xmlns:xlink="http://www.w3.org/1999/xlink"
 xmlns:xodm="http://www.corel.com/coreldraw/odm/2003">
 <defs>
  <style type="text/css">
   <![CDATA[
    .fil0 {fill:white;fill-rule:nonzero}
   ]]>
  </style>
 </defs>
 <g id="Capa_x0020_1">
  <metadata id="CorelCorpID_0Corel-Layer"/>
  <g id="_2153005346704">
   <path class="fil0" d="M1.25 10.65c0,-0.01 0,-0.02 0.01,-0.02 0,-0.01 0.01,-0.01 0.02,-0.01l0.27 0c0.01,0 0.02,0 0.03,0 0.01,0.01 0.01,0.01 0.02,0.02 0.07,0.11 0.14,0.23 0.21,0.34 0.07,0.11 0.14,0.22 0.21,0.33l0 -0.66c0,-0.01 0.01,-0.02 0.01,-0.03 0.01,0 0.02,0 0.03,0l0.23 0c0.02,0 0.03,0 0.03,0 0.01,0.01 0.01,0.02 0.01,0.03l0 1.17c0,0.01 0,0.02 -0.01,0.02 0,0.01 -0.01,0.01 -0.02,0.01l-0.27 0c-0.01,0 -0.01,0 -0.02,-0.01 0,0 -0.01,-0.01 -0.01,-0.02 -0.08,-0.12 -0.15,-0.24 -0.22,-0.36 -0.08,-0.12 -0.15,-0.24 -0.22,-0.36l0 0.71c0,0.02 -0.01,0.03 -0.01,0.03 -0.01,0.01 -0.02,0.01 -0.03,0.01l-0.24 0c-0.01,0 -0.02,0 -0.02,-0.01 -0.01,-0.01 -0.01,-0.02 -0.01,-0.03l0 -1.16z"/>
   <path class="fil0" d="M2.61 10.65c0,-0.01 0,-0.02 0.01,-0.02 0,-0.01 0.01,-0.01 0.03,-0.01l0.24 0c0.01,0 0.02,0 0.03,0.01 0.01,0 0.01,0.01 0.01,0.02l0 1.16c0,0.03 -0.01,0.04 -0.04,0.04l-0.24 0c-0.03,0 -0.04,-0.01 -0.04,-0.04l0 -1.16z"/>
   <path class="fil0" d="M3.54 11.83c-0.01,-0.01 -0.01,-0.02 -0.02,-0.03 0,-0.01 -0.01,-0.02 -0.01,-0.03l-0.43 -1.12c0,0 0,0 0,0 0,-0.01 0,-0.01 0,-0.01 0,-0.02 0.01,-0.02 0.03,-0.02l0.27 0c0.02,0 0.03,0.01 0.04,0.03l0.26 0.75c0.02,-0.06 0.04,-0.12 0.06,-0.19 0.02,-0.06 0.04,-0.12 0.06,-0.18 0.02,-0.07 0.04,-0.13 0.06,-0.19 0.02,-0.07 0.05,-0.13 0.07,-0.19 0.01,-0.02 0.02,-0.03 0.04,-0.03l0.27 0c0.01,0 0.02,0 0.02,0 0.01,0.01 0.01,0.01 0.01,0.02 0,0.01 0,0.01 0,0.01l0 0 -0.43 1.12c0,0.01 0,0.02 -0.01,0.03 0,0 -0.01,0.01 -0.01,0.02 -0.01,0.01 -0.01,0.02 -0.02,0.02 -0.01,0.01 -0.01,0.01 -0.02,0.01l-0.21 0c-0.01,0 -0.03,-0.01 -0.03,-0.02z"/>
   <path class="fil0" d="M4.42 10.65c0,-0.01 0,-0.02 0.01,-0.02 0.01,-0.01 0.02,-0.01 0.03,-0.01l0.82 0c0.01,0 0.02,0 0.03,0.01 0.01,0 0.01,0.01 0.01,0.02l0 0.21c0,0.01 0,0.02 -0.01,0.03 -0.01,0.01 -0.02,0.01 -0.03,0.01l-0.54 0 0 0.21 0.42 0c0.01,0 0.02,0 0.03,0 0,0.01 0.01,0.02 0.01,0.03l0 0.18c0,0.01 -0.01,0.01 -0.01,0.02 -0.01,0.01 -0.02,0.01 -0.03,0.01l-0.42 0 0 0.21 0.56 0c0.03,0 0.04,0.02 0.04,0.04l0 0.21c0,0.01 0,0.01 -0.01,0.02 0,0.01 -0.01,0.02 -0.03,0.02l-0.84 0c-0.01,0 -0.02,0 -0.03,-0.01 -0.01,0 -0.01,-0.01 -0.01,-0.03l0 -1.16z"/>
   <path class="fil0" d="M6.2 11.02c0,-0.01 -0.01,-0.03 -0.01,-0.05 -0.01,-0.01 -0.02,-0.03 -0.03,-0.04 -0.01,-0.02 -0.02,-0.03 -0.04,-0.04 -0.01,-0.01 -0.03,-0.01 -0.05,-0.02 -0.02,0 -0.03,0 -0.04,0 -0.02,0 -0.03,0 -0.05,0l-0.11 0 0 0.31 0.15 0c0.01,0 0.02,-0.01 0.03,-0.01 0,0 0.01,0 0.02,0 0.02,0 0.04,-0.01 0.06,-0.02 0.01,0 0.02,-0.02 0.03,-0.03 0.01,-0.01 0.02,-0.03 0.03,-0.05 0,-0.01 0.01,-0.03 0.01,-0.05zm-0.65 -0.37c0,-0.01 0,-0.02 0,-0.02 0.01,-0.01 0.02,-0.01 0.03,-0.01l0.54 0c0.06,0 0.11,0.01 0.16,0.03 0.05,0.02 0.09,0.05 0.13,0.08 0.04,0.04 0.07,0.08 0.09,0.13 0.02,0.05 0.03,0.1 0.03,0.16 0,0.04 0,0.07 -0.02,0.11 -0.01,0.03 -0.02,0.06 -0.04,0.09 -0.02,0.03 -0.04,0.06 -0.06,0.08 -0.03,0.03 -0.06,0.05 -0.09,0.07l0.22 0.4c0,0.01 0.01,0.01 0.01,0.03 0.01,0.01 0.01,0.02 0.01,0.02 0,0.01 0,0.02 -0.01,0.02 0,0.01 -0.01,0.01 -0.02,0.01l-0.29 0c-0.01,0 -0.01,0 -0.02,-0.01 -0.01,0 -0.01,-0.01 -0.02,-0.02l-0.2 -0.38 -0.13 0 0 0.37c0,0.03 -0.02,0.04 -0.04,0.04l-0.25 0c-0.01,0 -0.02,0 -0.02,-0.01 -0.01,0 -0.01,-0.01 -0.01,-0.03l0 -1.16z"/>
   <path class="fil0" d="M6.87 11.45c0.01,0.01 0.02,0.02 0.04,0.03 0.01,0.02 0.03,0.03 0.05,0.04 0.02,0.02 0.05,0.03 0.08,0.04 0.03,0.02 0.06,0.02 0.09,0.02 0.03,0 0.05,0 0.07,-0.01 0.02,-0.01 0.03,-0.01 0.04,-0.02 0.01,-0.01 0.02,-0.03 0.03,-0.04 0,-0.01 0,-0.03 0,-0.04 0,-0.02 0,-0.04 -0.02,-0.05 -0.01,-0.01 -0.02,-0.03 -0.04,-0.04 -0.02,-0.01 -0.04,-0.02 -0.06,-0.02 -0.02,-0.01 -0.04,-0.02 -0.06,-0.02 -0.06,-0.03 -0.12,-0.05 -0.17,-0.08 -0.05,-0.02 -0.09,-0.05 -0.12,-0.09 -0.04,-0.03 -0.06,-0.07 -0.08,-0.11 -0.02,-0.04 -0.02,-0.08 -0.02,-0.13 0,-0.05 0.01,-0.1 0.03,-0.14 0.02,-0.04 0.05,-0.08 0.09,-0.11 0.03,-0.03 0.08,-0.05 0.14,-0.07 0.05,-0.01 0.11,-0.02 0.18,-0.02 0.05,0 0.1,0 0.14,0.02 0.05,0.01 0.09,0.03 0.14,0.05 0.02,0.01 0.04,0.02 0.05,0.03 0.02,0.02 0.03,0.03 0.05,0.04 0.01,0.01 0.02,0.02 0.03,0.03 0.01,0.01 0.01,0.02 0.01,0.03 0,0 0,0.01 -0.01,0.02 0,0 -0.01,0.01 -0.01,0.02l-0.13 0.13c-0.01,0.01 -0.02,0.02 -0.03,0.02 -0.01,0 -0.01,-0.01 -0.02,-0.01 -0.01,0 -0.01,-0.01 -0.02,-0.02l-0.01 0c-0.01,-0.01 -0.02,-0.02 -0.04,-0.03 -0.01,-0.01 -0.02,-0.02 -0.04,-0.03 -0.01,-0.01 -0.03,-0.01 -0.05,-0.02 -0.02,0 -0.03,-0.01 -0.05,-0.01 -0.02,0 -0.04,0 -0.05,0.01 -0.02,0 -0.03,0.01 -0.04,0.01 -0.02,0.01 -0.03,0.02 -0.03,0.03 -0.01,0.01 -0.01,0.02 -0.01,0.04 0,0.01 0,0.03 0.01,0.04 0.01,0.01 0.02,0.02 0.03,0.03 0.02,0.01 0.04,0.02 0.06,0.03 0.02,0.01 0.05,0.02 0.08,0.03 0.06,0.01 0.11,0.03 0.16,0.06 0.05,0.02 0.1,0.04 0.13,0.07 0.04,0.03 0.07,0.07 0.09,0.11 0.02,0.04 0.03,0.09 0.03,0.14 0,0.06 -0.02,0.12 -0.04,0.17 -0.03,0.05 -0.06,0.09 -0.1,0.13 -0.05,0.03 -0.1,0.06 -0.16,0.08 -0.06,0.02 -0.12,0.03 -0.19,0.03 -0.06,0 -0.12,-0.02 -0.18,-0.04 -0.07,-0.02 -0.12,-0.05 -0.18,-0.09 -0.02,-0.02 -0.04,-0.03 -0.05,-0.05 -0.02,-0.01 -0.03,-0.03 -0.04,-0.04l0 0c0,0 0,0 0,0 0,0 0,0 0,0 -0.01,0 -0.01,0 -0.01,0 0,0 0,0 0,0 -0.01,-0.02 -0.02,-0.03 -0.02,-0.04 0,-0.01 0.01,-0.02 0.02,-0.03l0.15 -0.14c0.01,0 0.02,-0.01 0.02,-0.01 0.01,0 0.01,0 0.02,0.01 0.01,0 0.01,0 0.02,0.01z"/>
   <path class="fil0" d="M7.81 10.65c0,-0.01 0,-0.02 0.01,-0.02 0,-0.01 0.01,-0.01 0.02,-0.01l0.25 0c0.01,0 0.02,0 0.03,0.01 0.01,0 0.01,0.01 0.01,0.02l0 1.16c0,0.03 -0.01,0.04 -0.04,0.04l-0.25 0c-0.02,0 -0.03,-0.01 -0.03,-0.04l0 -1.16z"/>
   <path class="fil0" d="M8.71 10.91l0 0.64 0.07 0c0.01,0 0.02,0 0.03,0 0.02,0 0.03,0 0.04,0 0.04,0 0.08,-0.02 0.12,-0.03 0.03,-0.02 0.06,-0.04 0.09,-0.07 0.03,-0.03 0.05,-0.06 0.06,-0.1 0.02,-0.03 0.03,-0.07 0.03,-0.12 0,-0.04 -0.01,-0.09 -0.03,-0.13 -0.02,-0.03 -0.04,-0.07 -0.07,-0.1 -0.03,-0.03 -0.07,-0.05 -0.11,-0.06 -0.04,-0.02 -0.08,-0.03 -0.12,-0.03l-0.11 0zm0.76 0.32c0,0.06 -0.01,0.12 -0.03,0.17 -0.01,0.05 -0.03,0.1 -0.06,0.15 -0.03,0.05 -0.06,0.09 -0.1,0.12 -0.04,0.04 -0.08,0.07 -0.13,0.1 -0.04,0.03 -0.09,0.04 -0.15,0.06 -0.05,0.01 -0.11,0.02 -0.17,0.02l-0.41 0c-0.01,0 -0.02,0 -0.02,-0.01 -0.01,0 -0.02,-0.01 -0.02,-0.02l0 -1.17c0,-0.01 0.01,-0.02 0.01,-0.02 0.01,-0.01 0.02,-0.02 0.03,-0.02l0.41 0c0.06,0 0.12,0.01 0.17,0.03 0.06,0.01 0.11,0.03 0.15,0.06 0.05,0.02 0.09,0.06 0.13,0.09 0.04,0.04 0.07,0.08 0.1,0.13 0.03,0.04 0.05,0.09 0.06,0.15 0.02,0.05 0.03,0.11 0.03,0.16z"/>
   <path class="fil0" d="M10.08 11c-0.01,0.03 -0.02,0.06 -0.03,0.1 -0.01,0.03 -0.02,0.06 -0.03,0.09 -0.01,0.04 -0.03,0.07 -0.04,0.1 -0.01,0.03 -0.02,0.07 -0.03,0.09l0.26 0 -0.13 -0.38zm-0.15 -0.35c0,-0.01 0,-0.01 0,-0.01 0.01,-0.01 0.01,-0.01 0.01,-0.01 0.01,-0.01 0.01,-0.01 0.02,-0.01 0,0 0.01,0 0.01,0l0.22 0c0.01,0 0.01,0 0.02,0 0.01,0.01 0.01,0.02 0.02,0.02l0.02 0.05 0.43 1.12c0.01,0.01 0.01,0.02 0,0.03 -0.01,0.01 -0.02,0.01 -0.03,0.01l-0.24 0c-0.01,0 -0.02,0 -0.03,-0.01 -0.01,0 -0.01,-0.01 -0.02,-0.02 -0.01,-0.03 -0.02,-0.06 -0.03,-0.08 -0.01,-0.03 -0.02,-0.06 -0.03,-0.09l-0.44 0c-0.01,0.03 -0.02,0.06 -0.03,0.09 -0.01,0.02 -0.03,0.05 -0.04,0.08 0,0.02 -0.02,0.03 -0.04,0.03l-0.24 0c-0.01,0 -0.02,0 -0.03,-0.01 -0.01,0 -0.01,-0.01 0,-0.02l0.45 -1.17z"/>
   <path class="fil0" d="M11.16 10.91l0 0.64 0.07 0c0.01,0 0.02,0 0.03,0 0.02,0 0.03,0 0.04,0 0.04,0 0.08,-0.02 0.12,-0.03 0.03,-0.02 0.06,-0.04 0.09,-0.07 0.03,-0.03 0.05,-0.06 0.06,-0.1 0.02,-0.03 0.03,-0.07 0.03,-0.12 0,-0.04 -0.01,-0.09 -0.03,-0.13 -0.02,-0.03 -0.04,-0.07 -0.07,-0.1 -0.03,-0.03 -0.07,-0.05 -0.11,-0.06 -0.04,-0.02 -0.08,-0.03 -0.12,-0.03l-0.11 0zm0.76 0.32c0,0.06 -0.01,0.12 -0.03,0.17 -0.01,0.05 -0.03,0.1 -0.06,0.15 -0.03,0.05 -0.06,0.09 -0.1,0.12 -0.04,0.04 -0.08,0.07 -0.13,0.1 -0.04,0.03 -0.09,0.04 -0.15,0.06 -0.05,0.01 -0.11,0.02 -0.17,0.02l-0.41 0c-0.01,0 -0.02,0 -0.02,-0.01 -0.01,0 -0.02,-0.01 -0.02,-0.02l0 -1.17c0,-0.01 0.01,-0.02 0.01,-0.02 0.01,-0.01 0.02,-0.02 0.03,-0.02l0.41 0c0.06,0 0.12,0.01 0.17,0.03 0.06,0.01 0.11,0.03 0.15,0.06 0.05,0.02 0.09,0.06 0.13,0.09 0.04,0.04 0.07,0.08 0.1,0.13 0.03,0.04 0.05,0.09 0.06,0.15 0.02,0.05 0.03,0.11 0.03,0.16z"/>
   <path class="fil0" d="M12.66 10.65c0,-0.01 0,-0.02 0.01,-0.02 0,-0.01 0.01,-0.01 0.03,-0.01l0.27 0c0.01,0 0.01,0 0.02,0 0.01,0.01 0.02,0.01 0.02,0.02 0.07,0.11 0.14,0.23 0.21,0.34 0.07,0.11 0.14,0.22 0.21,0.33l0 -0.66c0.01,-0.01 0.01,-0.02 0.02,-0.03 0,0 0.01,0 0.02,0l0.24 0c0.01,0 0.02,0 0.03,0 0,0.01 0.01,0.02 0.01,0.03l0 1.17c0,0.01 -0.01,0.02 -0.01,0.02 -0.01,0.01 -0.02,0.01 -0.03,0.01l-0.26 0c-0.01,0 -0.02,0 -0.02,-0.01 -0.01,0 -0.02,-0.01 -0.02,-0.02 -0.08,-0.12 -0.15,-0.24 -0.22,-0.36 -0.07,-0.12 -0.15,-0.24 -0.22,-0.36l0 0.71c0,0.02 0,0.03 -0.01,0.03 0,0.01 -0.01,0.01 -0.03,0.01l-0.23 0c-0.02,0 -0.03,0 -0.03,-0.01 -0.01,-0.01 -0.01,-0.02 -0.01,-0.03l0 -1.16z"/>
   <path class="fil0" d="M14.52 11c-0.01,0.03 -0.02,0.06 -0.03,0.1 -0.01,0.03 -0.02,0.06 -0.03,0.09 -0.01,0.04 -0.02,0.07 -0.03,0.1 -0.01,0.03 -0.02,0.07 -0.03,0.09l0.25 0 -0.13 -0.38zm-0.15 -0.35c0,-0.01 0,-0.01 0.01,-0.01 0,-0.01 0,-0.01 0.01,-0.01 0,-0.01 0.01,-0.01 0.01,-0.01 0.01,0 0.01,0 0.02,0l0.21 0c0.01,0 0.02,0 0.02,0 0.01,0.01 0.02,0.02 0.02,0.02l0.02 0.05 0.44 1.12c0,0.01 0,0.02 -0.01,0.03 0,0.01 -0.01,0.01 -0.03,0.01l-0.24 0c-0.01,0 -0.02,0 -0.03,-0.01 0,0 -0.01,-0.01 -0.01,-0.02 -0.01,-0.03 -0.02,-0.06 -0.03,-0.08 -0.01,-0.03 -0.03,-0.06 -0.04,-0.09l-0.44 0c-0.01,0.03 -0.02,0.06 -0.03,0.09 -0.01,0.02 -0.02,0.05 -0.03,0.08 -0.01,0.02 -0.02,0.03 -0.04,0.03l-0.25 0c-0.01,0 -0.02,0 -0.03,-0.01 0,0 0,-0.01 0,-0.02l0.45 -1.17z"/>
   <path class="fil0" d="M16.12 10.71c0.01,0 0.02,0.01 0.03,0.02 0,0.01 0,0.02 -0.01,0.03l-0.14 0.2c0,0.01 -0.01,0.01 -0.02,0.01 0,0.01 -0.01,0 -0.02,0 -0.03,-0.02 -0.06,-0.04 -0.09,-0.05 -0.04,-0.01 -0.07,-0.02 -0.11,-0.02 -0.04,0 -0.08,0.01 -0.12,0.03 -0.04,0.02 -0.07,0.04 -0.1,0.07 -0.03,0.03 -0.05,0.06 -0.07,0.1 -0.01,0.04 -0.02,0.09 -0.02,0.13 0,0.05 0.01,0.09 0.02,0.13 0.02,0.04 0.04,0.07 0.07,0.1 0.03,0.03 0.06,0.06 0.1,0.07 0.04,0.02 0.08,0.03 0.12,0.03 0.04,0 0.07,-0.01 0.11,-0.02 0.03,-0.01 0.06,-0.02 0.09,-0.04 0.01,-0.01 0.02,-0.01 0.02,-0.01 0.01,0 0.02,0 0.02,0.01l0.15 0.21c0,0.01 0,0.02 0,0.03 -0.01,0.01 -0.01,0.01 -0.02,0.02 -0.05,0.03 -0.11,0.06 -0.17,0.08 -0.06,0.02 -0.12,0.03 -0.19,0.03 -0.06,0 -0.12,-0.01 -0.17,-0.02 -0.05,-0.02 -0.1,-0.04 -0.15,-0.07 -0.05,-0.03 -0.09,-0.06 -0.13,-0.1 -0.04,-0.04 -0.07,-0.08 -0.1,-0.13 -0.03,-0.04 -0.05,-0.09 -0.06,-0.15 -0.02,-0.05 -0.03,-0.11 -0.03,-0.17 0,-0.05 0.01,-0.11 0.03,-0.17 0.01,-0.05 0.03,-0.1 0.06,-0.15 0.03,-0.04 0.06,-0.09 0.1,-0.13 0.04,-0.04 0.08,-0.07 0.13,-0.1 0.05,-0.02 0.1,-0.04 0.15,-0.06 0.05,-0.02 0.11,-0.02 0.17,-0.02 0.07,0 0.13,0.01 0.19,0.02 0.06,0.02 0.11,0.05 0.16,0.09z"/>
   <path class="fil0" d="M16.36 10.65c0,-0.01 0,-0.02 0.01,-0.02 0,-0.01 0.01,-0.01 0.02,-0.01l0.25 0c0.01,0 0.02,0 0.02,0.01 0.01,0 0.02,0.01 0.02,0.02l0 1.16c0,0.03 -0.01,0.04 -0.04,0.04l-0.25 0c-0.02,0 -0.03,-0.01 -0.03,-0.04l0 -1.16z"/>
   <path class="fil0" d="M17.21 11.23c0,0.05 0.01,0.09 0.02,0.13 0.02,0.04 0.04,0.08 0.07,0.11 0.03,0.03 0.06,0.05 0.1,0.07 0.04,0.01 0.08,0.02 0.13,0.02 0.04,0 0.08,-0.01 0.12,-0.02 0.04,-0.02 0.07,-0.04 0.1,-0.07 0.03,-0.03 0.05,-0.07 0.07,-0.11 0.01,-0.04 0.02,-0.08 0.02,-0.13 0,-0.04 -0.01,-0.09 -0.02,-0.13 -0.02,-0.04 -0.04,-0.07 -0.07,-0.1 -0.03,-0.03 -0.06,-0.05 -0.1,-0.07 -0.04,-0.02 -0.08,-0.03 -0.12,-0.03 -0.05,0 -0.09,0.01 -0.13,0.03 -0.04,0.02 -0.07,0.04 -0.1,0.07 -0.03,0.03 -0.05,0.06 -0.07,0.1 -0.01,0.04 -0.02,0.09 -0.02,0.13zm-0.32 0c0,-0.05 0.01,-0.11 0.02,-0.17 0.02,-0.05 0.04,-0.1 0.07,-0.15 0.02,-0.04 0.06,-0.09 0.1,-0.13 0.03,-0.04 0.08,-0.07 0.12,-0.1 0.05,-0.02 0.1,-0.04 0.16,-0.06 0.05,-0.02 0.11,-0.02 0.17,-0.02 0.05,0 0.11,0 0.16,0.02 0.06,0.02 0.11,0.04 0.16,0.06 0.04,0.03 0.09,0.06 0.13,0.1 0.03,0.04 0.07,0.09 0.09,0.13 0.03,0.05 0.05,0.1 0.07,0.15 0.01,0.06 0.02,0.12 0.02,0.17 0,0.06 -0.01,0.12 -0.02,0.17 -0.02,0.06 -0.04,0.11 -0.07,0.15 -0.02,0.05 -0.06,0.09 -0.09,0.13 -0.04,0.04 -0.09,0.07 -0.13,0.1 -0.05,0.03 -0.1,0.05 -0.16,0.07 -0.05,0.01 -0.11,0.02 -0.16,0.02 -0.06,0 -0.12,-0.01 -0.17,-0.02 -0.06,-0.02 -0.11,-0.04 -0.16,-0.07 -0.04,-0.03 -0.09,-0.06 -0.12,-0.1 -0.04,-0.04 -0.08,-0.08 -0.1,-0.13 -0.03,-0.04 -0.05,-0.09 -0.07,-0.15 -0.01,-0.05 -0.02,-0.11 -0.02,-0.17z"/>
   <path class="fil0" d="M18.37 10.65c0,-0.01 0,-0.02 0.01,-0.02 0,-0.01 0.01,-0.01 0.02,-0.01l0.28 0c0,0 0.01,0 0.02,0 0.01,0.01 0.02,0.01 0.02,0.02 0.07,0.11 0.14,0.23 0.21,0.34 0.07,0.11 0.14,0.22 0.21,0.33l0 -0.66c0,-0.01 0.01,-0.02 0.02,-0.03 0,0 0.01,0 0.02,0l0.24 0c0.01,0 0.02,0 0.03,0 0,0.01 0.01,0.02 0.01,0.03l0 1.17c0,0.01 -0.01,0.02 -0.01,0.02 -0.01,0.01 -0.02,0.01 -0.03,0.01l-0.27 0c0,0 -0.01,0 -0.02,-0.01 0,0 -0.01,-0.01 -0.01,-0.02 -0.08,-0.12 -0.15,-0.24 -0.22,-0.36 -0.07,-0.12 -0.15,-0.24 -0.22,-0.36l0 0.71c0,0.02 0,0.03 -0.01,0.03 0,0.01 -0.01,0.01 -0.03,0.01l-0.24 0c-0.01,0 -0.02,0 -0.02,-0.01 -0.01,-0.01 -0.01,-0.02 -0.01,-0.03l0 -1.16z"/>
   <path class="fil0" d="M20.23 11c-0.01,0.03 -0.02,0.06 -0.03,0.1 -0.01,0.03 -0.02,0.06 -0.03,0.09 -0.01,0.04 -0.02,0.07 -0.03,0.1 -0.01,0.03 -0.02,0.07 -0.04,0.09l0.26 0 -0.13 -0.38zm-0.15 -0.35c0,-0.01 0,-0.01 0.01,-0.01 0,-0.01 0,-0.01 0.01,-0.01 0,-0.01 0.01,-0.01 0.01,-0.01 0.01,0 0.01,0 0.02,0l0.21 0c0.01,0 0.02,0 0.02,0 0.01,0.01 0.01,0.02 0.02,0.02l0.02 0.05 0.44 1.12c0,0.01 0,0.02 -0.01,0.03 0,0.01 -0.01,0.01 -0.03,0.01l-0.24 0c-0.01,0 -0.02,0 -0.03,-0.01 0,0 -0.01,-0.01 -0.01,-0.02 -0.01,-0.03 -0.02,-0.06 -0.04,-0.08 -0.01,-0.03 -0.02,-0.06 -0.03,-0.09l-0.44 0c-0.01,0.03 -0.02,0.06 -0.03,0.09 -0.01,0.02 -0.02,0.05 -0.03,0.08 -0.01,0.02 -0.02,0.03 -0.04,0.03l-0.25 0c-0.01,0 -0.02,0 -0.03,-0.01 0,0 0,-0.01 0,-0.02l0.45 -1.17z"/>
   <path class="fil0" d="M20.97 10.65c0,-0.01 0.01,-0.02 0.01,-0.02 0.01,-0.01 0.02,-0.02 0.03,-0.02l0.25 0c0,0 0.01,0.01 0.02,0.01 0.01,0.01 0.01,0.02 0.01,0.03l0 0.91 0.46 0c0.01,0 0.02,0 0.03,0.01 0,0 0.01,0.01 0.01,0.02l0 0.22c0,0.01 -0.01,0.02 -0.01,0.03 -0.01,0.01 -0.02,0.01 -0.03,0.01l-0.74 0c-0.03,0 -0.04,-0.01 -0.04,-0.04l0 -1.16z"/>
   <path class="fil0" d="M22.81 10.91l0 0.64 0.07 0c0.01,0 0.03,0 0.04,0 0.01,0 0.02,0 0.04,0 0.04,0 0.08,-0.02 0.11,-0.03 0.04,-0.02 0.07,-0.04 0.1,-0.07 0.02,-0.03 0.04,-0.06 0.06,-0.1 0.01,-0.03 0.02,-0.07 0.02,-0.12 0,-0.04 -0.01,-0.09 -0.02,-0.13 -0.02,-0.03 -0.05,-0.07 -0.08,-0.1 -0.02,-0.03 -0.06,-0.05 -0.1,-0.06 -0.04,-0.02 -0.08,-0.03 -0.13,-0.03l-0.11 0zm0.76 0.32c0,0.06 -0.01,0.12 -0.02,0.17 -0.02,0.05 -0.04,0.1 -0.06,0.15 -0.03,0.05 -0.06,0.09 -0.1,0.12 -0.04,0.04 -0.08,0.07 -0.13,0.1 -0.05,0.03 -0.1,0.04 -0.15,0.06 -0.06,0.01 -0.11,0.02 -0.17,0.02l-0.41 0c-0.01,0 -0.02,0 -0.03,-0.01 -0.01,0 -0.01,-0.01 -0.01,-0.02l0 -1.17c0,-0.01 0,-0.02 0.01,-0.02 0.01,-0.01 0.02,-0.02 0.03,-0.02l0.41 0c0.06,0 0.11,0.01 0.17,0.03 0.05,0.01 0.1,0.03 0.15,0.06 0.04,0.02 0.09,0.06 0.13,0.09 0.03,0.04 0.07,0.08 0.1,0.13 0.02,0.04 0.04,0.09 0.06,0.15 0.01,0.05 0.02,0.11 0.02,0.16z"/>
   <path class="fil0" d="M23.79 10.65c0,-0.01 0,-0.02 0.01,-0.02 0.01,-0.01 0.01,-0.01 0.03,-0.01l0.82 0c0.01,0 0.02,0 0.03,0.01 0.01,0 0.01,0.01 0.01,0.02l0 0.21c0,0.01 0,0.02 -0.01,0.03 -0.01,0.01 -0.02,0.01 -0.03,0.01l-0.54 0 0 0.21 0.42 0c0.01,0 0.02,0 0.02,0 0.01,0.01 0.01,0.02 0.01,0.03l0 0.18c0,0.01 0,0.01 -0.01,0.02 0,0.01 -0.01,0.01 -0.02,0.01l-0.42 0 0 0.21 0.56 0c0.02,0 0.04,0.02 0.04,0.04l0 0.21c0,0.01 0,0.01 -0.01,0.02 0,0.01 -0.01,0.02 -0.03,0.02l-0.84 0c-0.02,0 -0.02,0 -0.03,-0.01 -0.01,0 -0.01,-0.01 -0.01,-0.03l0 -1.16z"/>
   <path class="fil0" d="M25.94 11c-0.01,0.03 -0.02,0.06 -0.03,0.1 -0.01,0.03 -0.03,0.06 -0.04,0.09 -0.01,0.04 -0.02,0.07 -0.03,0.1 -0.01,0.03 -0.02,0.07 -0.03,0.09l0.26 0 -0.13 -0.38zm-0.15 -0.35c0,-0.01 0,-0.01 0,-0.01 0.01,-0.01 0.01,-0.01 0.01,-0.01 0.01,-0.01 0.01,-0.01 0.02,-0.01 0,0 0.01,0 0.01,0l0.21 0c0.01,0 0.02,0 0.03,0 0.01,0.01 0.01,0.02 0.01,0.02l0.02 0.05 0.44 1.12c0.01,0.01 0,0.02 0,0.03 -0.01,0.01 -0.02,0.01 -0.03,0.01l-0.24 0c-0.01,0 -0.02,0 -0.03,-0.01 -0.01,0 -0.01,-0.01 -0.02,-0.02 -0.01,-0.03 -0.02,-0.06 -0.03,-0.08 -0.01,-0.03 -0.02,-0.06 -0.03,-0.09l-0.44 0c-0.01,0.03 -0.02,0.06 -0.03,0.09 -0.02,0.02 -0.03,0.05 -0.04,0.08 0,0.02 -0.02,0.03 -0.04,0.03l-0.24 0c-0.02,0 -0.02,0 -0.03,-0.01 -0.01,0 -0.01,-0.01 0,-0.02l0.45 -1.17z"/>
   <path class="fil0" d="M27.38 10.96c-0.03,-0.02 -0.06,-0.03 -0.09,-0.04 -0.04,-0.01 -0.07,-0.02 -0.11,-0.02 -0.04,0 -0.09,0.01 -0.12,0.03 -0.04,0.01 -0.08,0.04 -0.1,0.07 -0.03,0.03 -0.05,0.06 -0.07,0.1 -0.01,0.04 -0.02,0.09 -0.02,0.13 0,0.05 0.01,0.09 0.02,0.13 0.02,0.04 0.04,0.07 0.07,0.1 0.02,0.03 0.06,0.06 0.1,0.07 0.03,0.02 0.08,0.03 0.12,0.03 0.02,0 0.04,0 0.06,0 0.02,-0.01 0.04,-0.01 0.06,-0.01l0 -0.22c0,-0.01 0,-0.02 0.01,-0.03 0.01,-0.01 0.02,-0.01 0.03,-0.01l0.22 0c0.01,0 0.02,0 0.03,0.01 0.01,0.01 0.01,0.02 0.01,0.03l0 0.4c0,0.01 0,0.03 -0.02,0.04 -0.03,0.01 -0.05,0.03 -0.09,0.04 -0.03,0.01 -0.06,0.03 -0.09,0.03 -0.04,0.01 -0.07,0.02 -0.11,0.02 -0.03,0.01 -0.07,0.01 -0.1,0.01 -0.06,0 -0.12,-0.01 -0.17,-0.02 -0.05,-0.02 -0.11,-0.04 -0.15,-0.07 -0.05,-0.03 -0.09,-0.06 -0.13,-0.1 -0.04,-0.04 -0.07,-0.08 -0.1,-0.13 -0.03,-0.04 -0.05,-0.09 -0.06,-0.15 -0.02,-0.05 -0.03,-0.11 -0.03,-0.17 0,-0.05 0.01,-0.11 0.03,-0.17 0.01,-0.05 0.03,-0.1 0.06,-0.15 0.03,-0.04 0.06,-0.09 0.1,-0.13 0.04,-0.04 0.08,-0.07 0.13,-0.1 0.04,-0.02 0.1,-0.04 0.15,-0.06 0.05,-0.02 0.11,-0.02 0.17,-0.02 0.06,0 0.13,0.01 0.19,0.02 0.06,0.02 0.11,0.05 0.16,0.09 0.01,0 0.02,0.01 0.02,0.02 0.01,0.01 0.01,0.02 0,0.03l-0.13 0.19c-0.01,0.01 -0.02,0.02 -0.02,0.02 -0.01,0 -0.02,0 -0.03,-0.01z"/>
   <path class="fil0" d="M28.5 11.02c0,-0.01 0,-0.03 -0.01,-0.05 -0.01,-0.01 -0.01,-0.03 -0.03,-0.04 -0.01,-0.02 -0.02,-0.03 -0.04,-0.04 -0.01,-0.01 -0.03,-0.01 -0.05,-0.02 -0.01,0 -0.03,0 -0.04,0 -0.01,0 -0.03,0 -0.05,0l-0.11 0 0 0.31 0.15 0c0.01,0 0.02,-0.01 0.03,-0.01 0.01,0 0.02,0 0.02,0 0.02,0 0.04,-0.01 0.06,-0.02 0.01,0 0.03,-0.02 0.04,-0.03 0.01,-0.01 0.01,-0.03 0.02,-0.05 0.01,-0.01 0.01,-0.03 0.01,-0.05zm-0.65 -0.37c0,-0.01 0,-0.02 0.01,-0.02 0,-0.01 0.01,-0.01 0.02,-0.01l0.54 0c0.06,0 0.11,0.01 0.16,0.03 0.05,0.02 0.1,0.05 0.13,0.08 0.04,0.04 0.07,0.08 0.09,0.13 0.02,0.05 0.03,0.1 0.03,0.16 0,0.04 0,0.07 -0.01,0.11 -0.01,0.03 -0.03,0.06 -0.05,0.09 -0.01,0.03 -0.04,0.06 -0.06,0.08 -0.03,0.03 -0.05,0.05 -0.08,0.07l0.21 0.4c0,0.01 0.01,0.01 0.01,0.03 0.01,0.01 0.01,0.02 0.01,0.02 0,0.01 0,0.02 0,0.02 -0.01,0.01 -0.02,0.01 -0.03,0.01l-0.28 0c-0.01,0 -0.02,0 -0.03,-0.01 -0.01,0 -0.01,-0.01 -0.01,-0.02l-0.21 -0.38 -0.13 0 0 0.37c0,0.03 -0.01,0.04 -0.04,0.04l-0.25 0c-0.01,0 -0.02,0 -0.02,-0.01 -0.01,0 -0.01,-0.01 -0.01,-0.03l0 -1.16z"/>
   <path class="fil0" d="M29.02 10.65c0,-0.01 0,-0.02 0.01,-0.02 0,-0.01 0.01,-0.01 0.03,-0.01l0.24 0c0.01,0 0.02,0 0.03,0.01 0.01,0 0.01,0.01 0.01,0.02l0 1.16c0,0.03 -0.01,0.04 -0.04,0.04l-0.24 0c-0.03,0 -0.04,-0.01 -0.04,-0.04l0 -1.16z"/>
   <path class="fil0" d="M30.55 10.71c0.01,0 0.02,0.01 0.02,0.02 0.01,0.01 0.01,0.02 0,0.03l-0.14 0.2c-0.01,0.01 -0.01,0.01 -0.02,0.01 -0.01,0.01 -0.02,0 -0.03,0 -0.02,-0.02 -0.05,-0.04 -0.09,-0.05 -0.03,-0.01 -0.06,-0.02 -0.1,-0.02 -0.05,0 -0.09,0.01 -0.13,0.03 -0.03,0.02 -0.07,0.04 -0.09,0.07 -0.03,0.03 -0.05,0.06 -0.07,0.1 -0.01,0.04 -0.02,0.09 -0.02,0.13 0,0.05 0.01,0.09 0.02,0.13 0.02,0.04 0.04,0.07 0.07,0.1 0.02,0.03 0.06,0.06 0.09,0.07 0.04,0.02 0.08,0.03 0.13,0.03 0.04,0 0.07,-0.01 0.1,-0.02 0.04,-0.01 0.07,-0.02 0.1,-0.04 0.01,-0.01 0.01,-0.01 0.02,-0.01 0.01,0 0.01,0 0.02,0.01l0.14 0.21c0.01,0.01 0.01,0.02 0.01,0.03 -0.01,0.01 -0.02,0.01 -0.03,0.02 -0.05,0.03 -0.1,0.06 -0.16,0.08 -0.06,0.02 -0.13,0.03 -0.19,0.03 -0.06,0 -0.12,-0.01 -0.17,-0.02 -0.06,-0.02 -0.11,-0.04 -0.15,-0.07 -0.05,-0.03 -0.09,-0.06 -0.13,-0.1 -0.04,-0.04 -0.08,-0.08 -0.1,-0.13 -0.03,-0.04 -0.05,-0.09 -0.07,-0.15 -0.01,-0.05 -0.02,-0.11 -0.02,-0.17 0,-0.05 0.01,-0.11 0.02,-0.17 0.02,-0.05 0.04,-0.1 0.07,-0.15 0.02,-0.04 0.06,-0.09 0.1,-0.13 0.04,-0.04 0.08,-0.07 0.13,-0.1 0.04,-0.02 0.09,-0.04 0.15,-0.06 0.05,-0.02 0.11,-0.02 0.17,-0.02 0.06,0 0.13,0.01 0.18,0.02 0.06,0.02 0.12,0.05 0.17,0.09z"/>
   <path class="fil0" d="M31.1 11.36c0,0.04 0,0.07 0.02,0.1 0.01,0.03 0.02,0.05 0.04,0.07 0.02,0.02 0.04,0.03 0.07,0.04 0.02,0.01 0.05,0.01 0.07,0.01 0.03,0 0.06,0 0.08,-0.01 0.03,-0.01 0.05,-0.02 0.07,-0.04 0.01,-0.02 0.03,-0.05 0.04,-0.07 0.01,-0.03 0.02,-0.07 0.02,-0.1l0 -0.71c0,-0.01 0,-0.02 0.01,-0.02 0,-0.01 0.01,-0.01 0.02,-0.01l0.25 0c0.01,0 0.02,0 0.03,0.01 0,0 0.01,0.01 0.01,0.02l0 0.7c0,0.1 -0.02,0.18 -0.04,0.25 -0.03,0.06 -0.07,0.12 -0.12,0.16 -0.05,0.04 -0.1,0.07 -0.17,0.08 -0.06,0.02 -0.13,0.03 -0.2,0.03 -0.07,0 -0.13,-0.01 -0.2,-0.03 -0.06,-0.02 -0.12,-0.05 -0.17,-0.09 -0.04,-0.04 -0.08,-0.09 -0.11,-0.16 -0.03,-0.06 -0.04,-0.14 -0.04,-0.24l0 -0.7c0,-0.01 0,-0.02 0.01,-0.02 0,-0.01 0.01,-0.01 0.02,-0.01l0.25 0c0.01,0 0.02,0 0.02,0.01 0.01,0 0.02,0.01 0.02,0.02l0 0.71z"/>
   <path class="fil0" d="M32.04 10.65c0,-0.01 0,-0.02 0.01,-0.02 0.01,-0.01 0.02,-0.02 0.03,-0.02l0.24 0c0.01,0 0.02,0.01 0.03,0.01 0.01,0.01 0.01,0.02 0.01,0.03l0 0.91 0.46 0c0.01,0 0.02,0 0.03,0.01 0,0 0.01,0.01 0.01,0.02l0 0.22c0,0.01 -0.01,0.02 -0.01,0.03 -0.01,0.01 -0.02,0.01 -0.03,0.01l-0.74 0c-0.03,0 -0.04,-0.01 -0.04,-0.04l0 -1.16z"/>
   <path class="fil0" d="M32.87 10.65c0,-0.01 0.01,-0.02 0.01,-0.02 0.01,-0.01 0.02,-0.01 0.03,-0.01l0.9 0c0.01,0 0.02,0 0.02,0 0.01,0.01 0.02,0.02 0.02,0.03l0 0.21c0,0.01 -0.01,0.02 -0.01,0.03 -0.01,0.01 -0.02,0.01 -0.03,0.01l-0.29 0 0 0.91c0,0.01 0,0.02 -0.01,0.03 -0.01,0.01 -0.02,0.01 -0.03,0.01l-0.24 0c-0.01,0 -0.02,0 -0.03,-0.01 -0.01,-0.01 -0.01,-0.02 -0.01,-0.03l0 -0.91 -0.29 0c-0.01,0 -0.02,0 -0.03,-0.01 0,-0.01 -0.01,-0.02 -0.01,-0.03l0 -0.21z"/>
   <path class="fil0" d="M34.37 11.36c0,0.04 0,0.07 0.01,0.1 0.01,0.03 0.03,0.05 0.05,0.07 0.02,0.02 0.04,0.03 0.06,0.04 0.03,0.01 0.05,0.01 0.08,0.01 0.03,0 0.05,0 0.08,-0.01 0.02,-0.01 0.04,-0.02 0.06,-0.04 0.02,-0.02 0.04,-0.05 0.05,-0.07 0.01,-0.03 0.01,-0.07 0.01,-0.1l0 -0.71c0,-0.01 0.01,-0.02 0.01,-0.02 0.01,-0.01 0.02,-0.01 0.03,-0.01l0.25 0c0.01,0 0.02,0 0.03,0.01 0,0 0.01,0.01 0.01,0.02l0 0.7c0,0.1 -0.02,0.18 -0.05,0.25 -0.03,0.06 -0.06,0.12 -0.11,0.16 -0.05,0.04 -0.11,0.07 -0.17,0.08 -0.06,0.02 -0.13,0.03 -0.2,0.03 -0.07,0 -0.14,-0.01 -0.2,-0.03 -0.06,-0.02 -0.12,-0.05 -0.17,-0.09 -0.05,-0.04 -0.08,-0.09 -0.11,-0.16 -0.03,-0.06 -0.05,-0.14 -0.05,-0.24l0 -0.7c0,-0.01 0.01,-0.02 0.01,-0.02 0.01,-0.01 0.02,-0.01 0.03,-0.01l0.25 0c0,0 0.01,0 0.02,0.01 0.01,0 0.02,0.01 0.02,0.02l0 0.71z"/>
   <path class="fil0" d="M35.99 11.02c0,-0.01 0,-0.03 -0.01,-0.05 -0.01,-0.01 -0.01,-0.03 -0.02,-0.04 -0.02,-0.02 -0.03,-0.03 -0.04,-0.04 -0.02,-0.01 -0.04,-0.01 -0.06,-0.02 -0.01,0 -0.03,0 -0.04,0 -0.01,0 -0.03,0 -0.04,0l-0.12 0 0 0.31 0.15 0c0.01,0 0.02,-0.01 0.03,-0.01 0.01,0 0.02,0 0.03,0 0.02,0 0.03,-0.01 0.05,-0.02 0.01,0 0.03,-0.02 0.04,-0.03 0.01,-0.01 0.02,-0.03 0.02,-0.05 0.01,-0.01 0.01,-0.03 0.01,-0.05zm-0.65 -0.37c0,-0.01 0,-0.02 0.01,-0.02 0,-0.01 0.01,-0.01 0.03,-0.01l0.53 0c0.06,0 0.11,0.01 0.16,0.03 0.05,0.02 0.1,0.05 0.13,0.08 0.04,0.04 0.07,0.08 0.09,0.13 0.02,0.05 0.03,0.1 0.03,0.16 0,0.04 0,0.07 -0.01,0.11 -0.01,0.03 -0.03,0.06 -0.04,0.09 -0.02,0.03 -0.04,0.06 -0.07,0.08 -0.03,0.03 -0.05,0.05 -0.08,0.07l0.21 0.4c0,0.01 0.01,0.01 0.02,0.03 0,0.01 0,0.02 0,0.02 0,0.01 0,0.02 0,0.02 -0.01,0.01 -0.02,0.01 -0.03,0.01l-0.28 0c-0.01,0 -0.02,0 -0.03,-0.01 -0.01,0 -0.01,-0.01 -0.01,-0.02l-0.2 -0.38 -0.14 0 0 0.37c0,0.03 -0.01,0.04 -0.04,0.04l-0.24 0c-0.02,0 -0.02,0 -0.03,-0.01 -0.01,0 -0.01,-0.01 -0.01,-0.03l0 -1.16z"/>
   <path class="fil0" d="M37.01 11c-0.01,0.03 -0.02,0.06 -0.03,0.1 -0.01,0.03 -0.02,0.06 -0.03,0.09 -0.01,0.04 -0.02,0.07 -0.03,0.1 -0.02,0.03 -0.03,0.07 -0.04,0.09l0.26 0 -0.13 -0.38zm-0.15 -0.35c0,-0.01 0,-0.01 0.01,-0.01 0,-0.01 0,-0.01 0.01,-0.01 0,-0.01 0.01,-0.01 0.01,-0.01 0.01,0 0.01,0 0.02,0l0.21 0c0.01,0 0.02,0 0.02,0 0.01,0.01 0.01,0.02 0.02,0.02l0.02 0.05 0.43 1.12c0.01,0.01 0.01,0.02 0,0.03 0,0.01 -0.01,0.01 -0.03,0.01l-0.24 0c-0.01,0 -0.02,0 -0.03,-0.01 0,0 -0.01,-0.01 -0.01,-0.02 -0.01,-0.03 -0.03,-0.06 -0.04,-0.08 -0.01,-0.03 -0.02,-0.06 -0.03,-0.09l-0.44 0c-0.01,0.03 -0.02,0.06 -0.03,0.09 -0.01,0.02 -0.02,0.05 -0.03,0.08 -0.01,0.02 -0.02,0.03 -0.05,0.03l-0.24 0c-0.01,0 -0.02,0 -0.03,-0.01 0,0 -0.01,-0.01 0,-0.02l0.45 -1.17z"/>
   <path class="fil0" d="M2.5 5.8c0,0.31 0.04,0.58 0.13,0.81 0.09,0.22 0.2,0.4 0.35,0.54 0.14,0.14 0.31,0.24 0.5,0.3 0.19,0.07 0.39,0.1 0.6,0.1 0.22,0 0.42,-0.04 0.61,-0.11 0.19,-0.08 0.36,-0.19 0.51,-0.34 0.14,-0.15 0.25,-0.33 0.34,-0.55 0.08,-0.22 0.12,-0.47 0.12,-0.75l0 -5.48c0,-0.08 0.03,-0.14 0.09,-0.2 0.05,-0.06 0.12,-0.09 0.21,-0.09l1.89 0c0.09,0 0.17,0.03 0.23,0.09 0.05,0.06 0.08,0.13 0.08,0.2l0 5.44c0,0.75 -0.11,1.38 -0.33,1.9 -0.22,0.51 -0.52,0.92 -0.89,1.23 -0.38,0.31 -0.81,0.54 -1.3,0.67 -0.5,0.14 -1.01,0.2 -1.56,0.2 -0.54,0 -1.06,-0.07 -1.55,-0.2 -0.5,-0.14 -0.93,-0.37 -1.3,-0.69 -0.38,-0.32 -0.68,-0.73 -0.9,-1.24 -0.22,-0.51 -0.33,-1.13 -0.33,-1.87l0 -5.44c0,-0.07 0.02,-0.14 0.07,-0.2 0.05,-0.06 0.11,-0.09 0.19,-0.09l1.93 0c0.06,0 0.13,0.03 0.2,0.09 0.07,0.05 0.11,0.12 0.11,0.2l0 5.48z"/>
   <path class="fil0" d="M9.7 0.32c0,-0.08 0.02,-0.14 0.07,-0.2 0.05,-0.06 0.12,-0.09 0.22,-0.09l2.14 0c0.06,0 0.12,0.02 0.19,0.05 0.07,0.03 0.12,0.08 0.17,0.16 0.56,0.89 1.11,1.78 1.65,2.65 0.55,0.86 1.1,1.75 1.66,2.64l0 -5.25c0.02,-0.07 0.05,-0.14 0.1,-0.18 0.06,-0.04 0.12,-0.07 0.19,-0.07l1.87 0c0.09,0 0.16,0.03 0.22,0.08 0.07,0.05 0.1,0.12 0.1,0.21l0 9.19c0,0.09 -0.03,0.15 -0.08,0.19 -0.05,0.04 -0.13,0.06 -0.22,0.06l-2.09 0c-0.06,0 -0.11,-0.01 -0.15,-0.05 -0.04,-0.04 -0.09,-0.1 -0.14,-0.16 -0.58,-0.96 -1.15,-1.91 -1.72,-2.85 -0.57,-0.94 -1.14,-1.89 -1.73,-2.85l0 5.63c0,0.09 -0.02,0.16 -0.07,0.21 -0.04,0.05 -0.12,0.07 -0.23,0.07l-1.86 0c-0.1,0 -0.18,-0.02 -0.22,-0.08 -0.05,-0.05 -0.07,-0.12 -0.07,-0.2l0 -9.16z"/>
   <path class="fil0" d="M35.86 2.82c-0.22,-0.16 -0.45,-0.28 -0.69,-0.36 -0.25,-0.09 -0.52,-0.13 -0.8,-0.13 -0.35,0 -0.67,0.07 -0.97,0.2 -0.29,0.14 -0.54,0.32 -0.75,0.55 -0.22,0.23 -0.38,0.5 -0.5,0.81 -0.12,0.3 -0.18,0.63 -0.18,0.98 0,0.35 0.06,0.68 0.18,0.99 0.12,0.3 0.28,0.57 0.5,0.8 0.21,0.23 0.46,0.41 0.75,0.54 0.3,0.13 0.62,0.2 0.97,0.2 0.15,0 0.3,-0.02 0.45,-0.04 0.14,-0.02 0.3,-0.05 0.47,-0.08l0 -1.67c0,-0.08 0.02,-0.15 0.07,-0.2 0.04,-0.06 0.11,-0.08 0.21,-0.08l1.73 0c0.07,0 0.14,0.02 0.21,0.07 0.07,0.05 0.11,0.12 0.11,0.21l0 3.09c0,0.11 -0.06,0.21 -0.19,0.28 -0.2,0.14 -0.42,0.25 -0.66,0.35 -0.24,0.1 -0.5,0.18 -0.76,0.24 -0.27,0.07 -0.53,0.11 -0.8,0.15 -0.27,0.03 -0.54,0.04 -0.79,0.04 -0.45,0 -0.89,-0.05 -1.3,-0.17 -0.42,-0.11 -0.81,-0.28 -1.17,-0.49 -0.36,-0.21 -0.69,-0.47 -0.98,-0.76 -0.3,-0.3 -0.55,-0.63 -0.77,-0.99 -0.21,-0.36 -0.37,-0.74 -0.49,-1.16 -0.11,-0.41 -0.17,-0.85 -0.17,-1.3 0,-0.45 0.06,-0.88 0.17,-1.3 0.12,-0.41 0.28,-0.8 0.49,-1.17 0.22,-0.36 0.47,-0.69 0.77,-0.99 0.29,-0.3 0.62,-0.55 0.98,-0.76 0.36,-0.21 0.75,-0.38 1.17,-0.49 0.41,-0.12 0.85,-0.18 1.3,-0.18 0.51,0 0.99,0.07 1.44,0.21 0.46,0.15 0.88,0.35 1.28,0.62 0.08,0.04 0.13,0.1 0.17,0.17 0.04,0.07 0.03,0.15 -0.02,0.24l-1.04 1.49c-0.05,0.07 -0.11,0.12 -0.17,0.14 -0.05,0.02 -0.12,0.01 -0.22,-0.05z"/>
   <path class="fil0" d="M27.23 9.22c1.31,-2.97 -3.12,-3.54 -3.95,-3.62 -0.06,-0.01 -0.1,0.05 -0.07,0.1 1.08,1.92 0.33,2.49 1.19,3.42 0.71,0.76 1.87,0.62 2.31,0.54 0.06,-0.02 0.07,-0.1 0.02,-0.13 -0.97,-0.58 -1.36,-1.26 -1.52,-1.69 -0.03,-0.08 0.08,-0.13 0.12,-0.06 0.66,0.98 1.23,1.36 1.54,1.51 0.01,0.01 0.01,0.01 0.02,0.01 0.06,0.02 0.13,0.04 0.19,0.02 0.07,-0.01 0.13,-0.04 0.15,-0.1z"/>
   <path class="fil0" d="M29.25 9.47l-3.44 -8.87 -0.15 -0.35c-0.01,-0.02 -0.02,-0.03 -0.03,-0.05 -0.02,-0.03 -0.06,-0.06 -0.1,-0.1 -0.05,-0.04 -0.12,-0.07 -0.19,-0.07l-1.68 0c-0.03,0 -0.07,0.01 -0.11,0.03 -0.04,0.01 -0.08,0.03 -0.11,0.06 -0.04,0.03 -0.06,0.05 -0.09,0.09 -0.02,0.03 -0.04,0.05 -0.04,0.08l-3.56 9.21c-0.03,0.09 -0.02,0.16 0.03,0.2 0.05,0.04 0.12,0.06 0.21,0.06l1.93 0c0.17,0 0.28,-0.08 0.33,-0.24 0.09,-0.22 0.17,-0.44 0.26,-0.66 0.08,-0.22 0.17,-0.45 0.25,-0.67l0.18 -0.51 0.34 -0.99c-0.09,-0.29 -0.23,-0.61 -0.45,-0.99 -0.06,-0.11 -0.06,-0.25 0.01,-0.36 0.06,-0.1 0.18,-0.17 0.3,-0.17 0.02,0 0.03,0 0.04,0 0.14,0.01 0.35,0.04 0.6,0.08l0.1 -0.29c0.04,-0.12 0.08,-0.24 0.12,-0.36 0.08,-0.27 0.16,-0.53 0.25,-0.78 0.02,-0.07 0.04,-0.13 0.06,-0.2 0.06,-0.17 0.31,-0.17 0.37,0.01l0.52 1.54 0.13 0.39 0.02 0.06c0.85,0.29 1.71,0.75 2.14,1.48 0.37,0.64 0.37,1.38 0.01,2.21 -0.02,0.05 -0.05,0.08 -0.08,0.12 -0.07,0.08 -0.16,0.14 -0.29,0.16 -0.01,0.01 -0.02,0.01 -0.03,0.01 0.14,0.08 0.33,0.17 0.62,0.16l1.26 0c0.12,0 0.2,-0.02 0.25,-0.08 0.05,-0.05 0.06,-0.12 0.02,-0.21z"/>
   <path class="fil0" d="M0.32 11.38c0,0.04 0.01,0.07 0.02,0.1 0.01,0.03 0.03,0.05 0.04,0.07 0.02,0.02 0.04,0.03 0.07,0.04 0.02,0.01 0.05,0.01 0.08,0.01 0.02,0 0.05,0 0.07,-0.01 0.03,-0.01 0.05,-0.03 0.07,-0.05 0.02,-0.01 0.03,-0.04 0.04,-0.07 0.01,-0.03 0.02,-0.06 0.02,-0.09l0 -0.71c0,-0.01 0,-0.02 0.01,-0.03 0.01,0 0.02,-0.01 0.03,-0.01l0.24 0c0.01,0 0.02,0.01 0.03,0.01 0.01,0.01 0.01,0.02 0.01,0.03l0 0.7c0,0.1 -0.01,0.18 -0.04,0.25 -0.03,0.06 -0.07,0.11 -0.12,0.15 -0.04,0.05 -0.1,0.07 -0.16,0.09 -0.07,0.02 -0.13,0.03 -0.2,0.03 -0.07,0 -0.14,-0.01 -0.2,-0.03 -0.07,-0.02 -0.12,-0.05 -0.17,-0.09 -0.05,-0.04 -0.09,-0.09 -0.12,-0.16 -0.03,-0.06 -0.04,-0.14 -0.04,-0.24l0 -0.7c0,-0.01 0,-0.02 0.01,-0.03 0.01,0 0.01,-0.01 0.02,-0.01l0.25 0c0.01,0 0.02,0.01 0.03,0.01 0.01,0.01 0.01,0.02 0.01,0.03l0 0.71z"/>
  </g>
 </g>
</svg>
